<svg width="291" height="176" viewBox="0 0 291 176" fill="none" xmlns="http://www.w3.org/2000/svg">
<path fill-rule="evenodd" clip-rule="evenodd" d="M61.5353 126.93C75.4752 126.93 86.7757 115.63 86.7757 101.69C86.7757 87.75 75.4752 76.4494 61.5353 76.4494C47.5954 76.4494 36.2949 87.75 36.2949 101.69C36.2949 115.63 47.5954 126.93 61.5353 126.93ZM61.5353 115.516C69.1713 115.516 75.3615 109.326 75.3615 101.69C75.3615 94.0538 69.1713 87.8636 61.5353 87.8636C53.8993 87.8636 47.7091 94.0538 47.7091 101.69C47.7091 109.326 53.8993 115.516 61.5353 115.516Z" fill="#D8D8D8"/>
<path fill-rule="evenodd" clip-rule="evenodd" d="M61.5353 125.327C74.5895 125.327 85.172 114.744 85.172 101.69C85.172 88.6356 74.5895 78.0531 61.5353 78.0531C48.4811 78.0531 37.8986 88.6356 37.8986 101.69C37.8986 114.744 48.4811 125.327 61.5353 125.327ZM76.9652 101.69C76.9652 110.211 70.057 117.12 61.5353 117.12C53.0136 117.12 46.1055 110.211 46.1055 101.69C46.1055 93.1681 53.0136 86.2599 61.5353 86.2599C70.057 86.2599 76.9652 93.1681 76.9652 101.69ZM86.7757 101.69C86.7757 115.63 75.4752 126.93 61.5353 126.93C47.5954 126.93 36.2949 115.63 36.2949 101.69C36.2949 87.75 47.5954 76.4494 61.5353 76.4494C75.4752 76.4494 86.7757 87.75 86.7757 101.69ZM75.3615 101.69C75.3615 109.326 69.1713 115.516 61.5353 115.516C53.8993 115.516 47.7091 109.326 47.7091 101.69C47.7091 94.0538 53.8993 87.8636 61.5353 87.8636C69.1713 87.8636 75.3615 94.0538 75.3615 101.69Z" fill="#989898"/>
<path fill-rule="evenodd" clip-rule="evenodd" d="M251.896 127.705C265.836 127.705 277.136 116.405 277.136 102.465C277.136 88.5248 265.836 77.2243 251.896 77.2243C237.956 77.2243 226.655 88.5248 226.655 102.465C226.655 116.405 237.956 127.705 251.896 127.705ZM251.896 116.291C259.532 116.291 265.722 110.101 265.722 102.465C265.722 94.8286 259.532 88.6384 251.896 88.6384C244.26 88.6384 238.069 94.8286 238.069 102.465C238.069 110.101 244.26 116.291 251.896 116.291Z" fill="#D8D8D8"/>
<path fill-rule="evenodd" clip-rule="evenodd" d="M251.896 126.101C264.95 126.101 275.532 115.519 275.532 102.465C275.532 89.4105 264.95 78.828 251.896 78.828C238.841 78.828 228.259 89.4105 228.259 102.465C228.259 115.519 238.841 126.101 251.896 126.101ZM267.325 102.465C267.325 110.986 260.417 117.894 251.896 117.894C243.374 117.894 236.466 110.986 236.466 102.465C236.466 93.943 243.374 87.0348 251.896 87.0348C260.417 87.0348 267.325 93.943 267.325 102.465ZM277.136 102.465C277.136 116.405 265.836 127.705 251.896 127.705C237.956 127.705 226.655 116.405 226.655 102.465C226.655 88.5248 237.956 77.2243 251.896 77.2243C265.836 77.2243 277.136 88.5248 277.136 102.465ZM265.722 102.465C265.722 110.101 259.532 116.291 251.896 116.291C244.26 116.291 238.069 110.101 238.069 102.465C238.069 94.8286 244.26 88.6384 251.896 88.6384C259.532 88.6384 265.722 94.8286 265.722 102.465Z" fill="#989898"/>
<path d="M52.4648 110.778L56.9006 101.906L61.3363 106.342L52.4648 110.778Z" fill="#8D9EB0"/>
<path d="M70.9881 92.4373L62.1166 96.873L66.5524 101.309L70.9881 92.4373Z" fill="#8D9EB0"/>
<path d="M64.0726 98.7403L55.576 107.237L56.0481 107.709L64.5447 99.2124L64.0726 98.7403Z" fill="#8D9EB0"/>
<path fill-rule="evenodd" clip-rule="evenodd" d="M71.5939 97.358V54.1446H72.5939V97.358H71.5939Z" fill="#A9B6C3"/>
<path d="M17.8461 95.4149C16.5725 95.4149 15.5775 95.8925 14.8611 96.7084L14.7218 95.6935H12.6124V110.26H15.08V105.683C15.7765 106.24 16.5725 106.539 17.5277 106.539C19.9754 106.539 21.846 104.449 21.846 101.484V100.43C21.846 97.385 20.1943 95.4149 17.8461 95.4149ZM19.3784 101.564C19.3784 103.634 18.5028 104.688 17.0899 104.688C16.3138 104.688 15.677 104.43 15.08 103.932V98.3999C15.6173 97.7034 16.3934 97.2855 17.2889 97.2855C18.6023 97.2855 19.3784 98.3004 19.3784 100.35V101.564Z" fill="#8D9EB0"/>
<path d="M27.2215 125.994L24.0849 116.584L30.358 116.584L27.2215 125.994Z" fill="#8D9EB0"/>
<path d="M26.8876 117.293L26.8876 83.2929L27.5553 83.2929L27.5553 117.293L26.8876 117.293Z" fill="#8D9EB0"/>
<path d="M27.3208 77.3854L24.1842 86.7951L30.4573 86.7951L27.3208 77.3854Z" fill="#8D9EB0"/>
<path fill-rule="evenodd" clip-rule="evenodd" d="M24.0849 127.327L67.6614 127.327L67.6614 128.083L24.0849 128.083L24.0849 127.327Z" fill="#A9B6C3"/>
<path fill-rule="evenodd" clip-rule="evenodd" d="M24.0849 75.2962L67.6614 75.2962L67.6614 76.0527L24.0849 76.0527L24.0849 75.2962Z" fill="#A9B6C3"/>
<path d="M93.6882 58.6827H220.827V146.247H93.6882V58.6827Z" fill="#F6F6F6"/>
<path fill-rule="evenodd" clip-rule="evenodd" d="M219.625 59.8854H94.8909V145.044H219.625V59.8854ZM93.6882 58.6827V146.247H220.827V58.6827H93.6882Z" fill="#989898"/>
<path d="M80.0608 36.6378C78.9065 36.6378 77.991 37.0358 77.3144 37.7324V32.777H74.8466V47.5039H76.777L76.9761 46.5885C77.7124 47.3447 78.6279 47.7626 79.7622 47.7626C82.1902 47.7626 84.0808 45.6531 84.0808 42.7276V41.6529C84.0808 38.5881 82.4887 36.6378 80.0608 36.6378ZM81.6131 42.8072C81.6131 44.8372 80.7175 45.9118 79.3443 45.9118C78.5284 45.9118 77.8517 45.5934 77.3144 45.0163V39.6429C77.8517 38.9663 78.608 38.5085 79.5632 38.5085C80.9165 38.5085 81.6131 39.5036 81.6131 41.5733V42.8072Z" fill="#8D9EB0"/>
<path d="M91.3806 45.6133V33.573H89.5297L85.6291 35.8418L86.5445 37.4737L88.9526 36.2796V45.6133H86.1067V47.5039H88.9526H93.8284V45.6133H91.3806Z" fill="#8D9EB0"/>
<path d="M60.1508 33.1546C56.3894 33.1546 54.5784 35.5825 54.5784 38.8264V41.931C54.5784 45.0953 56.3894 47.5631 60.1508 47.5631C63.932 47.5631 65.7232 45.0953 65.7232 41.931V38.8264C65.7232 35.5825 63.932 33.1546 60.1508 33.1546ZM60.1508 34.7666C62.5987 34.7666 63.7131 36.4582 63.7131 38.7866V41.9708C63.7131 44.2396 62.5987 45.9511 60.1508 45.9511C57.7029 45.9511 56.6084 44.2396 56.6084 41.9708V38.7866C56.6084 36.4383 57.7228 34.7666 60.1508 34.7666Z" fill="#8D9EB0"/>
<path d="M64.6546 31.4248L54.6914 48.6699L55.6488 49.2234L65.6121 31.9783L64.6546 31.4248Z" fill="#8D9EB0"/>
</svg>
