<svg width="291" height="176" viewBox="0 0 291 176" fill="none" xmlns="http://www.w3.org/2000/svg">
<path d="M27.7177 66.896H259.644V125.929H27.7177V66.896Z" fill="#F6F6F6"/>
<path fill-rule="evenodd" clip-rule="evenodd" d="M258.441 68.0988H28.9204V124.726H258.441V68.0988ZM27.7177 66.896V125.929H259.644V66.896H27.7177Z" fill="#989898"/>
<path fill-rule="evenodd" clip-rule="evenodd" d="M48.5255 62.7906C60.0174 62.7906 69.3334 53.4746 69.3334 41.9828C69.3334 30.4909 60.0174 21.1749 48.5255 21.1749C37.0336 21.1749 27.7177 30.4909 27.7177 41.9828C27.7177 53.4746 37.0336 62.7906 48.5255 62.7906ZM48.5255 53.3809C54.8206 53.3809 59.9237 48.2778 59.9237 41.9827C59.9237 35.6877 54.8206 30.5846 48.5255 30.5846C42.2305 30.5846 37.1274 35.6877 37.1274 41.9827C37.1274 48.2778 42.2305 53.3809 48.5255 53.3809Z" fill="#D8D8D8"/>
<path fill-rule="evenodd" clip-rule="evenodd" d="M48.5255 61.4686C59.2872 61.4686 68.0113 52.7445 68.0113 41.9828C68.0113 31.221 59.2872 22.4969 48.5255 22.4969C37.7638 22.4969 29.0397 31.221 29.0397 41.9828C29.0397 52.7445 37.7638 61.4686 48.5255 61.4686ZM61.2457 41.9827C61.2457 49.0079 55.5507 54.7029 48.5255 54.7029C41.5004 54.7029 35.8054 49.0079 35.8054 41.9827C35.8054 34.9576 41.5004 29.2626 48.5255 29.2626C55.5507 29.2626 61.2457 34.9576 61.2457 41.9827ZM69.3334 41.9828C69.3334 53.4746 60.0174 62.7906 48.5255 62.7906C37.0336 62.7906 27.7177 53.4746 27.7177 41.9828C27.7177 30.4909 37.0336 21.1749 48.5255 21.1749C60.0174 21.1749 69.3334 30.4909 69.3334 41.9828ZM59.9237 41.9827C59.9237 48.2778 54.8206 53.3809 48.5255 53.3809C42.2305 53.3809 37.1274 48.2778 37.1274 41.9827C37.1274 35.6877 42.2305 30.5846 48.5255 30.5846C54.8206 30.5846 59.9237 35.6877 59.9237 41.9827Z" fill="#989898"/>
<path fill-rule="evenodd" clip-rule="evenodd" d="M48.5255 171.649C60.0174 171.649 69.3334 162.333 69.3334 150.842C69.3334 139.35 60.0174 130.034 48.5255 130.034C37.0336 130.034 27.7177 139.35 27.7177 150.842C27.7177 162.333 37.0336 171.649 48.5255 171.649ZM48.5255 162.24C54.8206 162.24 59.9237 157.137 59.9237 150.842C59.9237 144.547 54.8206 139.443 48.5255 139.443C42.2305 139.443 37.1274 144.547 37.1274 150.842C37.1274 157.137 42.2305 162.24 48.5255 162.24Z" fill="#D8D8D8"/>
<path fill-rule="evenodd" clip-rule="evenodd" d="M48.5255 170.327C59.2872 170.327 68.0113 161.603 68.0113 150.842C68.0113 140.08 59.2872 131.356 48.5255 131.356C37.7638 131.356 29.0397 140.08 29.0397 150.842C29.0397 161.603 37.7638 170.327 48.5255 170.327ZM61.2457 150.842C61.2457 157.867 55.5507 163.562 48.5255 163.562C41.5004 163.562 35.8054 157.867 35.8054 150.842C35.8054 143.816 41.5004 138.121 48.5255 138.121C55.5507 138.121 61.2457 143.816 61.2457 150.842ZM69.3334 150.842C69.3334 162.333 60.0174 171.649 48.5255 171.649C37.0336 171.649 27.7177 162.333 27.7177 150.842C27.7177 139.35 37.0336 130.034 48.5255 130.034C60.0174 130.034 69.3334 139.35 69.3334 150.842ZM59.9237 150.842C59.9237 157.137 54.8206 162.24 48.5255 162.24C42.2305 162.24 37.1274 157.137 37.1274 150.842C37.1274 144.547 42.2305 139.443 48.5255 139.443C54.8206 139.443 59.9237 144.547 59.9237 150.842Z" fill="#989898"/>
<path fill-rule="evenodd" clip-rule="evenodd" d="M111.962 62.7906C123.454 62.7906 132.77 53.4746 132.77 41.9828C132.77 30.4909 123.454 21.1749 111.962 21.1749C100.47 21.1749 91.1544 30.4909 91.1544 41.9828C91.1544 53.4746 100.47 62.7906 111.962 62.7906ZM111.962 53.3809C118.257 53.3809 123.36 48.2778 123.36 41.9827C123.36 35.6877 118.257 30.5846 111.962 30.5846C105.667 30.5846 100.564 35.6877 100.564 41.9827C100.564 48.2778 105.667 53.3809 111.962 53.3809Z" fill="#D8D8D8"/>
<path fill-rule="evenodd" clip-rule="evenodd" d="M111.962 61.4686C122.724 61.4686 131.448 52.7445 131.448 41.9828C131.448 31.221 122.724 22.4969 111.962 22.4969C101.201 22.4969 92.4764 31.221 92.4764 41.9828C92.4764 52.7445 101.201 61.4686 111.962 61.4686ZM124.682 41.9827C124.682 49.0079 118.987 54.7029 111.962 54.7029C104.937 54.7029 99.2421 49.0079 99.2421 41.9827C99.2421 34.9576 104.937 29.2625 111.962 29.2625C118.987 29.2625 124.682 34.9576 124.682 41.9827ZM132.77 41.9828C132.77 53.4746 123.454 62.7906 111.962 62.7906C100.47 62.7906 91.1544 53.4746 91.1544 41.9828C91.1544 30.4909 100.47 21.1749 111.962 21.1749C123.454 21.1749 132.77 30.4909 132.77 41.9828ZM123.36 41.9827C123.36 48.2778 118.257 53.3809 111.962 53.3809C105.667 53.3809 100.564 48.2778 100.564 41.9827C100.564 35.6877 105.667 30.5846 111.962 30.5846C118.257 30.5846 123.36 35.6877 123.36 41.9827Z" fill="#989898"/>
<path fill-rule="evenodd" clip-rule="evenodd" d="M111.962 171.649C123.454 171.649 132.77 162.333 132.77 150.842C132.77 139.35 123.454 130.034 111.962 130.034C100.47 130.034 91.1544 139.35 91.1544 150.842C91.1544 162.333 100.47 171.649 111.962 171.649ZM111.962 162.24C118.257 162.24 123.36 157.137 123.36 150.842C123.36 144.547 118.257 139.443 111.962 139.443C105.667 139.443 100.564 144.547 100.564 150.842C100.564 157.137 105.667 162.24 111.962 162.24Z" fill="#D8D8D8"/>
<path fill-rule="evenodd" clip-rule="evenodd" d="M111.962 170.327C122.724 170.327 131.448 161.603 131.448 150.842C131.448 140.08 122.724 131.356 111.962 131.356C101.201 131.356 92.4764 140.08 92.4764 150.842C92.4764 161.603 101.201 170.327 111.962 170.327ZM124.682 150.842C124.682 157.867 118.987 163.562 111.962 163.562C104.937 163.562 99.2421 157.867 99.2421 150.842C99.2421 143.816 104.937 138.121 111.962 138.121C118.987 138.121 124.682 143.816 124.682 150.842ZM132.77 150.842C132.77 162.333 123.454 171.649 111.962 171.649C100.47 171.649 91.1544 162.333 91.1544 150.842C91.1544 139.35 100.47 130.034 111.962 130.034C123.454 130.034 132.77 139.35 132.77 150.842ZM123.36 150.842C123.36 157.137 118.257 162.24 111.962 162.24C105.667 162.24 100.564 157.137 100.564 150.842C100.564 144.547 105.667 139.443 111.962 139.443C118.257 139.443 123.36 144.547 123.36 150.842Z" fill="#989898"/>
<path fill-rule="evenodd" clip-rule="evenodd" d="M175.399 62.7906C186.891 62.7906 196.207 53.4746 196.207 41.9828C196.207 30.4909 186.891 21.1749 175.399 21.1749C163.907 21.1749 154.591 30.4909 154.591 41.9828C154.591 53.4746 163.907 62.7906 175.399 62.7906ZM175.399 53.3809C181.694 53.3809 186.797 48.2778 186.797 41.9827C186.797 35.6877 181.694 30.5846 175.399 30.5846C169.104 30.5846 164.001 35.6877 164.001 41.9827C164.001 48.2778 169.104 53.3809 175.399 53.3809Z" fill="#D8D8D8"/>
<path fill-rule="evenodd" clip-rule="evenodd" d="M175.399 61.4686C186.161 61.4686 194.885 52.7445 194.885 41.9828C194.885 31.221 186.161 22.4969 175.399 22.4969C164.637 22.4969 155.913 31.221 155.913 41.9828C155.913 52.7445 164.637 61.4686 175.399 61.4686ZM188.119 41.9827C188.119 49.0079 182.424 54.7029 175.399 54.7029C168.374 54.7029 162.679 49.0079 162.679 41.9827C162.679 34.9576 168.374 29.2625 175.399 29.2625C182.424 29.2625 188.119 34.9576 188.119 41.9827ZM196.207 41.9828C196.207 53.4746 186.891 62.7906 175.399 62.7906C163.907 62.7906 154.591 53.4746 154.591 41.9828C154.591 30.4909 163.907 21.1749 175.399 21.1749C186.891 21.1749 196.207 30.4909 196.207 41.9828ZM186.797 41.9827C186.797 48.2778 181.694 53.3809 175.399 53.3809C169.104 53.3809 164.001 48.2778 164.001 41.9827C164.001 35.6877 169.104 30.5846 175.399 30.5846C181.694 30.5846 186.797 35.6877 186.797 41.9827Z" fill="#989898"/>
<path fill-rule="evenodd" clip-rule="evenodd" d="M175.399 171.649C186.891 171.649 196.207 162.333 196.207 150.842C196.207 139.35 186.891 130.034 175.399 130.034C163.907 130.034 154.591 139.35 154.591 150.842C154.591 162.333 163.907 171.649 175.399 171.649ZM175.399 162.24C181.694 162.24 186.797 157.137 186.797 150.842C186.797 144.547 181.694 139.443 175.399 139.443C169.104 139.443 164.001 144.547 164.001 150.842C164.001 157.137 169.104 162.24 175.399 162.24Z" fill="#D8D8D8"/>
<path fill-rule="evenodd" clip-rule="evenodd" d="M175.399 170.327C186.161 170.327 194.885 161.603 194.885 150.842C194.885 140.08 186.161 131.356 175.399 131.356C164.637 131.356 155.913 140.08 155.913 150.842C155.913 161.603 164.637 170.327 175.399 170.327ZM188.119 150.842C188.119 157.867 182.424 163.562 175.399 163.562C168.374 163.562 162.679 157.867 162.679 150.842C162.679 143.816 168.374 138.121 175.399 138.121C182.424 138.121 188.119 143.816 188.119 150.842ZM196.207 150.842C196.207 162.333 186.891 171.649 175.399 171.649C163.907 171.649 154.591 162.333 154.591 150.842C154.591 139.35 163.907 130.034 175.399 130.034C186.891 130.034 196.207 139.35 196.207 150.842ZM186.797 150.842C186.797 157.137 181.694 162.24 175.399 162.24C169.104 162.24 164.001 157.137 164.001 150.842C164.001 144.547 169.104 139.443 175.399 139.443C181.694 139.443 186.797 144.547 186.797 150.842Z" fill="#989898"/>
<path fill-rule="evenodd" clip-rule="evenodd" d="M238.836 62.7906C250.328 62.7906 259.644 53.4746 259.644 41.9828C259.644 30.4909 250.328 21.1749 238.836 21.1749C227.344 21.1749 218.028 30.4909 218.028 41.9828C218.028 53.4746 227.344 62.7906 238.836 62.7906ZM238.836 53.3809C245.131 53.3809 250.234 48.2778 250.234 41.9827C250.234 35.6877 245.131 30.5846 238.836 30.5846C232.541 30.5846 227.438 35.6877 227.438 41.9827C227.438 48.2778 232.541 53.3809 238.836 53.3809Z" fill="#D8D8D8"/>
<path fill-rule="evenodd" clip-rule="evenodd" d="M238.836 61.4686C249.598 61.4686 258.322 52.7445 258.322 41.9828C258.322 31.221 249.598 22.4969 238.836 22.4969C228.074 22.4969 219.35 31.221 219.35 41.9828C219.35 52.7445 228.074 61.4686 238.836 61.4686ZM251.556 41.9827C251.556 49.0079 245.861 54.7029 238.836 54.7029C231.811 54.7029 226.116 49.0079 226.116 41.9827C226.116 34.9576 231.811 29.2625 238.836 29.2625C245.861 29.2625 251.556 34.9576 251.556 41.9827ZM259.644 41.9828C259.644 53.4746 250.328 62.7906 238.836 62.7906C227.344 62.7906 218.028 53.4746 218.028 41.9828C218.028 30.4909 227.344 21.1749 238.836 21.1749C250.328 21.1749 259.644 30.4909 259.644 41.9828ZM250.234 41.9827C250.234 48.2778 245.131 53.3809 238.836 53.3809C232.541 53.3809 227.438 48.2778 227.438 41.9827C227.438 35.6877 232.541 30.5846 238.836 30.5846C245.131 30.5846 250.234 35.6877 250.234 41.9827Z" fill="#989898"/>
<path fill-rule="evenodd" clip-rule="evenodd" d="M238.836 171.649C250.328 171.649 259.644 162.333 259.644 150.842C259.644 139.35 250.328 130.034 238.836 130.034C227.344 130.034 218.028 139.35 218.028 150.842C218.028 162.333 227.344 171.649 238.836 171.649ZM238.836 162.24C245.131 162.24 250.234 157.137 250.234 150.842C250.234 144.547 245.131 139.443 238.836 139.443C232.541 139.443 227.438 144.547 227.438 150.842C227.438 157.137 232.541 162.24 238.836 162.24Z" fill="#D8D8D8"/>
<path fill-rule="evenodd" clip-rule="evenodd" d="M238.836 170.327C249.598 170.327 258.322 161.603 258.322 150.842C258.322 140.08 249.598 131.356 238.836 131.356C228.074 131.356 219.35 140.08 219.35 150.842C219.35 161.603 228.074 170.327 238.836 170.327ZM251.556 150.842C251.556 157.867 245.861 163.562 238.836 163.562C231.811 163.562 226.116 157.867 226.116 150.842C226.116 143.816 231.811 138.121 238.836 138.121C245.861 138.121 251.556 143.816 251.556 150.842ZM259.644 150.842C259.644 162.333 250.328 171.649 238.836 171.649C227.344 171.649 218.028 162.333 218.028 150.842C218.028 139.35 227.344 130.034 238.836 130.034C250.328 130.034 259.644 139.35 259.644 150.842ZM250.234 150.842C250.234 157.137 245.131 162.24 238.836 162.24C232.541 162.24 227.438 157.137 227.438 150.842C227.438 144.547 232.541 139.443 238.836 139.443C245.131 139.443 250.234 144.547 250.234 150.842Z" fill="#989898"/>
<path d="M41.0479 49.4748L44.7047 42.1612L48.3615 45.818L41.0479 49.4748Z" fill="#8D9EB0"/>
<path d="M56.3183 34.355L49.0047 38.0118L52.6615 41.6686L56.3183 34.355Z" fill="#8D9EB0"/>
<path d="M50.6172 39.5511L43.6128 46.5556L44.0019 46.9448L51.0064 39.9403L50.6172 39.5511Z" fill="#8D9EB0"/>
<path fill-rule="evenodd" clip-rule="evenodd" d="M56.9458 38.1129L75.739 20.2373L76.3072 20.8346L57.5139 38.7103L56.9458 38.1129Z" fill="#A9B6C3"/>
<path d="M12.5087 37.322C11.4588 37.322 10.6385 37.7157 10.0479 38.3884L9.93306 37.5517H8.19409V49.5604H10.2284V45.7872C10.8025 46.2465 11.4588 46.4926 12.2462 46.4926C14.2641 46.4926 15.8062 44.77 15.8062 42.3256V41.4562C15.8062 38.9461 14.4445 37.322 12.5087 37.322ZM13.7719 42.3913C13.7719 44.0974 13.0501 44.9669 11.8853 44.9669C11.2455 44.9669 10.7205 44.7536 10.2284 44.3435V39.7828C10.6713 39.2086 11.3111 38.8641 12.0493 38.8641C13.1321 38.8641 13.7719 39.7008 13.7719 41.3905V42.3913Z" fill="#8D9EB0"/>
<path d="M20.2376 62.0189L17.6519 54.2617L22.8233 54.2617L20.2376 62.0189Z" fill="#8D9EB0"/>
<path d="M19.9624 54.8457L19.9624 26.8165L20.5128 26.8165L20.5128 54.8457L19.9624 54.8457Z" fill="#8D9EB0"/>
<path d="M20.3195 21.9465L17.7338 29.7037L22.9052 29.7037L20.3195 21.9465Z" fill="#8D9EB0"/>
<path fill-rule="evenodd" clip-rule="evenodd" d="M17.6519 63.1176L53.5758 63.1175L53.5758 63.7413L17.6519 63.7413L17.6519 63.1176Z" fill="#A9B6C3"/>
<path fill-rule="evenodd" clip-rule="evenodd" d="M17.6519 20.2241L53.5758 20.2241L53.5758 20.8478L17.6519 20.8478L17.6519 20.2241Z" fill="#A9B6C3"/>
<path d="M84.2889 8.69468C83.3373 8.69468 82.5826 9.02281 82.0248 9.59703V5.51184H79.9904V17.6526H81.5818L81.7459 16.8979C82.3529 17.5213 83.1076 17.8658 84.0428 17.8658C86.0444 17.8658 87.603 16.1268 87.603 13.715V12.8291C87.603 10.3025 86.2905 8.69468 84.2889 8.69468ZM85.5686 13.7807C85.5686 15.4541 84.8303 16.3401 83.6983 16.3401C83.0256 16.3401 82.4678 16.0776 82.0248 15.6018V11.172C82.4678 10.6142 83.0912 10.2369 83.8787 10.2369C84.9944 10.2369 85.5686 11.0572 85.5686 12.7635V13.7807Z" fill="#8D9EB0"/>
<path d="M93.6208 16.094V6.1681H92.095L88.8793 8.03842L89.634 9.38375L91.6192 8.39936V16.094H89.2731V17.6526H91.6192H95.6388V16.094H93.6208Z" fill="#8D9EB0"/>
<path d="M67.8754 6.13525C64.7746 6.13525 63.2816 8.13683 63.2816 10.8111V13.3705C63.2816 15.9791 64.7746 18.0135 67.8754 18.0135C70.9926 18.0135 72.4692 15.9791 72.4692 13.3705V10.8111C72.4692 8.13683 70.9926 6.13525 67.8754 6.13525ZM67.8754 7.46417C69.8934 7.46417 70.8121 8.85871 70.8121 10.7783V13.4033C70.8121 15.2736 69.8934 16.6846 67.8754 16.6846C65.8574 16.6846 64.9551 15.2736 64.9551 13.4033V10.7783C64.9551 8.84231 65.8738 7.46417 67.8754 7.46417Z" fill="#8D9EB0"/>
<path d="M71.5883 4.70927L63.3747 18.9259L64.164 19.3822L72.3776 5.16556L71.5883 4.70927Z" fill="#8D9EB0"/>
</svg>
