<svg width="200" height="150" viewBox="0 0 200 150" fill="none" xmlns="http://www.w3.org/2000/svg">
<rect x="72.6735" y="67.5635" width="9.77791" height="13.4628" fill="#D8D8D8" stroke="#979797"/>
<rect x="75.7205" y="81.0264" width="3.68383" height="21.7553" fill="#D8D8D8" stroke="#979797"/>
<rect x="94.0648" y="67.5635" width="9.77791" height="13.4628" fill="#D8D8D8" stroke="#979797"/>
<rect x="97.1118" y="81.0264" width="3.68383" height="21.7553" fill="#D8D8D8" stroke="#979797"/>
<rect x="114.176" y="67.5635" width="9.77791" height="13.4628" fill="#D8D8D8" stroke="#979797"/>
<rect x="117.223" y="81.0264" width="3.68383" height="21.7553" fill="#D8D8D8" stroke="#979797"/>
<rect x="133.76" y="67.5635" width="9.77791" height="13.4628" fill="#D8D8D8" stroke="#979797"/>
<rect x="136.807" y="81.0264" width="3.68383" height="21.7553" fill="#D8D8D8" stroke="#979797"/>
<rect x="153.343" y="67.5635" width="9.77791" height="13.4628" fill="#D8D8D8" stroke="#979797"/>
<rect x="156.39" y="81.0264" width="3.68383" height="21.7553" fill="#D8D8D8" stroke="#979797"/>
<rect x="172.927" y="67.5635" width="9.77791" height="13.4628" fill="#D8D8D8" stroke="#979797"/>
<rect x="175.974" y="81.0264" width="3.68383" height="21.7553" fill="#D8D8D8" stroke="#979797"/>
<rect x="65.7443" y="47.5908" width="124.18" height="20" fill="#585858" stroke="#505050"/>
<rect x="11.955" y="67.564" width="9.77791" height="13.4628" fill="#D8D8D8" stroke="#979797"/>
<rect x="15.002" y="81.0269" width="3.68383" height="21.7553" fill="#D8D8D8" stroke="#979797"/>
<rect x="42.705" y="67.564" width="9.77791" height="13.4628" fill="#D8D8D8" stroke="#979797"/>
<rect x="45.752" y="81.0269" width="3.68383" height="21.7553" fill="#D8D8D8" stroke="#979797"/>
<mask id="path-18-inside-1_603:3966" fill="white">
<path fill-rule="evenodd" clip-rule="evenodd" d="M21.7329 47.0913H8.45557V68.0913H55.4556V47.0913H42.705V56.83H21.7329V47.0913Z"/>
</mask>
<path fill-rule="evenodd" clip-rule="evenodd" d="M21.7329 47.0913H8.45557V68.0913H55.4556V47.0913H42.705V56.83H21.7329V47.0913Z" fill="#585858"/>
<path d="M8.45557 47.0913V46.0913H7.45557V47.0913H8.45557ZM21.7329 47.0913H22.7329V46.0913H21.7329V47.0913ZM8.45557 68.0913H7.45557V69.0913H8.45557V68.0913ZM55.4556 68.0913V69.0913H56.4556V68.0913H55.4556ZM55.4556 47.0913H56.4556V46.0913H55.4556V47.0913ZM42.705 47.0913V46.0913H41.705V47.0913H42.705ZM42.705 56.83V57.83H43.705V56.83H42.705ZM21.7329 56.83H20.7329V57.83H21.7329V56.83ZM8.45557 48.0913H21.7329V46.0913H8.45557V48.0913ZM9.45557 68.0913V47.0913H7.45557V68.0913H9.45557ZM55.4556 67.0913H8.45557V69.0913H55.4556V67.0913ZM54.4556 47.0913V68.0913H56.4556V47.0913H54.4556ZM42.705 48.0913H55.4556V46.0913H42.705V48.0913ZM41.705 47.0913V56.83H43.705V47.0913H41.705ZM42.705 55.83H21.7329V57.83H42.705V55.83ZM22.7329 56.83V47.0913H20.7329V56.83H22.7329Z" fill="#505050" mask="url(#path-18-inside-1_603:3966)"/>
</svg>
