<svg width="291" height="176" viewBox="0 0 291 176" fill="none" xmlns="http://www.w3.org/2000/svg">
<path fill-rule="evenodd" clip-rule="evenodd" d="M5.46088 89.7807C5.46088 52.6566 35.556 22.5615 72.6801 22.5615H216.781C253.905 22.5615 284 52.6566 284 89.7807C284 126.905 253.905 157 216.781 157H72.6801C35.556 157 5.46088 126.905 5.46088 89.7807ZM81.3795 91.4941C81.3795 100.778 73.8534 108.304 64.5696 108.304C55.2857 108.304 47.7596 100.778 47.7596 91.4941C47.7596 82.2103 55.2857 74.6842 64.5696 74.6842C73.8534 74.6842 81.3795 82.2103 81.3795 91.4941ZM226.655 108.862C235.939 108.862 243.465 101.336 243.465 92.0525C243.465 82.7686 235.939 75.2425 226.655 75.2425C217.371 75.2425 209.845 82.7686 209.845 92.0525C209.845 101.336 217.371 108.862 226.655 108.862Z" fill="#F6F6F6"/>
<path fill-rule="evenodd" clip-rule="evenodd" d="M72.6801 23.7642C36.2202 23.7642 6.66361 53.3208 6.66361 89.7807C6.66361 126.241 36.2202 155.797 72.6801 155.797H216.781C253.241 155.797 282.797 126.241 282.797 89.7807C282.797 53.3208 253.241 23.7642 216.781 23.7642H72.6801ZM82.5822 91.4941C82.5822 101.442 74.5177 109.507 64.5696 109.507C54.6215 109.507 46.5569 101.442 46.5569 91.4941C46.5569 81.546 54.6215 73.4815 64.5696 73.4815C74.5177 73.4815 82.5822 81.546 82.5822 91.4941ZM244.668 92.0525C244.668 102.001 236.603 110.065 226.655 110.065C216.707 110.065 208.643 102.001 208.643 92.0525C208.643 82.1043 216.707 74.0398 226.655 74.0398C236.603 74.0398 244.668 82.1043 244.668 92.0525ZM72.6801 22.5615C35.556 22.5615 5.46088 52.6566 5.46088 89.7807C5.46088 126.905 35.556 157 72.6801 157H216.781C253.905 157 284 126.905 284 89.7807C284 52.6566 253.905 22.5615 216.781 22.5615H72.6801ZM64.5696 108.304C73.8534 108.304 81.3795 100.778 81.3795 91.4941C81.3795 82.2103 73.8534 74.6842 64.5696 74.6842C55.2857 74.6842 47.7596 82.2103 47.7596 91.4941C47.7596 100.778 55.2857 108.304 64.5696 108.304ZM243.465 92.0525C243.465 101.336 235.939 108.862 226.655 108.862C217.371 108.862 209.845 101.336 209.845 92.0525C209.845 82.7686 217.371 75.2425 226.655 75.2425C235.939 75.2425 243.465 82.7686 243.465 92.0525Z" fill="#989898"/>
<path fill-rule="evenodd" clip-rule="evenodd" d="M64.7685 116.518C78.7084 116.518 90.0089 105.217 90.0089 91.2776C90.0089 77.3377 78.7084 66.0372 64.7685 66.0372C50.8286 66.0372 39.5281 77.3377 39.5281 91.2776C39.5281 105.217 50.8286 116.518 64.7685 116.518ZM64.7685 105.104C72.4045 105.104 78.5947 98.9136 78.5947 91.2776C78.5947 83.6416 72.4045 77.4514 64.7685 77.4514C57.1325 77.4514 50.9423 83.6416 50.9423 91.2776C50.9423 98.9136 57.1325 105.104 64.7685 105.104Z" fill="#D8D8D8"/>
<path fill-rule="evenodd" clip-rule="evenodd" d="M64.7685 114.914C77.8227 114.914 88.4053 104.332 88.4053 91.2776C88.4053 78.2234 77.8227 67.6409 64.7685 67.6409C51.7143 67.6409 41.1318 78.2234 41.1318 91.2776C41.1318 104.332 51.7143 114.914 64.7685 114.914ZM80.1984 91.2776C80.1984 99.7992 73.2902 106.707 64.7685 106.707C56.2469 106.707 49.3387 99.7992 49.3387 91.2776C49.3387 82.7559 56.2469 75.8477 64.7685 75.8477C73.2902 75.8477 80.1984 82.7559 80.1984 91.2776ZM90.0089 91.2776C90.0089 105.217 78.7084 116.518 64.7685 116.518C50.8286 116.518 39.5281 105.217 39.5281 91.2776C39.5281 77.3377 50.8286 66.0372 64.7685 66.0372C78.7084 66.0372 90.0089 77.3377 90.0089 91.2776ZM78.5947 91.2776C78.5947 98.9136 72.4045 105.104 64.7685 105.104C57.1325 105.104 50.9423 98.9136 50.9423 91.2776C50.9423 83.6416 57.1325 77.4514 64.7685 77.4514C72.4045 77.4514 78.5947 83.6416 78.5947 91.2776Z" fill="#989898"/>
<path fill-rule="evenodd" clip-rule="evenodd" d="M226.655 117.293C240.595 117.293 251.896 105.992 251.896 92.0525C251.896 78.1126 240.595 66.8121 226.655 66.8121C212.715 66.8121 201.415 78.1126 201.415 92.0525C201.415 105.992 212.715 117.293 226.655 117.293ZM226.655 105.879C234.291 105.879 240.481 99.6884 240.481 92.0524C240.481 84.4164 234.291 78.2262 226.655 78.2262C219.019 78.2262 212.829 84.4164 212.829 92.0524C212.829 99.6884 219.019 105.879 226.655 105.879Z" fill="#D8D8D8"/>
<path fill-rule="evenodd" clip-rule="evenodd" d="M226.655 115.689C239.709 115.689 250.292 105.107 250.292 92.0525C250.292 78.9983 239.709 68.4157 226.655 68.4157C213.601 68.4157 203.019 78.9983 203.019 92.0525C203.019 105.107 213.601 115.689 226.655 115.689ZM242.085 92.0524C242.085 100.574 235.177 107.482 226.655 107.482C218.134 107.482 211.225 100.574 211.225 92.0524C211.225 83.5308 218.134 76.6226 226.655 76.6226C235.177 76.6226 242.085 83.5308 242.085 92.0524ZM251.896 92.0525C251.896 105.992 240.595 117.293 226.655 117.293C212.715 117.293 201.415 105.992 201.415 92.0525C201.415 78.1126 212.715 66.8121 226.655 66.8121C240.595 66.8121 251.896 78.1126 251.896 92.0525ZM240.481 92.0524C240.481 99.6884 234.291 105.879 226.655 105.879C219.019 105.879 212.829 99.6884 212.829 92.0524C212.829 84.4164 219.019 78.2262 226.655 78.2262C234.291 78.2262 240.481 84.4164 240.481 92.0524Z" fill="#989898"/>
<path d="M55.698 100.366L60.1338 91.4941L64.5696 95.9299L55.698 100.366Z" fill="#8D9EB0"/>
<path d="M74.2214 82.025L65.3498 86.4608L69.7856 90.8966L74.2214 82.025Z" fill="#8D9EB0"/>
<path d="M67.3058 88.328L58.8092 96.8246L59.2813 97.2967L67.7779 88.8001L67.3058 88.328Z" fill="#8D9EB0"/>
<path fill-rule="evenodd" clip-rule="evenodd" d="M74.9853 86.5807L107.613 56.0349L108.297 56.7649L75.6688 87.3107L74.9853 86.5807Z" fill="#A9B6C3"/>
<path d="M21.0793 85.0027C19.8057 85.0027 18.8107 85.4803 18.0943 86.2962L17.955 85.2813H15.8456V99.8481H18.3132V95.2711C19.0097 95.8283 19.8057 96.1268 20.7609 96.1268C23.2086 96.1268 25.0792 94.0373 25.0792 91.0722V90.0175C25.0792 86.9728 23.4275 85.0027 21.0793 85.0027ZM22.6116 91.1518C22.6116 93.2214 21.736 94.2761 20.3231 94.2761C19.547 94.2761 18.9102 94.0174 18.3132 93.5199V87.9877C18.8505 87.2912 19.6266 86.8733 20.5221 86.8733C21.8355 86.8733 22.6116 87.8882 22.6116 89.9379V91.1518Z" fill="#8D9EB0"/>
<path d="M30.4547 115.582L27.3181 106.172L33.5912 106.172L30.4547 115.582Z" fill="#8D9EB0"/>
<path d="M30.1208 106.881L30.1208 72.8806L30.7885 72.8806L30.7885 106.881L30.1208 106.881Z" fill="#8D9EB0"/>
<path d="M30.554 66.9732L27.4174 76.3828L33.6905 76.3828L30.554 66.9732Z" fill="#8D9EB0"/>
<path fill-rule="evenodd" clip-rule="evenodd" d="M27.3181 116.915L70.8946 116.915L70.8946 117.671L27.3181 117.671L27.3181 116.915Z" fill="#A9B6C3"/>
<path fill-rule="evenodd" clip-rule="evenodd" d="M27.3181 64.8839L70.8946 64.8839L70.8946 65.6405L27.3181 65.6405L27.3181 64.8839Z" fill="#A9B6C3"/>
<path d="M122.404 36.6632C121.249 36.6632 120.334 37.0612 119.657 37.7577V32.8023H117.19V47.5293H119.12L119.319 46.6138C120.055 47.3701 120.971 47.788 122.105 47.788C124.533 47.788 126.424 45.6784 126.424 42.753V41.6783C126.424 38.6135 124.832 36.6632 122.404 36.6632ZM123.956 42.8326C123.956 44.8625 123.06 45.9372 121.687 45.9372C120.871 45.9372 120.195 45.6187 119.657 45.0416V39.6683C120.195 38.9916 120.951 38.5339 121.906 38.5339C123.259 38.5339 123.956 39.5289 123.956 41.5987V42.8326Z" fill="#8D9EB0"/>
<path d="M133.724 45.6386V33.5984H131.873L127.972 35.8671L128.887 37.499L131.296 36.3049V45.6386H128.45V47.5293H131.296H136.171V45.6386H133.724Z" fill="#8D9EB0"/>
<path d="M102.494 33.1799C98.7324 33.1799 96.9214 35.6078 96.9214 38.8518V41.9564C96.9214 45.1207 98.7324 47.5884 102.494 47.5884C106.275 47.5884 108.066 45.1207 108.066 41.9564V38.8518C108.066 35.6078 106.275 33.1799 102.494 33.1799ZM102.494 34.7919C104.942 34.7919 106.056 36.4835 106.056 38.812V41.9962C106.056 44.2649 104.942 45.9764 102.494 45.9764C100.046 45.9764 98.9513 44.2649 98.9513 41.9962V38.812C98.9513 36.4636 100.066 34.7919 102.494 34.7919Z" fill="#8D9EB0"/>
<path d="M106.998 31.4501L97.0344 48.6953L97.9918 49.2488L107.955 32.0036L106.998 31.4501Z" fill="#8D9EB0"/>
</svg>
