<svg width="291" height="176" viewBox="0 0 291 176" fill="none" xmlns="http://www.w3.org/2000/svg">
<path fill-rule="evenodd" clip-rule="evenodd" d="M53.509 86.8535C53.509 40.3461 91.2107 2.64441 137.718 2.64441C184.225 2.64441 221.927 40.3461 221.927 86.8534V89.6312C221.927 136.139 184.225 173.84 137.718 173.84C91.2107 173.84 53.509 136.139 53.509 89.6313V86.8535ZM110.852 87.6545C110.852 96.9383 103.326 104.464 94.0424 104.464C84.7585 104.464 77.2325 96.9383 77.2325 87.6545C77.2325 78.3706 84.7585 70.8445 94.0424 70.8445C103.326 70.8445 110.852 78.3706 110.852 87.6545ZM181.039 103.464C190.323 103.464 197.849 95.9383 197.849 86.6545C197.849 77.3706 190.323 69.8445 181.039 69.8445C171.755 69.8445 164.229 77.3706 164.229 86.6545C164.229 95.9383 171.755 103.464 181.039 103.464Z" fill="#F6F6F6"/>
<path fill-rule="evenodd" clip-rule="evenodd" d="M137.718 3.84714C91.8749 3.84714 54.7117 41.0104 54.7117 86.8535V89.6313C54.7117 135.474 91.8749 172.638 137.718 172.638C183.561 172.638 220.724 135.474 220.724 89.6312V86.8534C220.724 41.0103 183.561 3.84714 137.718 3.84714ZM112.055 87.6545C112.055 97.6026 103.991 105.667 94.0424 105.667C84.0943 105.667 76.0297 97.6026 76.0297 87.6545C76.0297 77.7064 84.0943 69.6418 94.0424 69.6418C103.991 69.6418 112.055 77.7064 112.055 87.6545ZM199.051 86.6545C199.051 96.6026 190.987 104.667 181.039 104.667C171.091 104.667 163.026 96.6026 163.026 86.6545C163.026 76.7064 171.091 68.6418 181.039 68.6418C190.987 68.6418 199.051 76.7064 199.051 86.6545ZM137.718 2.64441C91.2107 2.64441 53.509 40.3461 53.509 86.8535V89.6313C53.509 136.139 91.2107 173.84 137.718 173.84C184.225 173.84 221.927 136.139 221.927 89.6312V86.8534C221.927 40.3461 184.225 2.64441 137.718 2.64441ZM94.0424 104.464C103.326 104.464 110.852 96.9383 110.852 87.6545C110.852 78.3706 103.326 70.8445 94.0424 70.8445C84.7585 70.8445 77.2325 78.3706 77.2325 87.6545C77.2325 96.9383 84.7585 104.464 94.0424 104.464ZM197.849 86.6545C197.849 95.9383 190.323 103.464 181.039 103.464C171.755 103.464 164.229 95.9383 164.229 86.6545C164.229 77.3706 171.755 69.8445 181.039 69.8445C190.323 69.8445 197.849 77.3706 197.849 86.6545Z" fill="#989898"/>
<path fill-rule="evenodd" clip-rule="evenodd" d="M94.2414 112.67C108.181 112.67 119.482 101.369 119.482 87.4294C119.482 73.4895 108.181 62.189 94.2414 62.189C80.3015 62.189 69.001 73.4895 69.001 87.4294C69.001 101.369 80.3015 112.67 94.2414 112.67ZM94.2414 101.256C101.877 101.256 108.068 95.0654 108.068 87.4294C108.068 79.7934 101.877 73.6032 94.2414 73.6032C86.6054 73.6032 80.4152 79.7934 80.4152 87.4294C80.4152 95.0654 86.6054 101.256 94.2414 101.256Z" fill="#D8D8D8"/>
<path fill-rule="evenodd" clip-rule="evenodd" d="M94.2414 111.066C107.296 111.066 117.878 100.484 117.878 87.4294C117.878 74.3752 107.296 63.7927 94.2414 63.7927C81.1872 63.7927 70.6046 74.3752 70.6046 87.4294C70.6046 100.484 81.1872 111.066 94.2414 111.066ZM109.671 87.4294C109.671 95.951 102.763 102.859 94.2414 102.859C85.7197 102.859 78.8115 95.951 78.8115 87.4294C78.8115 78.9077 85.7197 71.9995 94.2414 71.9995C102.763 71.9995 109.671 78.9077 109.671 87.4294ZM119.482 87.4294C119.482 101.369 108.181 112.67 94.2414 112.67C80.3015 112.67 69.001 101.369 69.001 87.4294C69.001 73.4895 80.3015 62.189 94.2414 62.189C108.181 62.189 119.482 73.4895 119.482 87.4294ZM108.068 87.4294C108.068 95.0654 101.877 101.256 94.2414 101.256C86.6054 101.256 80.4152 95.0654 80.4152 87.4294C80.4152 79.7934 86.6054 73.6032 94.2414 73.6032C101.877 73.6032 108.068 79.7934 108.068 87.4294Z" fill="#989898"/>
<path fill-rule="evenodd" clip-rule="evenodd" d="M181.039 111.895C194.979 111.895 206.279 100.594 206.279 86.6544C206.279 72.7146 194.979 61.4141 181.039 61.4141C167.099 61.4141 155.798 72.7146 155.798 86.6544C155.798 100.594 167.099 111.895 181.039 111.895ZM181.039 100.481C188.675 100.481 194.865 94.2904 194.865 86.6544C194.865 79.0184 188.675 72.8282 181.039 72.8282C173.403 72.8282 167.213 79.0184 167.213 86.6544C167.213 94.2904 173.403 100.481 181.039 100.481Z" fill="#D8D8D8"/>
<path fill-rule="evenodd" clip-rule="evenodd" d="M181.039 110.291C194.093 110.291 204.676 99.7087 204.676 86.6544C204.676 73.6002 194.093 63.0177 181.039 63.0177C167.985 63.0177 157.402 73.6002 157.402 86.6544C157.402 99.7087 167.985 110.291 181.039 110.291ZM196.469 86.6544C196.469 95.1761 189.561 102.084 181.039 102.084C172.517 102.084 165.609 95.1761 165.609 86.6544C165.609 78.1327 172.517 71.2246 181.039 71.2246C189.561 71.2246 196.469 78.1327 196.469 86.6544ZM206.279 86.6544C206.279 100.594 194.979 111.895 181.039 111.895C167.099 111.895 155.798 100.594 155.798 86.6544C155.798 72.7146 167.099 61.4141 181.039 61.4141C194.979 61.4141 206.279 72.7146 206.279 86.6544ZM194.865 86.6544C194.865 94.2904 188.675 100.481 181.039 100.481C173.403 100.481 167.213 94.2904 167.213 86.6544C167.213 79.0184 173.403 72.8282 181.039 72.8282C188.675 72.8282 194.865 79.0184 194.865 86.6544Z" fill="#989898"/>
<path d="M85.1709 96.5175L89.6066 87.646L94.0424 92.0817L85.1709 96.5175Z" fill="#8D9EB0"/>
<path d="M103.694 78.1769L94.8227 82.6126L99.2584 87.0484L103.694 78.1769Z" fill="#8D9EB0"/>
<path d="M96.7786 84.4799L88.282 92.9765L88.7541 93.4485L97.2507 84.952L96.7786 84.4799Z" fill="#8D9EB0"/>
<path fill-rule="evenodd" clip-rule="evenodd" d="M104.436 82.7542L124.185 61.8457L124.912 62.5324L105.163 83.4409L104.436 82.7542Z" fill="#A9B6C3"/>
<path d="M34.2289 80.5455C32.9553 80.5455 31.9603 81.0231 31.2439 81.839L31.1046 80.8241H28.9952V95.3909H31.4628V90.8139C32.1593 91.3711 32.9553 91.6696 33.9105 91.6696C36.3582 91.6696 38.2288 89.5801 38.2288 86.615V85.5603C38.2288 82.5156 36.5771 80.5455 34.2289 80.5455ZM35.7612 86.6946C35.7612 88.7642 34.8856 89.8189 33.4727 89.8189C32.6966 89.8189 32.0598 89.5602 31.4628 89.0627V83.5305C32.0001 82.834 32.7762 82.4161 33.6717 82.4161C34.9851 82.4161 35.7612 83.431 35.7612 85.4807V86.6946Z" fill="#8D9EB0"/>
<path d="M45.0288 111.734L41.8922 102.324L48.1653 102.324L45.0288 111.734Z" fill="#8D9EB0"/>
<path d="M44.6949 103.032L44.6949 69.0325L45.3626 69.0325L45.3626 103.032L44.6949 103.032Z" fill="#8D9EB0"/>
<path d="M45.1281 63.125L41.9915 72.5347L48.2646 72.5347L45.1281 63.125Z" fill="#8D9EB0"/>
<path fill-rule="evenodd" clip-rule="evenodd" d="M39.5792 113.066L100.367 113.066L100.367 113.823L39.5792 113.823L39.5792 113.066Z" fill="#A9B6C3"/>
<path fill-rule="evenodd" clip-rule="evenodd" d="M39.5792 61.0358L100.367 61.0358L100.367 61.7923L39.5792 61.7923L39.5792 61.0358Z" fill="#A9B6C3"/>
<path d="M136.513 48.492C135.359 48.492 134.443 48.89 133.767 49.5866V44.6312H131.299V59.3581H133.229L133.428 58.4427C134.165 59.1989 135.08 59.6168 136.215 59.6168C138.643 59.6168 140.533 57.5073 140.533 54.5818V53.5071C140.533 50.4423 138.941 48.492 136.513 48.492ZM138.065 54.6614C138.065 56.6913 137.17 57.766 135.797 57.766C134.981 57.766 134.304 57.4476 133.767 56.8705V51.4971C134.304 50.8205 135.06 50.3627 136.016 50.3627C137.369 50.3627 138.065 51.3578 138.065 53.4275V54.6614Z" fill="#8D9EB0"/>
<path d="M147.833 57.4675V45.4272H145.982L142.081 47.696L142.997 49.3279L145.405 48.1338V57.4675H142.559V59.3581H145.405H150.281V57.4675H147.833Z" fill="#8D9EB0"/>
<path d="M116.603 45.0087C112.842 45.0087 111.031 47.4367 111.031 50.6806V53.7852C111.031 56.9495 112.842 59.4173 116.603 59.4173C120.384 59.4173 122.175 56.9495 122.175 53.7852V50.6806C122.175 47.4367 120.384 45.0087 116.603 45.0087ZM116.603 46.6207C119.051 46.6207 120.165 48.3123 120.165 50.6408V53.825C120.165 56.0937 119.051 57.8053 116.603 57.8053C114.155 57.8053 113.061 56.0937 113.061 53.825V50.6408C113.061 48.2924 114.175 46.6207 116.603 46.6207Z" fill="#8D9EB0"/>
<path d="M121.107 43.279L111.144 60.5241L112.101 61.0776L122.064 43.8325L121.107 43.279Z" fill="#8D9EB0"/>
</svg>
