<svg width="291" height="176" viewBox="0 0 291 176" fill="none" xmlns="http://www.w3.org/2000/svg">
<path d="M30.8207 132H282.5V170.547H30.8207V132Z" fill="#F6F6F6"/>
<path fill-rule="evenodd" clip-rule="evenodd" d="M281.297 133.203H32.0235V169.344H281.297V133.203ZM30.8207 132V170.547H282.5V132H30.8207Z" fill="#989898"/>
<path fill-rule="evenodd" clip-rule="evenodd" d="M61.5052 70.9569C72.9971 70.9569 82.313 61.6409 82.313 50.149C82.313 38.6572 72.9971 29.3412 61.5052 29.3412C50.0133 29.3412 40.6973 38.6572 40.6973 50.149C40.6973 61.6409 50.0133 70.9569 61.5052 70.9569ZM61.5052 61.5472C67.8002 61.5472 72.9034 56.4441 72.9034 50.149C72.9034 43.854 67.8002 38.7509 61.5052 38.7509C55.2102 38.7509 50.1071 43.854 50.1071 50.149C50.1071 56.4441 55.2102 61.5472 61.5052 61.5472Z" fill="#D8D8D8"/>
<path fill-rule="evenodd" clip-rule="evenodd" d="M61.5052 69.6349C72.2669 69.6349 80.991 60.9108 80.991 50.149C80.991 39.3873 72.2669 30.6632 61.5052 30.6632C50.7435 30.6632 42.0194 39.3873 42.0194 50.149C42.0194 60.9108 50.7435 69.6349 61.5052 69.6349ZM74.2254 50.149C74.2254 57.1742 68.5304 62.8692 61.5052 62.8692C54.48 62.8692 48.785 57.1742 48.785 50.149C48.785 43.1239 54.48 37.4288 61.5052 37.4288C68.5304 37.4288 74.2254 43.1239 74.2254 50.149ZM82.313 50.149C82.313 61.6409 72.9971 70.9569 61.5052 70.9569C50.0133 70.9569 40.6973 61.6409 40.6973 50.149C40.6973 38.6572 50.0133 29.3412 61.5052 29.3412C72.9971 29.3412 82.313 38.6572 82.313 50.149ZM72.9034 50.149C72.9034 56.4441 67.8002 61.5472 61.5052 61.5472C55.2102 61.5472 50.1071 56.4441 50.1071 50.149C50.1071 43.854 55.2102 38.7509 61.5052 38.7509C67.8002 38.7509 72.9034 43.854 72.9034 50.149Z" fill="#989898"/>
<path fill-rule="evenodd" clip-rule="evenodd" d="M61.5051 123.324C72.997 123.324 82.313 114.008 82.313 102.516C82.313 91.024 72.997 81.708 61.5051 81.708C50.0133 81.708 40.6973 91.024 40.6973 102.516C40.6973 114.008 50.0133 123.324 61.5051 123.324ZM61.5051 113.914C67.8002 113.914 72.9033 108.811 72.9033 102.516C72.9033 96.2208 67.8002 91.1177 61.5051 91.1177C55.2101 91.1177 50.107 96.2208 50.107 102.516C50.107 108.811 55.2101 113.914 61.5051 113.914Z" fill="#D8D8D8"/>
<path fill-rule="evenodd" clip-rule="evenodd" d="M61.5051 122.002C72.2669 122.002 80.991 113.278 80.991 102.516C80.991 91.7541 72.2669 83.03 61.5051 83.03C50.7434 83.03 42.0193 91.7541 42.0193 102.516C42.0193 113.278 50.7434 122.002 61.5051 122.002ZM74.2253 102.516C74.2253 109.541 68.5303 115.236 61.5051 115.236C54.48 115.236 48.785 109.541 48.785 102.516C48.785 95.4907 54.48 89.7957 61.5051 89.7957C68.5303 89.7957 74.2253 95.4907 74.2253 102.516ZM82.313 102.516C82.313 114.008 72.997 123.324 61.5051 123.324C50.0133 123.324 40.6973 114.008 40.6973 102.516C40.6973 91.024 50.0133 81.708 61.5051 81.708C72.997 81.708 82.313 91.024 82.313 102.516ZM72.9033 102.516C72.9033 108.811 67.8002 113.914 61.5051 113.914C55.2101 113.914 50.107 108.811 50.107 102.516C50.107 96.2208 55.2101 91.1177 61.5051 91.1177C67.8002 91.1177 72.9033 96.2208 72.9033 102.516Z" fill="#989898"/>
<path fill-rule="evenodd" clip-rule="evenodd" d="M124.942 70.9569C136.434 70.9569 145.75 61.6409 145.75 50.149C145.75 38.6572 136.434 29.3412 124.942 29.3412C113.45 29.3412 104.134 38.6572 104.134 50.149C104.134 61.6409 113.45 70.9569 124.942 70.9569ZM124.942 61.5472C131.237 61.5472 136.34 56.444 136.34 50.149C136.34 43.854 131.237 38.7509 124.942 38.7509C118.647 38.7509 113.544 43.854 113.544 50.149C113.544 56.444 118.647 61.5472 124.942 61.5472Z" fill="#D8D8D8"/>
<path fill-rule="evenodd" clip-rule="evenodd" d="M124.942 69.6349C135.704 69.6349 144.428 60.9108 144.428 50.149C144.428 39.3873 135.704 30.6632 124.942 30.6632C114.18 30.6632 105.456 39.3873 105.456 50.149C105.456 60.9108 114.18 69.6349 124.942 69.6349ZM137.662 50.149C137.662 57.1742 131.967 62.8692 124.942 62.8692C117.917 62.8692 112.222 57.1742 112.222 50.149C112.222 43.1239 117.917 37.4288 124.942 37.4288C131.967 37.4288 137.662 43.1239 137.662 50.149ZM145.75 50.149C145.75 61.6409 136.434 70.9569 124.942 70.9569C113.45 70.9569 104.134 61.6409 104.134 50.149C104.134 38.6572 113.45 29.3412 124.942 29.3412C136.434 29.3412 145.75 38.6572 145.75 50.149ZM136.34 50.149C136.34 56.444 131.237 61.5472 124.942 61.5472C118.647 61.5472 113.544 56.444 113.544 50.149C113.544 43.854 118.647 38.7509 124.942 38.7509C131.237 38.7509 136.34 43.854 136.34 50.149Z" fill="#989898"/>
<path fill-rule="evenodd" clip-rule="evenodd" d="M124.942 123.324C136.434 123.324 145.75 114.008 145.75 102.516C145.75 91.024 136.434 81.708 124.942 81.708C113.45 81.708 104.134 91.024 104.134 102.516C104.134 114.008 113.45 123.324 124.942 123.324ZM124.942 113.914C131.237 113.914 136.34 108.811 136.34 102.516C136.34 96.2208 131.237 91.1177 124.942 91.1177C118.647 91.1177 113.544 96.2208 113.544 102.516C113.544 108.811 118.647 113.914 124.942 113.914Z" fill="#D8D8D8"/>
<path fill-rule="evenodd" clip-rule="evenodd" d="M124.942 122.002C135.704 122.002 144.428 113.278 144.428 102.516C144.428 91.7541 135.704 83.03 124.942 83.03C114.18 83.03 105.456 91.7541 105.456 102.516C105.456 113.278 114.18 122.002 124.942 122.002ZM137.662 102.516C137.662 109.541 131.967 115.236 124.942 115.236C117.917 115.236 112.222 109.541 112.222 102.516C112.222 95.4907 117.917 89.7957 124.942 89.7957C131.967 89.7957 137.662 95.4907 137.662 102.516ZM145.75 102.516C145.75 114.008 136.434 123.324 124.942 123.324C113.45 123.324 104.134 114.008 104.134 102.516C104.134 91.024 113.45 81.708 124.942 81.708C136.434 81.708 145.75 91.024 145.75 102.516ZM136.34 102.516C136.34 108.811 131.237 113.914 124.942 113.914C118.647 113.914 113.544 108.811 113.544 102.516C113.544 96.2208 118.647 91.1177 124.942 91.1177C131.237 91.1177 136.34 96.2208 136.34 102.516Z" fill="#989898"/>
<path fill-rule="evenodd" clip-rule="evenodd" d="M188.379 70.9569C199.871 70.9569 209.187 61.6409 209.187 50.149C209.187 38.6572 199.871 29.3412 188.379 29.3412C176.887 29.3412 167.571 38.6572 167.571 50.149C167.571 61.6409 176.887 70.9569 188.379 70.9569ZM188.379 61.5472C194.674 61.5472 199.777 56.444 199.777 50.149C199.777 43.854 194.674 38.7509 188.379 38.7509C182.084 38.7509 176.981 43.854 176.981 50.149C176.981 56.444 182.084 61.5472 188.379 61.5472Z" fill="#D8D8D8"/>
<path fill-rule="evenodd" clip-rule="evenodd" d="M188.379 69.6349C199.14 69.6349 207.865 60.9108 207.865 50.149C207.865 39.3873 199.14 30.6632 188.379 30.6632C177.617 30.6632 168.893 39.3873 168.893 50.149C168.893 60.9108 177.617 69.6349 188.379 69.6349ZM201.099 50.149C201.099 57.1742 195.404 62.8692 188.379 62.8692C181.354 62.8692 175.659 57.1742 175.659 50.149C175.659 43.1239 181.354 37.4288 188.379 37.4288C195.404 37.4288 201.099 43.1239 201.099 50.149ZM209.187 50.149C209.187 61.6409 199.871 70.9569 188.379 70.9569C176.887 70.9569 167.571 61.6409 167.571 50.149C167.571 38.6572 176.887 29.3412 188.379 29.3412C199.871 29.3412 209.187 38.6572 209.187 50.149ZM199.777 50.149C199.777 56.444 194.674 61.5472 188.379 61.5472C182.084 61.5472 176.981 56.444 176.981 50.149C176.981 43.854 182.084 38.7509 188.379 38.7509C194.674 38.7509 199.777 43.854 199.777 50.149Z" fill="#989898"/>
<path fill-rule="evenodd" clip-rule="evenodd" d="M188.379 123.324C199.871 123.324 209.187 114.008 209.187 102.516C209.187 91.024 199.871 81.708 188.379 81.708C176.887 81.708 167.571 91.024 167.571 102.516C167.571 114.008 176.887 123.324 188.379 123.324ZM188.379 113.914C194.674 113.914 199.777 108.811 199.777 102.516C199.777 96.2208 194.674 91.1177 188.379 91.1177C182.084 91.1177 176.981 96.2208 176.981 102.516C176.981 108.811 182.084 113.914 188.379 113.914Z" fill="#D8D8D8"/>
<path fill-rule="evenodd" clip-rule="evenodd" d="M188.379 122.002C199.14 122.002 207.865 113.278 207.865 102.516C207.865 91.7541 199.14 83.03 188.379 83.03C177.617 83.03 168.893 91.7541 168.893 102.516C168.893 113.278 177.617 122.002 188.379 122.002ZM201.099 102.516C201.099 109.541 195.404 115.236 188.379 115.236C181.354 115.236 175.659 109.541 175.659 102.516C175.659 95.4907 181.354 89.7957 188.379 89.7957C195.404 89.7957 201.099 95.4907 201.099 102.516ZM209.187 102.516C209.187 114.008 199.871 123.324 188.379 123.324C176.887 123.324 167.571 114.008 167.571 102.516C167.571 91.024 176.887 81.708 188.379 81.708C199.871 81.708 209.187 91.024 209.187 102.516ZM199.777 102.516C199.777 108.811 194.674 113.914 188.379 113.914C182.084 113.914 176.981 108.811 176.981 102.516C176.981 96.2208 182.084 91.1177 188.379 91.1177C194.674 91.1177 199.777 96.2208 199.777 102.516Z" fill="#989898"/>
<path fill-rule="evenodd" clip-rule="evenodd" d="M251.816 70.9569C263.307 70.9569 272.623 61.6409 272.623 50.149C272.623 38.6572 263.307 29.3412 251.816 29.3412C240.324 29.3412 231.008 38.6572 231.008 50.149C231.008 61.6409 240.324 70.9569 251.816 70.9569ZM251.816 61.5472C258.111 61.5472 263.214 56.444 263.214 50.149C263.214 43.854 258.111 38.7509 251.816 38.7509C245.52 38.7509 240.417 43.854 240.417 50.149C240.417 56.444 245.52 61.5472 251.816 61.5472Z" fill="#D8D8D8"/>
<path fill-rule="evenodd" clip-rule="evenodd" d="M251.816 69.6349C262.577 69.6349 271.301 60.9108 271.301 50.149C271.301 39.3873 262.577 30.6632 251.816 30.6632C241.054 30.6632 232.33 39.3873 232.33 50.149C232.33 60.9108 241.054 69.6349 251.816 69.6349ZM264.536 50.149C264.536 57.1742 258.841 62.8692 251.816 62.8692C244.79 62.8692 239.095 57.1742 239.095 50.149C239.095 43.1239 244.79 37.4288 251.816 37.4288C258.841 37.4288 264.536 43.1239 264.536 50.149ZM272.623 50.149C272.623 61.6409 263.307 70.9569 251.816 70.9569C240.324 70.9569 231.008 61.6409 231.008 50.149C231.008 38.6572 240.324 29.3412 251.816 29.3412C263.307 29.3412 272.623 38.6572 272.623 50.149ZM263.214 50.149C263.214 56.444 258.111 61.5472 251.816 61.5472C245.52 61.5472 240.417 56.444 240.417 50.149C240.417 43.854 245.52 38.7509 251.816 38.7509C258.111 38.7509 263.214 43.854 263.214 50.149Z" fill="#989898"/>
<path fill-rule="evenodd" clip-rule="evenodd" d="M251.816 123.324C263.307 123.324 272.623 114.008 272.623 102.516C272.623 91.024 263.307 81.708 251.816 81.708C240.324 81.708 231.008 91.024 231.008 102.516C231.008 114.008 240.324 123.324 251.816 123.324ZM251.816 113.914C258.111 113.914 263.214 108.811 263.214 102.516C263.214 96.2208 258.111 91.1177 251.816 91.1177C245.52 91.1177 240.417 96.2208 240.417 102.516C240.417 108.811 245.52 113.914 251.816 113.914Z" fill="#D8D8D8"/>
<path fill-rule="evenodd" clip-rule="evenodd" d="M251.816 122.002C262.577 122.002 271.301 113.278 271.301 102.516C271.301 91.7541 262.577 83.03 251.816 83.03C241.054 83.03 232.33 91.7541 232.33 102.516C232.33 113.278 241.054 122.002 251.816 122.002ZM264.536 102.516C264.536 109.541 258.841 115.236 251.816 115.236C244.79 115.236 239.095 109.541 239.095 102.516C239.095 95.4907 244.79 89.7957 251.816 89.7957C258.841 89.7957 264.536 95.4907 264.536 102.516ZM272.623 102.516C272.623 114.008 263.307 123.324 251.816 123.324C240.324 123.324 231.008 114.008 231.008 102.516C231.008 91.024 240.324 81.708 251.816 81.708C263.307 81.708 272.623 91.024 272.623 102.516ZM263.214 102.516C263.214 108.811 258.111 113.914 251.816 113.914C245.52 113.914 240.417 108.811 240.417 102.516C240.417 96.2208 245.52 91.1177 251.816 91.1177C258.111 91.1177 263.214 96.2208 263.214 102.516Z" fill="#989898"/>
<path d="M54.0276 57.6411L57.6844 50.3276L61.3412 53.9844L54.0276 57.6411Z" fill="#8D9EB0"/>
<path d="M69.298 42.5214L61.9844 46.1782L65.6412 49.835L69.298 42.5214Z" fill="#8D9EB0"/>
<path d="M63.5969 47.7175L56.5924 54.722L56.9816 55.1112L63.9861 48.1067L63.5969 47.7175Z" fill="#8D9EB0"/>
<path fill-rule="evenodd" clip-rule="evenodd" d="M69.8634 46.3542L85.1027 22.787L85.795 23.2346L70.5556 46.8018L69.8634 46.3542Z" fill="#A9B6C3"/>
<path d="M13.9216 45.4884C12.8717 45.4884 12.0514 45.8821 11.4608 46.5547L11.346 45.7181H9.60699V57.7268H11.6413V53.9535C12.2154 54.4129 12.8717 54.659 13.6591 54.659C15.677 54.659 17.2191 52.9364 17.2191 50.492V49.6225C17.2191 47.1125 15.8574 45.4884 13.9216 45.4884ZM15.1848 50.5576C15.1848 52.2638 14.463 53.1333 13.2982 53.1333C12.6584 53.1333 12.1334 52.92 11.6413 52.5099V47.9492C12.0842 47.375 12.724 47.0305 13.4622 47.0305C14.545 47.0305 15.1848 47.8672 15.1848 49.5569V50.5576Z" fill="#8D9EB0"/>
<path d="M22.5088 70.1852L19.923 62.428L25.0945 62.428L22.5088 70.1852Z" fill="#8D9EB0"/>
<path d="M22.2336 63.012L22.2336 34.9828L22.784 34.9828L22.784 63.012L22.2336 63.012Z" fill="#8D9EB0"/>
<path d="M22.5907 30.1128L20.0049 37.87L25.1764 37.87L22.5907 30.1128Z" fill="#8D9EB0"/>
<path fill-rule="evenodd" clip-rule="evenodd" d="M18.0649 71.2838L66.5554 71.2838L66.5554 71.9075L18.0649 71.9075L18.0649 71.2838Z" fill="#A9B6C3"/>
<path fill-rule="evenodd" clip-rule="evenodd" d="M18.0649 28.3904L66.5554 28.3904L66.5554 29.0141L18.0649 29.0141L18.0649 28.3904Z" fill="#A9B6C3"/>
<path d="M93.8533 8.74693C92.9018 8.74693 92.1471 9.07505 91.5893 9.64928V5.56409H89.5549V17.7048H91.1463L91.3104 16.9501C91.9174 17.5736 92.6721 17.9181 93.6072 17.9181C95.6088 17.9181 97.1674 16.179 97.1674 13.7673V12.8813C97.1674 10.3548 95.8549 8.74693 93.8533 8.74693ZM95.133 13.8329C95.133 15.5064 94.3948 16.3923 93.2627 16.3923C92.5901 16.3923 92.0322 16.1298 91.5893 15.654V11.2243C92.0322 10.6665 92.6557 10.2891 93.4432 10.2891C94.5588 10.2891 95.133 11.1094 95.133 12.8157V13.8329Z" fill="#8D9EB0"/>
<path d="M103.185 16.1462V6.22034H101.659L98.4438 8.09067L99.1985 9.43599L101.184 8.45161V16.1462H98.8376V17.7048H101.184H105.203V16.1462H103.185Z" fill="#8D9EB0"/>
<path d="M77.4399 6.1875C74.3391 6.1875 72.8461 8.18908 72.8461 10.8633V13.4227C72.8461 16.0313 74.3391 18.0657 77.4399 18.0657C80.5571 18.0657 82.0336 16.0313 82.0336 13.4227V10.8633C82.0336 8.18908 80.5571 6.1875 77.4399 6.1875ZM77.4399 7.51642C79.4578 7.51642 80.3766 8.91096 80.3766 10.8305V13.4555C80.3766 15.3259 79.4578 16.7368 77.4399 16.7368C75.4219 16.7368 74.5195 15.3259 74.5195 13.4555V10.8305C74.5195 8.89455 75.4383 7.51642 77.4399 7.51642Z" fill="#8D9EB0"/>
<path d="M81.1527 4.76146L72.9392 18.9781L73.7285 19.4344L81.9421 5.21774L81.1527 4.76146Z" fill="#8D9EB0"/>
</svg>
