<svg width="290" height="175" viewBox="0 0 290 175" fill="none" xmlns="http://www.w3.org/2000/svg">
<path d="M267.761 58.8155V47.6022H265.398V60.7281H265.473H273.086V58.8155H267.761Z" fill="#8D9EB0"/>
<path d="M276.243 58.8155C276.281 57.8217 276.637 57.0529 278.1 56.0965L279.544 55.159C281.569 53.8464 282.356 52.7025 282.356 51.4087V50.8274C282.356 49.0648 280.8 47.3584 277.969 47.3584C276.225 47.3584 274.856 47.9397 273.637 48.896L274.687 50.3211C275.812 49.5336 276.694 49.196 277.819 49.196C279.375 49.196 279.994 50.1149 279.994 50.9024V51.3524C279.994 52.215 279.544 52.7025 278.362 53.5089L276.562 54.7464C275.043 55.7965 273.918 57.0716 273.918 59.3968V60.7281H282.375V58.8155H276.243Z" fill="#8D9EB0"/>
<mask id="path-2-inside-1" fill="white">
<path fill-rule="evenodd" clip-rule="evenodd" d="M70.3242 134.888H63.1553V117.478H70.3242V134.888"/>
</mask>
<path fill-rule="evenodd" clip-rule="evenodd" d="M70.3242 134.888H63.1553V117.478H70.3242V134.888" fill="#D8D8D8"/>
<path d="M63.1553 134.888H62.1553V135.888H63.1553V134.888ZM63.1553 117.478V116.478H62.1553V117.478H63.1553ZM70.3242 117.478H71.3242V116.478H70.3242V117.478ZM70.3242 133.888H63.1553V135.888H70.3242V133.888ZM64.1553 134.888V117.478H62.1553V134.888H64.1553ZM63.1553 118.478H70.3242V116.478H63.1553V118.478ZM69.3242 117.478V134.888H71.3242V117.478H69.3242Z" fill="#979797" mask="url(#path-2-inside-1)"/>
<mask id="path-4-inside-2" fill="white">
<path fill-rule="evenodd" clip-rule="evenodd" d="M70.3242 62.8457H63.1553V45.4355H70.3242V62.8457"/>
</mask>
<path fill-rule="evenodd" clip-rule="evenodd" d="M70.3242 62.8457H63.1553V45.4355H70.3242V62.8457" fill="#D8D8D8"/>
<path d="M63.1553 62.8457H62.1553V63.8457H63.1553V62.8457ZM63.1553 45.4355V44.4355H62.1553V45.4355H63.1553ZM70.3242 45.4355H71.3242V44.4355H70.3242V45.4355ZM70.3242 61.8457H63.1553V63.8457H70.3242V61.8457ZM64.1553 62.8457V45.4355H62.1553V62.8457H64.1553ZM63.1553 46.4355H70.3242V44.4355H63.1553V46.4355ZM69.3242 45.4355V62.8457H71.3242V45.4355H69.3242Z" fill="#979797" mask="url(#path-4-inside-2)"/>
<mask id="path-6-inside-3" fill="white">
<path fill-rule="evenodd" clip-rule="evenodd" d="M95.8598 134.888H88.6909V117.478H95.8598V134.888"/>
</mask>
<path fill-rule="evenodd" clip-rule="evenodd" d="M95.8598 134.888H88.6909V117.478H95.8598V134.888" fill="#D8D8D8"/>
<path d="M88.6909 134.888H87.6909V135.888H88.6909V134.888ZM88.6909 117.478V116.478H87.6909V117.478H88.6909ZM95.8598 117.478H96.8598V116.478H95.8598V117.478ZM95.8598 133.888H88.6909V135.888H95.8598V133.888ZM89.6909 134.888V117.478H87.6909V134.888H89.6909ZM88.6909 118.478H95.8598V116.478H88.6909V118.478ZM94.8598 117.478V134.888H96.8598V117.478H94.8598Z" fill="#979797" mask="url(#path-6-inside-3)"/>
<mask id="path-8-inside-4" fill="white">
<path fill-rule="evenodd" clip-rule="evenodd" d="M95.8598 62.8457H88.6909V45.4355H95.8598V62.8457"/>
</mask>
<path fill-rule="evenodd" clip-rule="evenodd" d="M95.8598 62.8457H88.6909V45.4355H95.8598V62.8457" fill="#D8D8D8"/>
<path d="M88.6909 62.8457H87.6909V63.8457H88.6909V62.8457ZM88.6909 45.4355V44.4355H87.6909V45.4355H88.6909ZM95.8598 45.4355H96.8598V44.4355H95.8598V45.4355ZM95.8598 61.8457H88.6909V63.8457H95.8598V61.8457ZM89.6909 62.8457V45.4355H87.6909V62.8457H89.6909ZM88.6909 46.4355H95.8598V44.4355H88.6909V46.4355ZM94.8598 45.4355V62.8457H96.8598V45.4355H94.8598Z" fill="#979797" mask="url(#path-8-inside-4)"/>
<mask id="path-10-inside-5" fill="white">
<path fill-rule="evenodd" clip-rule="evenodd" d="M119.86 134.888H112.691V117.478H119.86V134.888"/>
</mask>
<path fill-rule="evenodd" clip-rule="evenodd" d="M119.86 134.888H112.691V117.478H119.86V134.888" fill="#D8D8D8"/>
<path d="M112.691 134.888H111.691V135.888H112.691V134.888ZM112.691 117.478V116.478H111.691V117.478H112.691ZM119.86 117.478H120.86V116.478H119.86V117.478ZM119.86 133.888H112.691V135.888H119.86V133.888ZM113.691 134.888V117.478H111.691V134.888H113.691ZM112.691 118.478H119.86V116.478H112.691V118.478ZM118.86 117.478V134.888H120.86V117.478H118.86Z" fill="#979797" mask="url(#path-10-inside-5)"/>
<mask id="path-12-inside-6" fill="white">
<path fill-rule="evenodd" clip-rule="evenodd" d="M119.86 62.8457H112.691V45.4355H119.86V62.8457"/>
</mask>
<path fill-rule="evenodd" clip-rule="evenodd" d="M119.86 62.8457H112.691V45.4355H119.86V62.8457" fill="#D8D8D8"/>
<path d="M112.691 62.8457H111.691V63.8457H112.691V62.8457ZM112.691 45.4355V44.4355H111.691V45.4355H112.691ZM119.86 45.4355H120.86V44.4355H119.86V45.4355ZM119.86 61.8457H112.691V63.8457H119.86V61.8457ZM113.691 62.8457V45.4355H111.691V62.8457H113.691ZM112.691 46.4355H119.86V44.4355H112.691V46.4355ZM118.86 45.4355V62.8457H120.86V45.4355H118.86Z" fill="#979797" mask="url(#path-12-inside-6)"/>
<rect x="49.5955" y="59.2266" width="83.8597" height="62.0962" fill="#585858" stroke="#505050"/>
<path fill-rule="evenodd" clip-rule="evenodd" d="M51.7089 149.664C51.2822 149.828 51.2822 150.432 51.7089 150.597L56.3327 152.381C56.6603 152.507 57.0127 152.265 57.0127 151.914V148.346C57.0127 147.995 56.6603 147.754 56.3327 147.88L51.7089 149.664Z" fill="#8D9EB0"/>
<path fill-rule="evenodd" clip-rule="evenodd" d="M53.8168 149.984C53.8168 149.728 54.0241 149.521 54.2799 149.521H78.8653C79.1211 149.521 79.3285 149.728 79.3285 149.984V149.984C79.3285 150.239 79.1211 150.447 78.8653 150.447H54.2799C54.0241 150.447 53.8168 150.239 53.8168 149.984V149.984Z" fill="#8D9EB0"/>
<path fill-rule="evenodd" clip-rule="evenodd" d="M130.865 149.664C131.292 149.828 131.292 150.432 130.865 150.597L126.241 152.381C125.914 152.507 125.561 152.265 125.561 151.914V148.346C125.561 147.995 125.914 147.754 126.241 147.88L130.865 149.664Z" fill="#8D9EB0"/>
<path fill-rule="evenodd" clip-rule="evenodd" d="M128.757 149.984C128.757 149.728 128.55 149.521 128.294 149.521H103.096C102.84 149.521 102.633 149.728 102.633 149.984V149.984C102.633 150.239 102.84 150.447 103.096 150.447H128.294C128.55 150.447 128.757 150.239 128.757 149.984V149.984Z" fill="#8D9EB0"/>
<path fill-rule="evenodd" clip-rule="evenodd" d="M91.7503 143.568C95.3131 143.568 97.0945 145.669 97.0945 148.819V151.144C97.0945 154.557 95.0693 156.694 91.2815 156.694H87.4562V143.568H91.7503ZM94.7318 151.181V148.762C94.7318 146.625 93.7192 145.387 91.6378 145.387H89.8189V154.875H91.3003C93.5879 154.875 94.7318 153.675 94.7318 151.181Z" fill="#8D9EB0"/>
<path fill-rule="evenodd" clip-rule="evenodd" d="M48.5955 124.323C48.5955 124.047 48.8194 123.823 49.0955 123.823V123.823C49.3717 123.823 49.5955 124.047 49.5955 124.323V159.444C49.5955 159.72 49.3717 159.944 49.0955 159.944V159.944C48.8194 159.944 48.5955 159.72 48.5955 159.444V124.323Z" fill="#8D9EB0"/>
<path fill-rule="evenodd" clip-rule="evenodd" d="M132.955 124.323C132.955 124.047 133.179 123.823 133.455 123.823V123.823C133.731 123.823 133.955 124.047 133.955 124.323V159.444C133.955 159.72 133.731 159.944 133.455 159.944V159.944C133.179 159.944 132.955 159.72 132.955 159.444V124.323Z" fill="#8D9EB0"/>
<path fill-rule="evenodd" clip-rule="evenodd" d="M138.868 32.9532C141.156 32.9532 142.656 34.7908 142.656 37.6786V38.6911C142.656 41.4476 140.875 43.4352 138.587 43.4352C137.518 43.4352 136.655 43.0415 135.962 42.3289L135.774 43.1915H133.955V29.3154H136.28V33.9845C136.918 33.3282 137.781 32.9532 138.868 32.9532ZM140.331 38.7661V37.6035C140.331 35.6534 139.674 34.7158 138.399 34.7158C137.499 34.7158 136.787 35.1471 136.28 35.7847V40.8475C136.787 41.3913 137.424 41.6914 138.193 41.6914C139.487 41.6914 140.331 40.6788 140.331 38.7661Z" fill="#8D9EB0"/>
<path fill-rule="evenodd" clip-rule="evenodd" d="M112.507 32.5322C112.507 32.2561 112.731 32.0322 113.007 32.0322V32.0322C113.283 32.0322 113.507 32.2561 113.507 32.5322V42.9358C113.507 43.2119 113.283 43.4358 113.007 43.4358V43.4358C112.731 43.4358 112.507 43.2119 112.507 42.9358V32.5322Z" fill="#8D9EB0"/>
<path fill-rule="evenodd" clip-rule="evenodd" d="M118.86 32.5322C118.86 32.2561 119.084 32.0322 119.36 32.0322V32.0322C119.636 32.0322 119.86 32.2561 119.86 32.5322V42.9358C119.86 43.2119 119.636 43.4358 119.36 43.4358V43.4358C119.084 43.4358 118.86 43.2119 118.86 42.9358V32.5322Z" fill="#8D9EB0"/>
<path fill-rule="evenodd" clip-rule="evenodd" d="M6.57104 134.323C6.57104 134.047 6.7949 133.823 7.07104 133.823H60.9755C61.2516 133.823 61.4755 134.047 61.4755 134.323V134.323C61.4755 134.599 61.2516 134.823 60.9755 134.823H7.07105C6.7949 134.823 6.57104 134.599 6.57104 134.323V134.323Z" fill="#8D9EB0"/>
<path fill-rule="evenodd" clip-rule="evenodd" d="M173.071 131.531C173.071 131.255 173.295 131.031 173.571 131.031H186.466C186.742 131.031 186.966 131.255 186.966 131.531V131.531C186.966 131.807 186.742 132.031 186.466 132.031H173.571C173.295 132.031 173.071 131.807 173.071 131.531V131.531Z" fill="#8D9EB0"/>
<path fill-rule="evenodd" clip-rule="evenodd" d="M137.102 121.323C137.102 121.047 137.326 120.823 137.602 120.823H157.947C158.223 120.823 158.447 121.047 158.447 121.323V121.323C158.447 121.599 158.223 121.823 157.947 121.823H137.602C137.326 121.823 137.102 121.599 137.102 121.323V121.323Z" fill="#8D9EB0"/>
<path fill-rule="evenodd" clip-rule="evenodd" d="M6.57104 46.2266C6.57104 45.9504 6.7949 45.7266 7.07104 45.7266H60.9755C61.2513 45.7266 61.475 45.9498 61.4755 46.2256V46.2256C61.476 46.5021 61.252 46.7266 60.9755 46.7266H7.07105C6.7949 46.7266 6.57104 46.5027 6.57104 46.2266V46.2266Z" fill="#8D9EB0"/>
<path fill-rule="evenodd" clip-rule="evenodd" d="M173.071 82.1816C173.071 81.9055 173.295 81.6816 173.571 81.6816H192.438C192.714 81.6816 192.938 81.9053 192.938 82.1813V82.1813C192.938 82.4576 192.714 82.6816 192.438 82.6816H173.571C173.295 82.6816 173.071 82.4578 173.071 82.1816V82.1816Z" fill="#8D9EB0"/>
<path fill-rule="evenodd" clip-rule="evenodd" d="M252.184 25.1152C252.184 24.8391 252.407 24.6152 252.684 24.6152H277.722C277.998 24.6152 278.222 24.8388 278.222 25.1148V25.1148C278.222 25.3911 277.998 25.6152 277.722 25.6152H252.684C252.407 25.6152 252.184 25.3914 252.184 25.1152V25.1152Z" fill="#8D9EB0"/>
<path fill-rule="evenodd" clip-rule="evenodd" d="M267.07 82.1816C267.07 81.9055 267.294 81.6816 267.57 81.6816H277.722C277.998 81.6816 278.222 81.9054 278.222 82.1814V82.1814C278.222 82.4577 277.998 82.6816 277.722 82.6816H267.57C267.294 82.6816 267.07 82.4578 267.07 82.1816V82.1816Z" fill="#8D9EB0"/>
<path fill-rule="evenodd" clip-rule="evenodd" d="M137.102 59.2266C137.102 58.9504 137.326 58.7266 137.602 58.7266H157.905C158.181 58.7266 158.404 58.9502 158.405 59.2262V59.2262C158.405 59.5025 158.181 59.7266 157.905 59.7266H137.602C137.326 59.7266 137.102 59.5027 137.102 59.2266V59.2266Z" fill="#8D9EB0"/>
<path fill-rule="evenodd" clip-rule="evenodd" d="M14.0911 131.298C14.2557 131.725 14.8594 131.725 15.0241 131.298L16.808 126.674C16.9344 126.347 16.6926 125.994 16.3415 125.994H12.7737C12.4225 125.994 12.1808 126.347 12.3072 126.674L14.0911 131.298Z" fill="#8D9EB0"/>
<rect width="1" height="26.4424" rx="0.5" transform="matrix(1 0 0 -1 14.0579 129.043)" fill="#8D9EB0"/>
<path fill-rule="evenodd" clip-rule="evenodd" d="M178.643 128.298C178.808 128.725 179.412 128.725 179.576 128.298L181.36 123.674C181.487 123.347 181.245 122.994 180.894 122.994H177.326C176.975 122.994 176.733 123.347 176.859 123.674L178.643 128.298Z" fill="#8D9EB0"/>
<rect width="1" height="10" rx="0.5" transform="matrix(1 0 0 -1 178.61 126.043)" fill="#8D9EB0"/>
<path fill-rule="evenodd" clip-rule="evenodd" d="M272.179 79.5015C272.343 79.9282 272.947 79.9282 273.112 79.5015L274.896 74.8776C275.022 74.55 274.78 74.1976 274.429 74.1976H270.861C270.51 74.1976 270.268 74.55 270.395 74.8776L272.179 79.5015Z" fill="#8D9EB0"/>
<rect width="1" height="13.165" rx="0.5" transform="matrix(1 0 0 -1 272.146 77.2461)" fill="#8D9EB0"/>
<path fill-rule="evenodd" clip-rule="evenodd" d="M149.446 118.298C149.61 118.725 150.214 118.725 150.378 118.298L152.162 113.674C152.289 113.347 152.047 112.994 151.696 112.994H148.128C147.777 112.994 147.535 113.347 147.662 113.674L149.446 118.298Z" fill="#8D9EB0"/>
<rect width="1" height="16.5603" rx="0.5" transform="matrix(1 0 0 -1 149.412 116.043)" fill="#8D9EB0"/>
<path fill-rule="evenodd" clip-rule="evenodd" d="M14.0918 48.8257C14.2564 48.399 14.8601 48.399 15.0247 48.8257L16.8087 53.4496C16.935 53.7771 16.6933 54.1295 16.3422 54.1295H12.7743C12.4232 54.1295 12.1815 53.7771 12.3078 53.4496L14.0918 48.8257Z" fill="#8D9EB0"/>
<path fill-rule="evenodd" clip-rule="evenodd" d="M14.0585 51.5811C14.0585 51.3049 14.2824 51.0811 14.5585 51.0811V51.0811C14.8347 51.0811 15.0585 51.3049 15.0585 51.5811V77.3638C15.0585 77.6399 14.8347 77.8638 14.5585 77.8638V77.8638C14.2824 77.8638 14.0585 77.6399 14.0585 77.3638V51.5811Z" fill="#8D9EB0"/>
<path fill-rule="evenodd" clip-rule="evenodd" d="M178.644 84.4263C178.809 83.9996 179.412 83.9996 179.577 84.4263L181.361 89.0502C181.487 89.3777 181.245 89.7301 180.894 89.7301H177.327C176.975 89.7301 176.734 89.3777 176.86 89.0502L178.644 84.4263Z" fill="#8D9EB0"/>
<path fill-rule="evenodd" clip-rule="evenodd" d="M178.611 87.1816C178.611 86.9055 178.835 86.6816 179.111 86.6816V86.6816C179.387 86.6816 179.611 86.9055 179.611 87.1816V95.3584C179.611 95.6345 179.387 95.8584 179.111 95.8584V95.8584C178.835 95.8584 178.611 95.6345 178.611 95.3584V87.1816Z" fill="#8D9EB0"/>
<path fill-rule="evenodd" clip-rule="evenodd" d="M272.179 27.9126C272.343 27.4859 272.947 27.4859 273.112 27.9126L274.896 32.5365C275.022 32.8641 274.78 33.2165 274.429 33.2165H270.861C270.51 33.2165 270.268 32.8641 270.395 32.5365L272.179 27.9126Z" fill="#8D9EB0"/>
<path fill-rule="evenodd" clip-rule="evenodd" d="M272.146 30.668C272.146 30.3918 272.369 30.168 272.646 30.168V30.168C272.922 30.168 273.146 30.3918 273.146 30.668V42.9352C273.146 43.2114 272.922 43.4352 272.646 43.4352V43.4352C272.369 43.4352 272.146 43.2114 272.146 42.9352V30.668Z" fill="#8D9EB0"/>
<path fill-rule="evenodd" clip-rule="evenodd" d="M149.446 61.8257C149.611 61.399 150.215 61.399 150.379 61.8257L152.163 66.4496C152.289 66.7771 152.048 67.1295 151.697 67.1295H148.129C147.778 67.1295 147.536 66.7771 147.662 66.4496L149.446 61.8257Z" fill="#8D9EB0"/>
<path fill-rule="evenodd" clip-rule="evenodd" d="M149.413 64.5811C149.413 64.3049 149.637 64.0811 149.913 64.0811V64.0811C150.189 64.0811 150.413 64.3049 150.413 64.5811V80.3229C150.413 80.5991 150.189 80.8229 149.913 80.8229V80.8229C149.637 80.8229 149.413 80.5991 149.413 80.3229V64.5811Z" fill="#8D9EB0"/>
<path fill-rule="evenodd" clip-rule="evenodd" d="M120.806 36.5906C120.379 36.7552 120.379 37.3589 120.806 37.5236L125.43 39.3075C125.757 39.4339 126.11 39.1921 126.11 38.841V35.2732C126.11 34.9221 125.757 34.6803 125.43 34.8067L120.806 36.5906Z" fill="#8D9EB0"/>
<rect x="123.061" y="36.5576" width="9" height="1" rx="0.5" fill="#8D9EB0"/>
<path fill-rule="evenodd" clip-rule="evenodd" d="M111.68 37.5256C112.106 37.361 112.106 36.7573 111.68 36.5926L107.056 34.8087C106.728 34.6823 106.376 34.9241 106.376 35.2752V38.843C106.376 39.1942 106.728 39.4359 107.056 39.3095L111.68 37.5256Z" fill="#8D9EB0"/>
<path fill-rule="evenodd" clip-rule="evenodd" d="M108.934 37.5586H100.97C100.722 37.5586 100.518 37.3648 100.484 37.1268C100.478 37.0816 100.479 37.0358 100.487 36.9908C100.51 36.8542 100.603 36.5586 100.97 36.5586H108.934C109.205 36.5586 109.424 36.7905 109.424 37.0586C109.424 37.3347 109.209 37.5586 108.934 37.5586Z" fill="#8D9EB0"/>
<path fill-rule="evenodd" clip-rule="evenodd" d="M66.5726 32.5322C66.5726 32.2561 66.7965 32.0322 67.0726 32.0322V32.0322C67.3488 32.0322 67.5726 32.2561 67.5726 32.5322V42.9358C67.5726 43.2119 67.3488 43.4358 67.0726 43.4358V43.4358C66.7965 43.4358 66.5726 43.2119 66.5726 42.9358V32.5322Z" fill="#8D9EB0"/>
<path fill-rule="evenodd" clip-rule="evenodd" d="M92.2758 32.5322C92.2758 32.2561 92.4996 32.0322 92.7758 32.0322V32.0322C93.0519 32.0322 93.2758 32.2561 93.2758 32.5322V42.9358C93.2758 43.2119 93.0519 43.4358 92.7758 43.4358V43.4358C92.4996 43.4358 92.2758 43.2119 92.2758 42.9358V32.5322Z" fill="#8D9EB0"/>
<path fill-rule="evenodd" clip-rule="evenodd" d="M18.4167 85.4859H13.1101V89.2174H18.0042V91.0363H13.1101V94.9553H18.4167V96.793H10.7474V83.667H18.4167V85.4859Z" fill="#8D9EB0"/>
<path fill-rule="evenodd" clip-rule="evenodd" d="M81.723 15.5566H84.0482V29.4327H82.2293L81.9855 28.3451C81.3292 29.1514 80.4666 29.6764 79.2478 29.6764C76.9226 29.6764 75.2913 27.8201 75.2913 24.9698V23.9198C75.2913 21.1821 76.9414 19.1944 79.3603 19.1944C80.3354 19.1944 81.0854 19.4944 81.723 20.0757V15.5566ZM79.6603 27.9326C80.5792 27.9326 81.1979 27.4825 81.723 26.77V21.7821C81.3105 21.3321 80.6167 20.957 79.7541 20.957C78.4227 20.957 77.6164 21.9696 77.6164 23.8635V25.0073C77.6164 26.995 78.404 27.9326 79.6603 27.9326Z" fill="#8D9EB0"/>
<path fill-rule="evenodd" clip-rule="evenodd" d="M36.8139 90.1467C36.8139 90.5592 36.7764 90.9717 36.7389 91.2717H30.3072C30.3447 93.1844 31.226 94.0282 32.9511 94.0282C34.0387 94.0282 34.845 93.6344 35.6138 93.2031L36.4389 94.5907C35.5951 95.2283 34.245 95.7721 32.8011 95.7721C29.7634 95.7721 28.0383 93.7657 28.0383 91.0655V90.0341C28.0383 87.3339 29.7259 85.29 32.5011 85.29C35.2201 85.29 36.8139 86.9777 36.8139 90.1467ZM34.7325 89.7529V89.6591C34.7325 87.934 33.9637 86.9964 32.5199 86.9964C31.0947 86.9964 30.3447 87.934 30.3072 89.7529H34.7325Z" fill="#8D9EB0"/>
<path fill-rule="evenodd" clip-rule="evenodd" d="M36.071 103.774C36.071 103.498 36.2949 103.274 36.571 103.274H62.6553C62.9314 103.274 63.1553 103.498 63.1553 103.774V103.774C63.1553 104.051 62.9314 104.274 62.6553 104.274H36.571C36.2949 104.274 36.071 104.051 36.071 103.774V103.774Z" fill="#8D9EB0"/>
<path fill-rule="evenodd" clip-rule="evenodd" d="M36.071 76.7744C36.071 76.4983 36.2949 76.2744 36.571 76.2744H62.6553C62.9314 76.2744 63.1553 76.4983 63.1553 76.7744V76.7744C63.1553 77.0506 62.9314 77.2744 62.6553 77.2744H36.571C36.2949 77.2744 36.071 77.0506 36.071 76.7744V76.7744Z" fill="#8D9EB0"/>
<path fill-rule="evenodd" clip-rule="evenodd" d="M42.2481 101.669C42.4128 102.096 43.0165 102.096 43.1811 101.669L44.965 97.0456C45.0914 96.718 44.8497 96.3656 44.4985 96.3656L40.9307 96.3656C40.5796 96.3656 40.3378 96.718 40.4642 97.0456L42.2481 101.669Z" fill="#8D9EB0"/>
<rect x="42.2156" y="97.7686" width="15.6373" height="1" rx="0.5" transform="rotate(-90 42.2156 97.7686)" fill="#8D9EB0"/>
<path fill-rule="evenodd" clip-rule="evenodd" d="M43.1831 78.7964C43.0185 78.3697 42.4147 78.3697 42.2501 78.7964L40.4662 83.4203C40.3398 83.7478 40.5816 84.1002 40.9327 84.1002L44.5005 84.1002C44.8516 84.1002 45.0934 83.7478 44.967 83.4203L43.1831 78.7964Z" fill="#8D9EB0"/>
<path fill-rule="evenodd" clip-rule="evenodd" d="M68.4568 36.5906C68.0301 36.7552 68.0301 37.3589 68.4568 37.5236L73.0807 39.3075C73.4083 39.4339 73.7607 39.1921 73.7607 38.841V35.2732C73.7607 34.9221 73.4083 34.6803 73.0807 34.8067L68.4568 36.5906Z" fill="#8D9EB0"/>
<rect x="72.3582" y="36.5576" width="15.6373" height="1" rx="0.5" fill="#8D9EB0"/>
<path fill-rule="evenodd" clip-rule="evenodd" d="M91.3295 37.5256C91.7562 37.361 91.7562 36.7573 91.3295 36.5926L86.7056 34.8087C86.3781 34.6823 86.0257 34.9241 86.0257 35.2752V38.843C86.0257 39.1942 86.3781 39.4359 86.7056 39.3095L91.3295 37.5256Z" fill="#8D9EB0"/>
<path fill-rule="evenodd" clip-rule="evenodd" d="M148.771 85.5308H143.464V89.2623H148.359V91.0812H143.464V95.0003H148.771V96.8379H141.102V83.7119H148.771V85.5308ZM156.14 95.0565H158.447V96.8379H151.171V95.0565H153.853V86.2621L151.584 87.3872L150.721 85.8496L154.397 83.7119H156.14V95.0565Z" fill="#8D9EB0"/>
<path fill-rule="evenodd" clip-rule="evenodd" d="M178.537 110.696H183.862V112.608H176.174V99.4824H178.537V110.696Z" fill="#8D9EB0"/>
<path fill-rule="evenodd" clip-rule="evenodd" d="M267.277 121.323C267.277 121.047 267.501 120.823 267.777 120.823H279.237C279.513 120.823 279.737 121.047 279.737 121.323V121.323C279.737 121.599 279.513 121.823 279.237 121.823H267.777C267.501 121.823 267.277 121.599 267.277 121.323V121.323Z" fill="#8D9EB0"/>
<path fill-rule="evenodd" clip-rule="evenodd" d="M269.213 131.532C269.213 131.256 269.437 131.032 269.713 131.032H279.237C279.513 131.032 279.737 131.256 279.737 131.532V131.532C279.737 131.808 279.513 132.032 279.237 132.032H269.713C269.437 132.032 269.213 131.808 269.213 131.532V131.532Z" fill="#8D9EB0"/>
<path fill-rule="evenodd" clip-rule="evenodd" d="M278.285 133.346C278.121 132.919 277.517 132.919 277.352 133.346L275.568 137.97C275.442 138.298 275.684 138.65 276.035 138.65H279.603C279.954 138.65 280.195 138.298 280.069 137.97L278.285 133.346Z" fill="#8D9EB0"/>
<path fill-rule="evenodd" clip-rule="evenodd" d="M277.966 137.454C278.222 137.454 278.429 137.661 278.429 137.917V145.387C278.429 145.643 278.222 145.85 277.966 145.85V145.85C277.71 145.85 277.503 145.643 277.503 145.387V137.917C277.503 137.661 277.71 137.454 277.966 137.454V137.454Z" fill="#8D9EB0"/>
<path fill-rule="evenodd" clip-rule="evenodd" d="M273.429 145.314C273.429 145.058 273.636 144.851 273.892 144.851H277.966C278.222 144.851 278.429 145.058 278.429 145.314V145.314C278.429 145.57 278.222 145.777 277.966 145.777H273.892C273.636 145.777 273.429 145.57 273.429 145.314V145.314Z" fill="#8D9EB0"/>
<path fill-rule="evenodd" clip-rule="evenodd" d="M278.285 119.086C278.121 119.513 277.517 119.513 277.352 119.086L275.568 114.463C275.442 114.135 275.684 113.783 276.035 113.783H279.603C279.954 113.783 280.195 114.135 280.069 114.463L278.285 119.086Z" fill="#8D9EB0"/>
<path fill-rule="evenodd" clip-rule="evenodd" d="M277.966 116.979C278.222 116.979 278.429 116.771 278.429 116.515V111.963C278.429 111.707 278.222 111.5 277.966 111.5V111.5C277.71 111.5 277.503 111.707 277.503 111.963V116.515C277.503 116.771 277.71 116.979 277.966 116.979V116.979Z" fill="#8D9EB0"/>
<path fill-rule="evenodd" clip-rule="evenodd" d="M258.137 150.001H263.463V151.914H255.775V138.788H258.137V150.001ZM269.744 150.133H272.051V151.914H264.775V150.133H267.457V141.338L265.188 142.463L264.325 140.926L268 138.788H269.744V150.133Z" fill="#8D9EB0"/>
<path d="M188.926 131.53V127.111H202.375C206.679 127.111 207.542 122.158 207.435 119.682H213.071C213.114 119.959 213.173 121.629 213.071 126.086C212.968 130.544 209.612 131.573 207.947 131.53H188.926Z" fill="#D8D8D8" stroke="#979797" stroke-linejoin="round"/>
<path d="M268.213 131.53V127.111H254.763C250.46 127.111 249.597 122.158 249.704 119.682H244.068C244.025 119.959 243.965 121.629 244.068 126.086C244.17 130.544 247.526 131.573 249.191 131.53H268.213Z" fill="#D8D8D8" stroke="#979797" stroke-linejoin="round"/>
<rect x="206.828" y="25.0566" width="6.1944" height="65.1794" fill="#D8D8D8" stroke="#979797" stroke-linejoin="round"/>
<rect x="243.906" y="25.0566" width="6.1944" height="65.1794" fill="#D8D8D8" stroke="#979797" stroke-linejoin="round"/>
<rect x="194.603" y="82.1816" width="70.8842" height="37" fill="#585858" stroke="#505050"/>
<rect x="63.7397" y="73.7744" width="6" height="6" fill="#D8D8D8" stroke="#979797"/>
<rect x="63.7397" y="101.043" width="6" height="6" fill="#D8D8D8" stroke="#979797"/>
<rect x="89.5442" y="73.7744" width="6" height="6" fill="#D8D8D8" stroke="#979797"/>
<rect x="89.5442" y="101.043" width="6" height="6" fill="#D8D8D8" stroke="#979797"/>
<rect x="113.544" y="73.7744" width="6" height="6" fill="#D8D8D8" stroke="#979797"/>
<rect x="113.544" y="101.043" width="6" height="6" fill="#D8D8D8" stroke="#979797"/>
</svg>
