<svg width="200" height="151" viewBox="0 0 200 151" fill="none" xmlns="http://www.w3.org/2000/svg">
<path d="M29.0965 66.557V59.8146H42.821C47.2755 59.8146 49.8965 52.8887 50.7668 50.6644C52.5727 46.0492 55.4139 38.0235 58.5923 31.2819C61.7706 24.5403 68.7452 23.4967 71.8353 23.8176H114.935V31.2819C102.174 31.2418 75.6878 31.1856 71.8353 31.2819C67.9828 31.3782 65.896 34.2117 65.3341 35.6164C64.6118 37.663 62.2521 42.5501 58.5923 51.9887C53.6679 64.6884 49.2018 66.557 45.3492 66.557H29.0965Z" fill="#D8D8D8" stroke="#979797" stroke-width="0.916169" stroke-linejoin="round"/>
<path d="M64.0243 66.4347V59.6932H77.8693L88.7045 49.9414H107.485V57.6463H90.2696L80.6383 66.4347H64.0243Z" fill="#D8D8D8" stroke="#979797" stroke-width="0.916169" stroke-linejoin="round"/>
<path d="M125.051 58.847V51.5033H146.078V58.847H125.051Z" fill="#D8D8D8"/>
<path d="M125.051 31.5214V24.1777H146.078V31.5214H125.051Z" fill="#D8D8D8"/>
<path d="M125.051 58.847V51.5033H146.078V58.847H125.051Z" stroke="#979797" stroke-width="0.916169" stroke-linejoin="round"/>
<path d="M125.051 31.5214V24.1777H146.078V31.5214H125.051Z" stroke="#979797" stroke-width="0.916169" stroke-linejoin="round"/>
<rect x="97.2168" y="11.2735" width="28.3388" height="54.8259" fill="#585858" stroke="#505050" stroke-width="0.916169"/>
<rect x="47.7159" y="80.1339" width="97.9042" height="59.33" fill="#585858" stroke="#505050" stroke-width="0.916169"/>
<rect x="65.6078" y="94.5596" width="5.49701" height="5.49701" fill="#D8D8D8" stroke="#979797" stroke-width="0.916169"/>
<rect x="65.6078" y="119.542" width="5.49701" height="5.49701" fill="#D8D8D8" stroke="#979797" stroke-width="0.916169"/>
<rect x="85.5844" y="94.5596" width="5.49701" height="5.49701" fill="#D8D8D8" stroke="#979797" stroke-width="0.916169"/>
<rect x="85.5844" y="119.542" width="5.49701" height="5.49701" fill="#D8D8D8" stroke="#979797" stroke-width="0.916169"/>
<rect x="103.908" y="94.5596" width="5.49701" height="5.49701" fill="#D8D8D8" stroke="#979797" stroke-width="0.916169"/>
<rect x="122.231" y="94.5596" width="5.49701" height="5.49701" fill="#D8D8D8" stroke="#979797" stroke-width="0.916169"/>
<rect x="103.908" y="119.542" width="5.49701" height="5.49701" fill="#D8D8D8" stroke="#979797" stroke-width="0.916169"/>
<rect x="122.231" y="119.542" width="5.49701" height="5.49701" fill="#D8D8D8" stroke="#979797" stroke-width="0.916169"/>
</svg>
