<svg width="290" height="175" viewBox="0 0 290 175" fill="none" xmlns="http://www.w3.org/2000/svg">
<g id="SOIC-Header-Female-Labeled">
<g id="Rectangle 32">
<mask id="path-1-inside-1" fill="white">
<path fill-rule="evenodd" clip-rule="evenodd" d="M71.7531 129.578H64.5842V112.168H71.7531V129.578Z"/>
</mask>
<path fill-rule="evenodd" clip-rule="evenodd" d="M71.7531 129.578H64.5842V112.168H71.7531V129.578Z" fill="#D8D8D8"/>
<path d="M64.5842 129.578H63.5842V130.578H64.5842V129.578ZM64.5842 112.168V111.168H63.5842V112.168H64.5842ZM71.7531 112.168H72.7531V111.168H71.7531V112.168ZM71.7531 128.578H64.5842V130.578H71.7531V128.578ZM65.5842 129.578V112.168H63.5842V129.578H65.5842ZM64.5842 113.168H71.7531V111.168H64.5842V113.168ZM70.7531 112.168V129.578H72.7531V112.168H70.7531Z" fill="#979797" mask="url(#path-1-inside-1)"/>
</g>
<g id="Rectangle 135">
<mask id="path-3-inside-2" fill="white">
<path fill-rule="evenodd" clip-rule="evenodd" d="M71.7531 57.5361H64.5842V40.126H71.7531V57.5361Z"/>
</mask>
<path fill-rule="evenodd" clip-rule="evenodd" d="M71.7531 57.5361H64.5842V40.126H71.7531V57.5361Z" fill="#D8D8D8"/>
<path d="M64.5842 57.5361H63.5842V58.5361H64.5842V57.5361ZM64.5842 40.126V39.126H63.5842V40.126H64.5842ZM71.7531 40.126H72.7531V39.126H71.7531V40.126ZM71.7531 56.5361H64.5842V58.5361H71.7531V56.5361ZM65.5842 57.5361V40.126H63.5842V57.5361H65.5842ZM64.5842 41.126H71.7531V39.126H64.5842V41.126ZM70.7531 40.126V57.5361H72.7531V40.126H70.7531Z" fill="#979797" mask="url(#path-3-inside-2)"/>
</g>
<g id="Rectangle 133">
<mask id="path-5-inside-3" fill="white">
<path fill-rule="evenodd" clip-rule="evenodd" d="M97.2888 129.578H90.1199V112.168H97.2888V129.578Z"/>
</mask>
<path fill-rule="evenodd" clip-rule="evenodd" d="M97.2888 129.578H90.1199V112.168H97.2888V129.578Z" fill="#D8D8D8"/>
<path d="M90.1199 129.578H89.1199V130.578H90.1199V129.578ZM90.1199 112.168V111.168H89.1199V112.168H90.1199ZM97.2888 112.168H98.2888V111.168H97.2888V112.168ZM97.2888 128.578H90.1199V130.578H97.2888V128.578ZM91.1199 129.578V112.168H89.1199V129.578H91.1199ZM90.1199 113.168H97.2888V111.168H90.1199V113.168ZM96.2888 112.168V129.578H98.2888V112.168H96.2888Z" fill="#979797" mask="url(#path-5-inside-3)"/>
</g>
<g id="Rectangle 136">
<mask id="path-7-inside-4" fill="white">
<path fill-rule="evenodd" clip-rule="evenodd" d="M97.2888 57.5361H90.1199V40.126H97.2888V57.5361Z"/>
</mask>
<path fill-rule="evenodd" clip-rule="evenodd" d="M97.2888 57.5361H90.1199V40.126H97.2888V57.5361Z" fill="#D8D8D8"/>
<path d="M90.1199 57.5361H89.1199V58.5361H90.1199V57.5361ZM90.1199 40.126V39.126H89.1199V40.126H90.1199ZM97.2888 40.126H98.2888V39.126H97.2888V40.126ZM97.2888 56.5361H90.1199V58.5361H97.2888V56.5361ZM91.1199 57.5361V40.126H89.1199V57.5361H91.1199ZM90.1199 41.126H97.2888V39.126H90.1199V41.126ZM96.2888 40.126V57.5361H98.2888V40.126H96.2888Z" fill="#979797" mask="url(#path-7-inside-4)"/>
</g>
<g id="Rectangle 134">
<mask id="path-9-inside-5" fill="white">
<path fill-rule="evenodd" clip-rule="evenodd" d="M121.289 129.578H114.12V112.168H121.289V129.578Z"/>
</mask>
<path fill-rule="evenodd" clip-rule="evenodd" d="M121.289 129.578H114.12V112.168H121.289V129.578Z" fill="#D8D8D8"/>
<path d="M114.12 129.578H113.12V130.578H114.12V129.578ZM114.12 112.168V111.168H113.12V112.168H114.12ZM121.289 112.168H122.289V111.168H121.289V112.168ZM121.289 128.578H114.12V130.578H121.289V128.578ZM115.12 129.578V112.168H113.12V129.578H115.12ZM114.12 113.168H121.289V111.168H114.12V113.168ZM120.289 112.168V129.578H122.289V112.168H120.289Z" fill="#979797" mask="url(#path-9-inside-5)"/>
</g>
<g id="Rectangle 137">
<mask id="path-11-inside-6" fill="white">
<path fill-rule="evenodd" clip-rule="evenodd" d="M121.289 57.5361H114.12V40.126H121.289V57.5361Z"/>
</mask>
<path fill-rule="evenodd" clip-rule="evenodd" d="M121.289 57.5361H114.12V40.126H121.289V57.5361Z" fill="#D8D8D8"/>
<path d="M114.12 57.5361H113.12V58.5361H114.12V57.5361ZM114.12 40.126V39.126H113.12V40.126H114.12ZM121.289 40.126H122.289V39.126H121.289V40.126ZM121.289 56.5361H114.12V58.5361H121.289V56.5361ZM115.12 57.5361V40.126H113.12V57.5361H115.12ZM114.12 41.126H121.289V39.126H114.12V41.126ZM120.289 40.126V57.5361H122.289V40.126H120.289Z" fill="#979797" mask="url(#path-11-inside-6)"/>
</g>
<rect id="Rectangle 18" x="51.0245" y="53.917" width="83.8597" height="62.0962" fill="#585858" stroke="#505050"/>
<g id="Group">
<g id="triangle">
<path id="Triangle 1" fill-rule="evenodd" clip-rule="evenodd" d="M53.1378 144.354C52.7111 144.519 52.7111 145.123 53.1378 145.287L57.7617 147.071C58.0893 147.198 58.4417 146.956 58.4417 146.605V143.037C58.4417 142.686 58.0893 142.444 57.7617 142.57L53.1378 144.354Z" fill="#8D9EB0"/>
</g>
<path id="Rectangle 144" fill-rule="evenodd" clip-rule="evenodd" d="M55.2457 144.674C55.2457 144.418 55.4531 144.211 55.7089 144.211H80.2943C80.5501 144.211 80.7575 144.418 80.7575 144.674C80.7575 144.93 80.5501 145.137 80.2943 145.137H55.7089C55.4531 145.137 55.2457 144.93 55.2457 144.674Z" fill="#8D9EB0"/>
</g>
<g id="Group_2">
<g id="triangle_2">
<path id="Triangle 1_2" fill-rule="evenodd" clip-rule="evenodd" d="M132.294 144.354C132.721 144.519 132.721 145.123 132.294 145.287L127.67 147.071C127.343 147.198 126.99 146.956 126.99 146.605V143.037C126.99 142.686 127.343 142.444 127.67 142.57L132.294 144.354Z" fill="#8D9EB0"/>
</g>
<path id="Rectangle 144_2" fill-rule="evenodd" clip-rule="evenodd" d="M130.186 144.674C130.186 144.418 129.979 144.211 129.723 144.211H104.525C104.269 144.211 104.062 144.418 104.062 144.674C104.062 144.93 104.269 145.137 104.525 145.137H129.723C129.979 145.137 130.186 144.93 130.186 144.674Z" fill="#8D9EB0"/>
</g>
<path id="D" fill-rule="evenodd" clip-rule="evenodd" d="M93.1793 138.259C96.742 138.259 98.5234 140.359 98.5234 143.509V145.834C98.5234 149.247 96.4983 151.385 92.7105 151.385H88.8852V138.259H93.1793ZM96.1607 145.872V143.453C96.1607 141.315 95.1482 140.078 93.0668 140.078H91.2479V149.566H92.7292C95.0169 149.566 96.1607 148.366 96.1607 145.872Z" fill="#8D9EB0"/>
<path id="Rectangle 93" fill-rule="evenodd" clip-rule="evenodd" d="M50.0245 119.014C50.0245 118.738 50.2483 118.514 50.5245 118.514C50.8006 118.514 51.0245 118.738 51.0245 119.014V154.134C51.0245 154.411 50.8006 154.634 50.5245 154.634C50.2483 154.634 50.0245 154.411 50.0245 154.134V119.014Z" fill="#8D9EB0"/>
<path id="Rectangle 93 Copy 3" fill-rule="evenodd" clip-rule="evenodd" d="M134.384 119.014C134.384 118.738 134.608 118.514 134.884 118.514C135.16 118.514 135.384 118.738 135.384 119.014V154.134C135.384 154.411 135.16 154.634 134.884 154.634C134.608 154.634 134.384 154.411 134.384 154.134V119.014Z" fill="#8D9EB0"/>
<path id="b" fill-rule="evenodd" clip-rule="evenodd" d="M140.297 27.6441C142.585 27.6441 144.085 29.4818 144.085 32.3695V33.382C144.085 36.1385 142.303 38.1261 140.016 38.1261C138.947 38.1261 138.084 37.7324 137.391 37.0198L137.203 37.8824H135.384V24.0063H137.709V28.6754C138.347 28.0191 139.21 27.6441 140.297 27.6441ZM141.76 33.4571V32.2945C141.76 30.3443 141.103 29.4067 139.828 29.4067C138.928 29.4067 138.216 29.838 137.709 30.4756V35.5385C138.216 36.0822 138.853 36.3823 139.622 36.3823C140.916 36.3823 141.76 35.3697 141.76 33.4571Z" fill="#8D9EB0"/>
<path id="Rectangle 93_2" fill-rule="evenodd" clip-rule="evenodd" d="M113.936 27.2227C113.936 26.9465 114.159 26.7227 114.436 26.7227C114.712 26.7227 114.936 26.9465 114.936 27.2227V37.6262C114.936 37.9023 114.712 38.1262 114.436 38.1262C114.159 38.1262 113.936 37.9023 113.936 37.6262V27.2227Z" fill="#8D9EB0"/>
<path id="Rectangle 93 Copy 3_2" fill-rule="evenodd" clip-rule="evenodd" d="M120.289 27.2227C120.289 26.9465 120.513 26.7227 120.789 26.7227C121.065 26.7227 121.289 26.9465 121.289 27.2227V37.6262C121.289 37.9023 121.065 38.1262 120.789 38.1262C120.513 38.1262 120.289 37.9023 120.289 37.6262V27.2227Z" fill="#8D9EB0"/>
<path id="Rectangle 132 Copy" fill-rule="evenodd" clip-rule="evenodd" d="M8 129.014C8 128.738 8.22386 128.514 8.5 128.514H62.4044C62.6806 128.514 62.9044 128.738 62.9044 129.014C62.9044 129.29 62.6806 129.514 62.4044 129.514H8.5C8.22386 129.514 8 129.29 8 129.014Z" fill="#8D9EB0"/>
<path id="Rectangle 132 Copy_2" fill-rule="evenodd" clip-rule="evenodd" d="M174.5 126.222C174.5 125.946 174.724 125.722 175 125.722H187.895C188.171 125.722 188.395 125.946 188.395 126.222C188.395 126.498 188.171 126.722 187.895 126.722H175C174.724 126.722 174.5 126.498 174.5 126.222Z" fill="#8D9EB0"/>
<path id="Rectangle 132 Copy_3" fill-rule="evenodd" clip-rule="evenodd" d="M138.531 116.014C138.531 115.738 138.755 115.514 139.031 115.514H159.376C159.652 115.514 159.876 115.738 159.876 116.014C159.876 116.29 159.652 116.514 159.376 116.514H139.031C138.755 116.514 138.531 116.29 138.531 116.014Z" fill="#8D9EB0"/>
<path id="Rectangle 132 Copy 2" fill-rule="evenodd" clip-rule="evenodd" d="M8 40.917C8 40.6408 8.22386 40.417 8.5 40.417H62.4044C62.6802 40.417 62.9039 40.6403 62.9044 40.916C62.905 41.1925 62.681 41.417 62.4044 41.417H8.5C8.22386 41.417 8 41.1931 8 40.917Z" fill="#8D9EB0"/>
<path id="Rectangle 132 Copy 4" fill-rule="evenodd" clip-rule="evenodd" d="M174.5 53.917C174.5 53.6408 174.724 53.417 175 53.417H193.867C194.143 53.417 194.367 53.6406 194.367 53.9166C194.367 54.1929 194.143 54.417 193.867 54.417H175C174.724 54.417 174.5 54.1931 174.5 53.917Z" fill="#8D9EB0"/>
<path id="Rectangle 132 Copy 3" fill-rule="evenodd" clip-rule="evenodd" d="M138.531 53.917C138.531 53.6408 138.755 53.417 139.031 53.417H159.334C159.61 53.417 159.833 53.6406 159.834 53.9166C159.834 54.1929 159.61 54.417 159.334 54.417H139.031C138.755 54.417 138.531 54.1931 138.531 53.917Z" fill="#8D9EB0"/>
<g id="Group 2">
<g id="triangle_3">
<path id="Triangle 1_3" fill-rule="evenodd" clip-rule="evenodd" d="M15.52 125.989C15.6847 126.415 16.2884 126.415 16.453 125.989L18.2369 121.365C18.3633 121.037 18.1216 120.685 17.7705 120.685H14.2026C13.8515 120.685 13.6097 121.037 13.7361 121.365L15.52 125.989Z" fill="#8D9EB0"/>
</g>
<rect id="Rectangle 134_2" width="1" height="26.4424" rx="0.5" transform="matrix(1 0 0 -1 15.4868 123.733)" fill="#8D9EB0"/>
</g>
<g id="Group 29">
<g id="triangle_4">
<path id="Triangle 1_4" fill-rule="evenodd" clip-rule="evenodd" d="M180.072 122.989C180.237 123.415 180.841 123.415 181.005 122.989L182.789 118.365C182.916 118.037 182.674 117.685 182.323 117.685H178.755C178.404 117.685 178.162 118.037 178.288 118.365L180.072 122.989Z" fill="#8D9EB0"/>
</g>
<rect id="Rectangle 134_3" width="1" height="18.9996" rx="0.5" transform="matrix(1 0 0 -1 180.039 120.733)" fill="#8D9EB0"/>
</g>
<g id="Group 28">
<g id="triangle_5">
<path id="Triangle 1_5" fill-rule="evenodd" clip-rule="evenodd" d="M150.874 112.989C151.039 113.415 151.643 113.415 151.807 112.989L153.591 108.365C153.718 108.037 153.476 107.685 153.125 107.685H149.557C149.206 107.685 148.964 108.037 149.091 108.365L150.874 112.989Z" fill="#8D9EB0"/>
</g>
<rect id="Rectangle 134_4" width="1" height="16.5603" rx="0.5" transform="matrix(1 0 0 -1 150.841 110.733)" fill="#8D9EB0"/>
</g>
<g id="Group 2 Copy">
<g id="triangle_6">
<path id="Triangle 1_6" fill-rule="evenodd" clip-rule="evenodd" d="M15.5207 43.5161C15.6853 43.0894 16.2891 43.0894 16.4537 43.5161L18.2376 48.14C18.364 48.4676 18.1222 48.82 17.7711 48.82H14.2033C13.8522 48.82 13.6104 48.4676 13.7368 48.14L15.5207 43.5161Z" fill="#8D9EB0"/>
</g>
<path id="Rectangle 134_5" fill-rule="evenodd" clip-rule="evenodd" d="M15.4875 46.2715C15.4875 45.9953 15.7113 45.7715 15.9875 45.7715C16.2636 45.7715 16.4875 45.9953 16.4875 46.2715V72.0542C16.4875 72.3303 16.2636 72.5542 15.9875 72.5542C15.7113 72.5542 15.4875 72.3303 15.4875 72.0542V46.2715Z" fill="#8D9EB0"/>
</g>
<g id="Group 2 Copy_2">
<g id="triangle_7">
<path id="Triangle 1_7" fill-rule="evenodd" clip-rule="evenodd" d="M180.073 57.5161C180.238 57.0894 180.841 57.0894 181.006 57.5161L182.79 62.14C182.916 62.4676 182.674 62.82 182.323 62.82H178.755C178.404 62.82 178.163 62.4676 178.289 62.14L180.073 57.5161Z" fill="#8D9EB0"/>
</g>
<path id="Rectangle 134_6" fill-rule="evenodd" clip-rule="evenodd" d="M180.04 60.2715C180.04 59.9953 180.263 59.7715 180.54 59.7715C180.816 59.7715 181.04 59.9953 181.04 60.2715V79.4804C181.04 79.7566 180.816 79.9804 180.54 79.9804C180.263 79.9804 180.04 79.7566 180.04 79.4804V60.2715Z" fill="#8D9EB0"/>
</g>
<g id="Group 2 Copy_3">
<g id="triangle_8">
<path id="Triangle 1_8" fill-rule="evenodd" clip-rule="evenodd" d="M150.875 56.5161C151.04 56.0894 151.643 56.0894 151.808 56.5161L153.592 61.14C153.718 61.4676 153.477 61.82 153.126 61.82H149.558C149.207 61.82 148.965 61.4676 149.091 61.14L150.875 56.5161Z" fill="#8D9EB0"/>
</g>
<path id="Rectangle 134_7" fill-rule="evenodd" clip-rule="evenodd" d="M150.842 59.2715C150.842 58.9953 151.066 58.7715 151.342 58.7715C151.618 58.7715 151.842 58.9953 151.842 59.2715V75.0134C151.842 75.2895 151.618 75.5134 151.342 75.5134C151.066 75.5134 150.842 75.2895 150.842 75.0134V59.2715Z" fill="#8D9EB0"/>
</g>
<g id="Group 17">
<g id="triangle_9">
<path id="Triangle 1_9" fill-rule="evenodd" clip-rule="evenodd" d="M122.235 31.2805C121.808 31.4452 121.808 32.0489 122.235 32.2135L126.859 33.9974C127.186 34.1238 127.539 33.8821 127.539 33.531V29.9631C127.539 29.612 127.186 29.3702 126.859 29.4966L122.235 31.2805Z" fill="#8D9EB0"/>
</g>
<rect id="Rectangle 144_3" x="124.49" y="31.2471" width="9" height="1" rx="0.5" fill="#8D9EB0"/>
</g>
<g id="Group 18">
<g id="triangle_10">
<path id="Triangle 1_10" fill-rule="evenodd" clip-rule="evenodd" d="M113.109 32.2156C113.535 32.0509 113.535 31.4472 113.109 31.2826L108.485 29.4987C108.157 29.3723 107.805 29.614 107.805 29.9651V33.533C107.805 33.8841 108.157 34.1259 108.485 33.9995L113.109 32.2156Z" fill="#8D9EB0"/>
</g>
<path id="Rectangle 144_4" fill-rule="evenodd" clip-rule="evenodd" d="M110.363 32.2485H102.399C102.151 32.2485 101.946 32.0548 101.913 31.8168C101.907 31.7716 101.908 31.7258 101.916 31.6808C101.939 31.5442 102.032 31.2485 102.399 31.2485H110.363C110.634 31.2485 110.853 31.4805 110.853 31.7485C110.853 32.0247 110.638 32.2485 110.363 32.2485Z" fill="#8D9EB0"/>
</g>
<path id="Rectangle 93 Copy 7" fill-rule="evenodd" clip-rule="evenodd" d="M68.0016 27.2227C68.0016 26.9465 68.2254 26.7227 68.5016 26.7227C68.7777 26.7227 69.0016 26.9465 69.0016 27.2227V37.6262C69.0016 37.9023 68.7777 38.1262 68.5016 38.1262C68.2254 38.1262 68.0016 37.9023 68.0016 37.6262V27.2227Z" fill="#8D9EB0"/>
<path id="Rectangle 93 Copy 8" fill-rule="evenodd" clip-rule="evenodd" d="M93.7047 27.2227C93.7047 26.9465 93.9286 26.7227 94.2047 26.7227C94.4809 26.7227 94.7047 26.9465 94.7047 27.2227V37.6262C94.7047 37.9023 94.4809 38.1262 94.2047 38.1262C93.9286 38.1262 93.7047 37.9023 93.7047 37.6262V27.2227Z" fill="#8D9EB0"/>
<path id="E" fill-rule="evenodd" clip-rule="evenodd" d="M19.8457 80.1763H14.539V83.9078H19.4331V85.7267H14.539V89.6458H19.8457V91.4834H12.1763V78.3574H19.8457V80.1763Z" fill="#8D9EB0"/>
<path id="d" fill-rule="evenodd" clip-rule="evenodd" d="M83.1519 10.2471H85.4771V24.1231H83.6582L83.4145 23.0355C82.7582 23.8418 81.8956 24.3669 80.6768 24.3669C78.3516 24.3669 76.7202 22.5105 76.7202 19.6603V18.6102C76.7202 15.8725 78.3703 13.8848 80.7893 13.8848C81.7643 13.8848 82.5144 14.1849 83.1519 14.7662V10.2471ZM81.0893 22.623C82.0081 22.623 82.6269 22.173 83.1519 21.4604V16.4725C82.7394 16.0225 82.0456 15.6475 81.183 15.6475C79.8517 15.6475 79.0454 16.66 79.0454 18.5539V19.6978C79.0454 21.6854 79.8329 22.623 81.0893 22.623Z" fill="#8D9EB0"/>
<g id="Group 25">
<g id="Group 3">
<path id="Rectangle 19 Copy 8" fill-rule="evenodd" clip-rule="evenodd" d="M71.4731 68.1958L76.7202 62.9487V79.9804L71.4731 74.7333V68.1958Z" fill="#505050"/>
<path id="Rectangle 19 Copy 9" fill-rule="evenodd" clip-rule="evenodd" d="M64.9356 74.7339H71.4731L76.7202 79.981H59.6893L64.9356 74.7339Z" fill="#666666"/>
<path id="Rectangle 19 Copy 10" fill-rule="evenodd" clip-rule="evenodd" d="M59.6885 62.9487L64.9356 68.1958V74.7333L59.6892 79.9804L59.6885 62.9487Z" fill="#505050"/>
<path id="Rectangle 19 Copy 11" fill-rule="evenodd" clip-rule="evenodd" d="M59.6885 62.9487H76.7202L71.4731 68.1958H64.9356L59.6885 62.9487Z" fill="#666666"/>
<path id="Rectangle 19" d="M64.9356 68.1963V74.7338H71.4731V68.1963H64.9356Z" fill="black"/>
<rect id="Rectangle" x="59.7043" y="62.9648" width="17" height="17" stroke="#4F4F4F"/>
</g>
<g id="Group 4">
<path id="Rectangle 19 Copy 8_2" fill-rule="evenodd" clip-rule="evenodd" d="M71.4731 95.1958L76.7202 89.9487V106.98L71.4731 101.733V95.1958Z" fill="#505050"/>
<path id="Rectangle 19 Copy 9_2" fill-rule="evenodd" clip-rule="evenodd" d="M64.9356 101.733H71.4731L76.7202 106.981H59.6893L64.9356 101.733Z" fill="#666666"/>
<path id="Rectangle 19 Copy 10_2" fill-rule="evenodd" clip-rule="evenodd" d="M59.6885 89.9487L64.9356 95.1958V101.733L59.6892 106.98L59.6885 89.9487Z" fill="#505050"/>
<path id="Rectangle 19 Copy 11_2" fill-rule="evenodd" clip-rule="evenodd" d="M59.6885 89.9487H76.7202L71.4731 95.1958H64.9356L59.6885 89.9487Z" fill="#666666"/>
<path id="Rectangle 19_2" d="M64.9356 95.1963V101.734H71.4731V95.1963H64.9356Z" fill="black"/>
<rect id="Rectangle_2" x="59.7043" y="89.9648" width="17" height="17" stroke="#4F4F4F"/>
</g>
<g id="Group 3_2">
<path id="Rectangle 19 Copy 8_3" fill-rule="evenodd" clip-rule="evenodd" d="M96.9731 68.1958L102.22 62.9487V79.9804L96.9731 74.7333V68.1958Z" fill="#505050"/>
<path id="Rectangle 19 Copy 9_3" fill-rule="evenodd" clip-rule="evenodd" d="M90.4356 74.7339H96.9731L102.22 79.981H85.1892L90.4356 74.7339Z" fill="#666666"/>
<path id="Rectangle 19 Copy 10_3" fill-rule="evenodd" clip-rule="evenodd" d="M85.1885 62.9487L90.4356 68.1958V74.7333L85.1892 79.9804L85.1885 62.9487Z" fill="#505050"/>
<path id="Rectangle 19 Copy 11_3" fill-rule="evenodd" clip-rule="evenodd" d="M85.1885 62.9487H102.22L96.9731 68.1958H90.4356L85.1885 62.9487Z" fill="#666666"/>
<path id="Rectangle 19_3" d="M90.4356 68.1963V74.7338H96.9731V68.1963H90.4356Z" fill="black"/>
<rect id="Rectangle_3" x="85.2043" y="62.9648" width="17" height="17" stroke="#4F4F4F"/>
</g>
<g id="Group 7">
<path id="Rectangle 19 Copy 8_4" fill-rule="evenodd" clip-rule="evenodd" d="M96.9731 95.1958L102.22 89.9487V106.98L96.9731 101.733V95.1958Z" fill="#505050"/>
<path id="Rectangle 19 Copy 9_4" fill-rule="evenodd" clip-rule="evenodd" d="M90.4356 101.733H96.9731L102.22 106.981H85.1892L90.4356 101.733Z" fill="#666666"/>
<path id="Rectangle 19 Copy 10_4" fill-rule="evenodd" clip-rule="evenodd" d="M85.1885 89.9487L90.4356 95.1958V101.733L85.1892 106.98L85.1885 89.9487Z" fill="#505050"/>
<path id="Rectangle 19 Copy 11_4" fill-rule="evenodd" clip-rule="evenodd" d="M85.1885 89.9487H102.22L96.9731 95.1958H90.4356L85.1885 89.9487Z" fill="#666666"/>
<path id="Rectangle 19_4" d="M90.4356 95.1963V101.734H96.9731V95.1963H90.4356Z" fill="black"/>
<rect id="Rectangle_4" x="85.2043" y="89.9648" width="17" height="17" stroke="#4F4F4F"/>
</g>
<g id="Group 6">
<path id="Rectangle 19 Copy 8_5" fill-rule="evenodd" clip-rule="evenodd" d="M120.973 68.1958L126.22 62.9487V79.9804L120.973 74.7333V68.1958Z" fill="#505050"/>
<path id="Rectangle 19 Copy 9_5" fill-rule="evenodd" clip-rule="evenodd" d="M114.436 74.7339H120.973L126.22 79.981H109.189L114.436 74.7339Z" fill="#666666"/>
<path id="Rectangle 19 Copy 10_5" fill-rule="evenodd" clip-rule="evenodd" d="M109.189 62.9487L114.436 68.1958V74.7333L109.189 79.9804L109.189 62.9487Z" fill="#505050"/>
<path id="Rectangle 19 Copy 11_5" fill-rule="evenodd" clip-rule="evenodd" d="M109.189 62.9487H126.22L120.973 68.1958H114.436L109.189 62.9487Z" fill="#666666"/>
<path id="Rectangle 19_5" d="M114.436 68.1963V74.7338H120.973V68.1963H114.436Z" fill="black"/>
<rect id="Rectangle_5" x="109.204" y="62.9648" width="17" height="17" stroke="#4F4F4F"/>
</g>
<g id="Group 8">
<path id="Rectangle 19 Copy 8_6" fill-rule="evenodd" clip-rule="evenodd" d="M120.973 95.1958L126.22 89.9487V106.98L120.973 101.733V95.1958Z" fill="#505050"/>
<path id="Rectangle 19 Copy 9_6" fill-rule="evenodd" clip-rule="evenodd" d="M114.436 101.733H120.973L126.22 106.981H109.189L114.436 101.733Z" fill="#666666"/>
<path id="Rectangle 19 Copy 10_6" fill-rule="evenodd" clip-rule="evenodd" d="M109.189 89.9487L114.436 95.1958V101.733L109.189 106.98L109.189 89.9487Z" fill="#505050"/>
<path id="Rectangle 19 Copy 11_6" fill-rule="evenodd" clip-rule="evenodd" d="M109.189 89.9487H126.22L120.973 95.1958H114.436L109.189 89.9487Z" fill="#666666"/>
<path id="Rectangle 19_6" d="M114.436 95.1963V101.734H120.973V95.1963H114.436Z" fill="black"/>
<rect id="Rectangle_6" x="109.204" y="89.9648" width="17" height="17" stroke="#4F4F4F"/>
</g>
</g>
<path id="e" fill-rule="evenodd" clip-rule="evenodd" d="M38.2429 84.8376C38.2429 85.2501 38.2054 85.6626 38.1679 85.9627H31.7361C31.7736 87.8753 32.655 88.7191 34.3801 88.7191C35.4677 88.7191 36.274 88.3253 37.0428 87.894L37.8678 89.2816C37.024 89.9192 35.6739 90.463 34.2301 90.463C31.1924 90.463 29.4672 88.4566 29.4672 85.7564V84.7251C29.4672 82.0249 31.1549 79.981 33.9301 79.981C36.649 79.981 38.2429 81.6686 38.2429 84.8376ZM36.1615 84.4438V84.35C36.1615 82.6249 35.3927 81.6873 33.9488 81.6873C32.5237 81.6873 31.7736 82.6249 31.7361 84.4438H36.1615Z" fill="#8D9EB0"/>
<path id="Rectangle 132 Copy_4" fill-rule="evenodd" clip-rule="evenodd" d="M37.5 98.4648C37.5 98.1887 37.7239 97.9648 38 97.9648H64.0843C64.3604 97.9648 64.5843 98.1887 64.5843 98.4648C64.5843 98.741 64.3604 98.9648 64.0843 98.9648H38C37.7239 98.9648 37.5 98.741 37.5 98.4648Z" fill="#8D9EB0"/>
<path id="Rectangle 132 Copy_5" fill-rule="evenodd" clip-rule="evenodd" d="M37.5 71.4648C37.5 71.1887 37.7239 70.9648 38 70.9648H64.0843C64.3604 70.9648 64.5843 71.1887 64.5843 71.4648C64.5843 71.741 64.3604 71.9648 64.0843 71.9648H38C37.7239 71.9648 37.5 71.741 37.5 71.4648Z" fill="#8D9EB0"/>
<g id="Group 26">
<g id="Group 17 Copy">
<g id="triangle_11">
<path id="Triangle 1_11" fill-rule="evenodd" clip-rule="evenodd" d="M43.6771 96.3589C43.8417 96.7856 44.4454 96.7856 44.6101 96.3589L46.394 91.735C46.5204 91.4074 46.2786 91.055 45.9275 91.055L42.3596 91.055C42.0085 91.055 41.7668 91.4074 41.8932 91.735L43.6771 96.3589Z" fill="#8D9EB0"/>
</g>
<rect id="Rectangle 144_5" x="43.6445" y="92.4575" width="15.6373" height="1" rx="0.5" transform="rotate(-90 43.6445 92.4575)" fill="#8D9EB0"/>
</g>
<g id="Group 18 Copy">
<g id="triangle_12">
<path id="Triangle 1_12" fill-rule="evenodd" clip-rule="evenodd" d="M44.612 73.4863C44.4474 73.0596 43.8437 73.0596 43.6791 73.4863L41.8951 78.1102C41.7688 78.4378 42.0105 78.7902 42.3616 78.7902L45.9295 78.7902C46.2806 78.7902 46.5223 78.4378 46.396 78.1102L44.612 73.4863Z" fill="#8D9EB0"/>
</g>
</g>
</g>
<g id="Group 27">
<g id="Group 17 Copy_2">
<g id="triangle_13">
<path id="Triangle 1_13" fill-rule="evenodd" clip-rule="evenodd" d="M69.8858 31.2805C69.4591 31.4452 69.4591 32.0489 69.8858 32.2135L74.5097 33.9974C74.8373 34.1238 75.1897 33.8821 75.1897 33.531V29.9631C75.1897 29.612 74.8373 29.3702 74.5097 29.4966L69.8858 31.2805Z" fill="#8D9EB0"/>
</g>
<rect id="Rectangle 144_6" x="73.7871" y="31.248" width="15.6373" height="1" rx="0.5" fill="#8D9EB0"/>
</g>
<g id="Group 18 Copy_2">
<g id="triangle_14">
<path id="Triangle 1_14" fill-rule="evenodd" clip-rule="evenodd" d="M92.7585 32.2156C93.1852 32.0509 93.1852 31.4472 92.7585 31.2826L88.1346 29.4987C87.807 29.3723 87.4546 29.614 87.4546 29.9651V33.533C87.4546 33.8841 87.807 34.1259 88.1346 33.9995L92.7585 32.2156Z" fill="#8D9EB0"/>
</g>
</g>
</g>
<path id="E1" fill-rule="evenodd" clip-rule="evenodd" d="M150.2 80.2212H144.893V83.9528H149.788V85.7716H144.893V89.6907H150.2V91.5283H142.531V78.4023H150.2V80.2212ZM157.569 89.7469H159.876V91.5283H152.6V89.7469H155.282V80.9525L153.013 82.0776L152.15 80.54L155.825 78.4023H157.569V89.7469Z" fill="#8D9EB0"/>
<path id="L" fill-rule="evenodd" clip-rule="evenodd" d="M180.072 95.4936H185.398V97.4063H177.71V84.2803H180.072V95.4936Z" fill="#8D9EB0"/>
<path id="Rectangle 132 Copy_6" fill-rule="evenodd" clip-rule="evenodd" d="M268.706 116.014C268.706 115.738 268.93 115.514 269.206 115.514H280.666C280.942 115.514 281.166 115.738 281.166 116.014C281.166 116.29 280.942 116.514 280.666 116.514H269.206C268.93 116.514 268.706 116.29 268.706 116.014Z" fill="#8D9EB0"/>
<path id="Rectangle 132 Copy 5" fill-rule="evenodd" clip-rule="evenodd" d="M270.642 126.223C270.642 125.947 270.865 125.723 271.142 125.723H280.666C280.942 125.723 281.166 125.947 281.166 126.223C281.166 126.499 280.942 126.723 280.666 126.723H271.142C270.865 126.723 270.642 126.499 270.642 126.223Z" fill="#8D9EB0"/>
<g id="Group 3 Copy 7">
<g id="triangle_15">
<path id="Triangle 1_15" fill-rule="evenodd" clip-rule="evenodd" d="M279.714 128.037C279.549 127.61 278.946 127.61 278.781 128.037L276.997 132.661C276.871 132.988 277.113 133.34 277.464 133.34H281.032C281.383 133.34 281.624 132.988 281.498 132.661L279.714 128.037Z" fill="#8D9EB0"/>
</g>
<path id="Rectangle 144_7" fill-rule="evenodd" clip-rule="evenodd" d="M279.395 132.145C279.651 132.145 279.858 132.352 279.858 132.608V140.077C279.858 140.333 279.651 140.541 279.395 140.541C279.139 140.541 278.932 140.333 278.932 140.077V132.608C278.932 132.352 279.139 132.145 279.395 132.145Z" fill="#8D9EB0"/>
<path id="Rectangle 145" fill-rule="evenodd" clip-rule="evenodd" d="M274.858 140.004C274.858 139.748 275.065 139.541 275.321 139.541H279.395C279.651 139.541 279.858 139.748 279.858 140.004C279.858 140.26 279.651 140.467 279.395 140.467H275.321C275.065 140.467 274.858 140.26 274.858 140.004Z" fill="#8D9EB0"/>
</g>
<g id="Group 3 Copy 4">
<g id="triangle_16">
<path id="Triangle 1_16" fill-rule="evenodd" clip-rule="evenodd" d="M279.714 113.777C279.549 114.204 278.946 114.204 278.781 113.777L276.997 109.153C276.871 108.825 277.113 108.473 277.464 108.473H281.032C281.383 108.473 281.624 108.825 281.498 109.153L279.714 113.777Z" fill="#8D9EB0"/>
</g>
<path id="Rectangle 144_8" fill-rule="evenodd" clip-rule="evenodd" d="M279.395 111.669C279.651 111.669 279.858 111.462 279.858 111.206V106.654C279.858 106.398 279.651 106.191 279.395 106.191C279.139 106.191 278.932 106.398 278.932 106.654V111.206C278.932 111.462 279.139 111.669 279.395 111.669Z" fill="#8D9EB0"/>
</g>
<path id="L1" fill-rule="evenodd" clip-rule="evenodd" d="M259.566 144.692H264.892V146.604H257.203V133.479H259.566V144.692ZM271.173 144.823H273.48V146.604H266.204V144.823H268.886V136.029L266.617 137.154L265.754 135.616L269.429 133.479H271.173V144.823Z" fill="#8D9EB0"/>
<g id="Group 32">
<path id="Vector 4" d="M190.355 126.221V121.802H203.804C208.108 121.802 208.971 116.849 208.864 114.372H214.5C214.543 114.65 214.602 116.319 214.5 120.777C214.397 125.234 211.041 126.263 209.376 126.221H190.355Z" fill="#D8D8D8" stroke="#979797" stroke-linejoin="round"/>
<path id="Vector 5" d="M269.642 126.221V121.802H256.192C251.889 121.802 251.026 116.849 251.133 114.372H245.497C245.454 114.65 245.394 116.319 245.497 120.777C245.599 125.234 248.955 126.263 250.62 126.221H269.642Z" fill="#D8D8D8" stroke="#979797" stroke-linejoin="round"/>
</g>
<rect id="Rectangle 18_2" x="196.032" y="53.917" width="70.8842" height="62.0962" fill="#585858" stroke="#505050"/>
</g>
</svg>
