<svg width="200" height="150" viewBox="0 0 200 150" fill="none" xmlns="http://www.w3.org/2000/svg">
<mask id="path-1-inside-1" fill="white">
<path fill-rule="evenodd" clip-rule="evenodd" d="M28.6701 129.363H21.5012V111.953H28.6701V129.363"/>
</mask>
<path fill-rule="evenodd" clip-rule="evenodd" d="M28.6701 129.363H21.5012V111.953H28.6701V129.363" fill="#D8D8D8"/>
<path d="M21.5012 129.363H20.5012V130.363H21.5012V129.363ZM21.5012 111.953V110.953H20.5012V111.953H21.5012ZM28.6701 111.953H29.6701V110.953H28.6701V111.953ZM28.6701 128.363H21.5012V130.363H28.6701V128.363ZM22.5012 129.363V111.953H20.5012V129.363H22.5012ZM21.5012 112.953H28.6701V110.953H21.5012V112.953ZM27.6701 111.953V129.363H29.6701V111.953H27.6701Z" fill="#979797" mask="url(#path-1-inside-1)"/>
<mask id="path-3-inside-2" fill="white">
<path fill-rule="evenodd" clip-rule="evenodd" d="M28.6701 57.3203H21.5012V39.9102H28.6701V57.3203"/>
</mask>
<path fill-rule="evenodd" clip-rule="evenodd" d="M28.6701 57.3203H21.5012V39.9102H28.6701V57.3203" fill="#D8D8D8"/>
<path d="M21.5012 57.3203H20.5012V58.3203H21.5012V57.3203ZM21.5012 39.9102V38.9102H20.5012V39.9102H21.5012ZM28.6701 39.9102H29.6701V38.9102H28.6701V39.9102ZM28.6701 56.3203H21.5012V58.3203H28.6701V56.3203ZM22.5012 57.3203V39.9102H20.5012V57.3203H22.5012ZM21.5012 40.9102H28.6701V38.9102H21.5012V40.9102ZM27.6701 39.9102V57.3203H29.6701V39.9102H27.6701Z" fill="#979797" mask="url(#path-3-inside-2)"/>
<mask id="path-5-inside-3" fill="white">
<path fill-rule="evenodd" clip-rule="evenodd" d="M54.2057 129.363H47.0368V111.953H54.2057V129.363"/>
</mask>
<path fill-rule="evenodd" clip-rule="evenodd" d="M54.2057 129.363H47.0368V111.953H54.2057V129.363" fill="#D8D8D8"/>
<path d="M47.0368 129.363H46.0368V130.363H47.0368V129.363ZM47.0368 111.953V110.953H46.0368V111.953H47.0368ZM54.2057 111.953H55.2057V110.953H54.2057V111.953ZM54.2057 128.363H47.0368V130.363H54.2057V128.363ZM48.0368 129.363V111.953H46.0368V129.363H48.0368ZM47.0368 112.953H54.2057V110.953H47.0368V112.953ZM53.2057 111.953V129.363H55.2057V111.953H53.2057Z" fill="#979797" mask="url(#path-5-inside-3)"/>
<mask id="path-7-inside-4" fill="white">
<path fill-rule="evenodd" clip-rule="evenodd" d="M54.2057 57.3203H47.0368V39.9102H54.2057V57.3203"/>
</mask>
<path fill-rule="evenodd" clip-rule="evenodd" d="M54.2057 57.3203H47.0368V39.9102H54.2057V57.3203" fill="#D8D8D8"/>
<path d="M47.0368 57.3203H46.0368V58.3203H47.0368V57.3203ZM47.0368 39.9102V38.9102H46.0368V39.9102H47.0368ZM54.2057 39.9102H55.2057V38.9102H54.2057V39.9102ZM54.2057 56.3203H47.0368V58.3203H54.2057V56.3203ZM48.0368 57.3203V39.9102H46.0368V57.3203H48.0368ZM47.0368 40.9102H54.2057V38.9102H47.0368V40.9102ZM53.2057 39.9102V57.3203H55.2057V39.9102H53.2057Z" fill="#979797" mask="url(#path-7-inside-4)"/>
<mask id="path-9-inside-5" fill="white">
<path fill-rule="evenodd" clip-rule="evenodd" d="M78.2058 129.363H71.0369V111.953H78.2058V129.363"/>
</mask>
<path fill-rule="evenodd" clip-rule="evenodd" d="M78.2058 129.363H71.0369V111.953H78.2058V129.363" fill="#D8D8D8"/>
<path d="M71.0369 129.363H70.0369V130.363H71.0369V129.363ZM71.0369 111.953V110.953H70.0369V111.953H71.0369ZM78.2058 111.953H79.2058V110.953H78.2058V111.953ZM78.2058 128.363H71.0369V130.363H78.2058V128.363ZM72.0369 129.363V111.953H70.0369V129.363H72.0369ZM71.0369 112.953H78.2058V110.953H71.0369V112.953ZM77.2058 111.953V129.363H79.2058V111.953H77.2058Z" fill="#979797" mask="url(#path-9-inside-5)"/>
<mask id="path-11-inside-6" fill="white">
<path fill-rule="evenodd" clip-rule="evenodd" d="M78.2058 57.3203H71.0369V39.9102H78.2058V57.3203"/>
</mask>
<path fill-rule="evenodd" clip-rule="evenodd" d="M78.2058 57.3203H71.0369V39.9102H78.2058V57.3203" fill="#D8D8D8"/>
<path d="M71.0369 57.3203H70.0369V58.3203H71.0369V57.3203ZM71.0369 39.9102V38.9102H70.0369V39.9102H71.0369ZM78.2058 39.9102H79.2058V38.9102H78.2058V39.9102ZM78.2058 56.3203H71.0369V58.3203H78.2058V56.3203ZM72.0369 57.3203V39.9102H70.0369V57.3203H72.0369ZM71.0369 40.9102H78.2058V38.9102H71.0369V40.9102ZM77.2058 39.9102V57.3203H79.2058V39.9102H77.2058Z" fill="#979797" mask="url(#path-11-inside-6)"/>
<rect x="7.94144" y="53.7012" width="83.8597" height="62.0962" fill="#585858" stroke="#505050"/>
<path d="M113.272 126.005V121.586H126.721C131.025 121.586 131.888 116.633 131.781 114.156H137.417C137.459 114.434 137.519 116.104 137.417 120.561C137.314 125.019 133.958 126.047 132.293 126.005H113.272Z" fill="#D8D8D8" stroke="#979797" stroke-linejoin="round"/>
<path d="M192.559 126.005V121.586H179.109C174.805 121.586 173.943 116.633 174.05 114.156H168.414C168.371 114.434 168.311 116.104 168.414 120.561C168.516 125.019 171.872 126.047 173.537 126.005H192.559Z" fill="#D8D8D8" stroke="#979797" stroke-linejoin="round"/>
<rect x="131.279" y="28.5" width="6.1944" height="57.0182" fill="#D8D8D8" stroke="#979797" stroke-linejoin="round"/>
<rect x="168.357" y="28.5" width="6.1944" height="57.0182" fill="#D8D8D8" stroke="#979797" stroke-linejoin="round"/>
<rect x="118.949" y="78.5" width="70.8842" height="37" fill="#585858" stroke="#505050"/>
<rect x="22.0857" y="68.25" width="6" height="6" fill="#D8D8D8" stroke="#979797"/>
<rect x="22.0857" y="95.5186" width="6" height="6" fill="#D8D8D8" stroke="#979797"/>
<rect x="47.8902" y="68.25" width="6" height="6" fill="#D8D8D8" stroke="#979797"/>
<rect x="47.8902" y="95.5186" width="6" height="6" fill="#D8D8D8" stroke="#979797"/>
<rect x="71.8902" y="68.25" width="6" height="6" fill="#D8D8D8" stroke="#979797"/>
<rect x="71.8902" y="95.5186" width="6" height="6" fill="#D8D8D8" stroke="#979797"/>
</svg>
