<svg width="290" height="176" viewBox="0 0 290 176" fill="none" xmlns="http://www.w3.org/2000/svg">
<path d="M156.265 87.0059C156.265 83.9969 154.752 82.3945 152.17 82.3945C149.535 82.3945 147.933 84.3352 147.933 86.899V87.8783C147.933 90.4421 149.571 92.3472 152.455 92.3472C153.826 92.3472 155.108 91.8308 155.909 91.2255L155.126 89.908C154.396 90.3175 153.63 90.6914 152.598 90.6914C150.96 90.6914 150.123 89.8902 150.087 88.0741H156.194C156.23 87.7893 156.265 87.3976 156.265 87.0059ZM154.289 86.632H150.087C150.123 84.9049 150.835 84.0147 152.188 84.0147C153.559 84.0147 154.289 84.9049 154.289 86.5429V86.632Z" fill="#8D9EB0"/>
<path d="M277.094 83.4546V81.7275H272.055H269.812V94.1906H270.025H277.094V92.4458H272.055V88.7247H276.702V86.9976H272.055V83.4546H277.094Z" fill="#8D9EB0"/>
<path d="M13.4998 104.616C12.4672 104.616 11.6482 104.972 11.0428 105.595V101.162H8.83508V114.337H10.5621L10.7401 113.518C11.3989 114.195 12.2179 114.569 13.2328 114.569C15.4049 114.569 17.0963 112.682 17.0963 110.064V109.103C17.0963 106.361 15.672 104.616 13.4998 104.616ZM14.8886 110.136C14.8886 111.952 14.0874 112.913 12.8589 112.913C12.1289 112.913 11.5235 112.628 11.0428 112.112V107.305C11.5235 106.699 12.2001 106.29 13.0547 106.29C14.2654 106.29 14.8886 107.18 14.8886 109.032V110.136Z" fill="#8D9EB0"/>
<path d="M132.431 133.669V123.022H130.187V135.486H130.259H137.487V133.669H132.431Z" fill="#8D9EB0"/>
<path d="M140.485 133.669C140.521 132.726 140.859 131.996 142.248 131.088L143.619 130.198C145.542 128.951 146.29 127.865 146.29 126.637V126.085C146.29 124.411 144.812 122.791 142.123 122.791C140.468 122.791 139.168 123.343 138.011 124.251L139.008 125.604C140.076 124.856 140.913 124.536 141.981 124.536C143.459 124.536 144.046 125.408 144.046 126.156V126.583C144.046 127.402 143.619 127.865 142.497 128.631L140.788 129.806C139.346 130.803 138.278 132.014 138.278 134.221V135.486H146.307V133.669H140.485Z" fill="#8D9EB0"/>
<path d="M217.843 131.59V135.881C217.238 135.329 216.525 135.044 215.6 135.044C213.303 135.044 211.736 136.931 211.736 139.531V140.528C211.736 143.234 213.285 144.997 215.493 144.997C216.65 144.997 217.469 144.498 218.092 143.732L218.324 144.765H220.051V131.59H217.843ZM215.884 143.341C214.692 143.341 213.944 142.451 213.944 140.563V139.477C213.944 137.679 214.709 136.717 215.973 136.717C216.792 136.717 217.451 137.074 217.843 137.501V142.237C217.344 142.913 216.757 143.341 215.884 143.341Z" fill="#8D9EB0"/>
<path d="M216.528 40.2959H214.694H212.451V52.759H213.964H216.083C219.679 52.759 221.602 50.7293 221.602 47.4889V45.2811C221.602 42.29 219.911 40.2959 216.528 40.2959ZM219.359 47.5245C219.359 49.8924 218.273 51.0319 216.101 51.0319H214.694V42.0229H216.421C218.397 42.0229 219.359 43.198 219.359 45.2277V47.5245Z" fill="#8D9EB0"/>
<path d="M71.5074 133.669V123.022H69.264V135.486H69.3353H76.5638V133.669H71.5074Z" fill="#8D9EB0"/>
<path d="M82.1875 133.794V123.022H80.5317L77.042 125.052L77.861 126.512L80.0154 125.444V133.794H77.4693V135.486H80.0154H84.3774V133.794H82.1875Z" fill="#8D9EB0"/>
<path d="M58.6265 61.7183V51.0713H56.3832V63.5344H56.4544H63.683V61.7183H58.6265Z" fill="#8D9EB0"/>
<path d="M68.6929 63.7658C71.3636 63.7658 73.3221 62.2702 73.3221 60.2762V59.475C73.3221 57.9438 71.8265 57.0002 70.7583 56.8221C71.8265 56.5728 72.8948 55.7004 72.8948 54.5788V53.8844C72.8948 52.0505 71.0609 50.8398 68.7642 50.8398C66.7879 50.8398 65.4347 51.6054 64.3665 52.6559L65.5594 53.8488C66.4674 53.012 67.3932 52.5135 68.5861 52.5135C69.7256 52.5135 70.7226 52.9408 70.7226 54.1337V54.5432C70.7226 55.8073 69.4941 56.1455 68.5505 56.1455H67.3932V57.7479H68.5505C69.4941 57.7479 71.0965 58.104 71.0965 59.653V60.0981C71.0965 61.5225 69.9393 62.0566 68.5683 62.0566C67.2152 62.0566 66.2359 61.4512 65.4704 60.6322L64.1884 61.8607C65.1321 62.929 66.3962 63.7658 68.6929 63.7658Z" fill="#8D9EB0"/>
<path d="M111.635 133.669V123.022H109.391V135.486H109.462H116.691V133.669H111.635Z" fill="#8D9EB0"/>
<path d="M26.441 112.888V105.9H40.6649C45.2814 105.9 47.9977 98.7225 48.8997 96.4173C50.7713 91.6342 53.7158 83.3165 57.0098 76.3297C60.3037 69.3429 67.5321 68.2613 70.7345 68.5939H115.402V76.3297C102.177 76.2881 74.7272 76.2299 70.7345 76.3297C66.7419 76.4295 64.5792 79.366 63.9969 80.8218C63.2483 82.9429 60.8028 88.0078 57.0098 97.7898C51.9063 110.951 47.2777 112.888 43.285 112.888H26.441Z" fill="#D8D8D8"/>
<path fill-rule="evenodd" clip-rule="evenodd" d="M70.7587 68.1188H115.402C115.664 68.1188 115.877 68.3313 115.877 68.5935V76.3293C115.877 76.4555 115.827 76.5765 115.737 76.6655C115.648 76.7546 115.527 76.8045 115.401 76.8041C102.169 76.7625 74.7302 76.7043 70.7463 76.8039C67.0135 76.8972 64.9845 79.6405 64.4411 80.9891C64.1462 81.8226 63.598 83.095 62.8269 84.885C62.5978 85.4168 62.349 85.9942 62.0814 86.6194C60.9037 89.3703 59.3463 93.0767 57.4524 97.961C54.8899 104.569 52.4247 108.421 50.0538 110.622C47.6582 112.846 45.3811 113.362 43.285 113.362H26.441C26.1788 113.362 25.9662 113.15 25.9662 112.888V105.9C25.9662 105.638 26.1788 105.425 26.441 105.425H40.6648C42.7142 105.425 44.4235 103.823 45.7785 101.762C47.0686 99.7994 47.9407 97.5668 48.4078 96.3712C48.4249 96.3273 48.4415 96.2849 48.4575 96.2439C48.8967 95.1216 49.3966 93.7999 49.9475 92.3434C51.7337 87.621 54.0559 81.4815 56.5803 76.1269C59.9866 68.9017 67.439 67.7834 70.7587 68.1188ZM70.6854 69.0657C67.5878 68.744 60.6122 69.8014 57.4391 76.5318C54.9327 81.8483 52.6314 87.9322 50.8462 92.6517C50.2919 94.1173 49.7873 95.4513 49.3418 96.5899C49.3244 96.6341 49.3064 96.6803 49.2877 96.7282C48.8214 97.9225 47.9182 100.235 46.5719 102.284C45.189 104.388 43.2319 106.375 40.6648 106.375H26.9157V112.413H43.285C45.1815 112.413 47.2151 111.961 49.4078 109.926C51.6252 107.868 54.0261 104.171 56.5671 97.6177C58.4662 92.7201 60.028 89.0031 61.2085 86.2457C61.4828 85.605 61.7358 85.0178 61.9671 84.4807C62.7362 82.6953 63.2667 81.4638 63.5492 80.6635C63.5513 80.6573 63.5536 80.6512 63.5561 80.6452C64.1825 79.079 66.4781 75.9608 70.7226 75.8547C74.6766 75.7559 101.536 75.8116 114.927 75.8531V69.0682H70.7345C70.7181 69.0682 70.7017 69.0674 70.6854 69.0657Z" fill="#979797"/>
<path d="M62.6394 112.761V105.774H76.988L88.2173 95.668H107.681V103.653H89.8393L79.8577 112.761H62.6394Z" fill="#D8D8D8"/>
<path fill-rule="evenodd" clip-rule="evenodd" d="M87.8997 95.3152C87.9869 95.2368 88.1001 95.1934 88.2173 95.1934H107.682C107.944 95.1934 108.156 95.4059 108.156 95.6681V103.653C108.156 103.915 107.944 104.128 107.682 104.128H90.0234L80.1777 113.112C80.0903 113.192 79.9761 113.236 79.8577 113.236H62.6394C62.3772 113.236 62.1647 113.024 62.1647 112.761V105.775C62.1647 105.512 62.3772 105.3 62.6394 105.3H76.8058L87.8997 95.3152ZM88.3995 96.1429L77.3056 106.127C77.2184 106.206 77.1053 106.249 76.988 106.249H63.1142V112.287H79.6737L89.5193 103.303C89.6068 103.223 89.7209 103.178 89.8393 103.178H107.207V96.1429H88.3995Z" fill="#979797"/>
<path d="M125.886 104.898V97.2874H147.678V104.898H125.886Z" fill="#D8D8D8"/>
<path d="M125.886 76.5786V68.9678H147.678V76.5786H125.886Z" fill="#D8D8D8"/>
<path fill-rule="evenodd" clip-rule="evenodd" d="M125.411 68.9679C125.411 68.7057 125.623 68.4932 125.886 68.4932H147.678C147.94 68.4932 148.153 68.7057 148.153 68.9679V76.5787C148.153 76.8409 147.94 77.0535 147.678 77.0535H125.886C125.623 77.0535 125.411 76.8409 125.411 76.5787V68.9679ZM126.36 69.4427V76.104H147.203V69.4427H126.36ZM125.411 97.2875C125.411 97.0253 125.623 96.8128 125.886 96.8128H147.678C147.94 96.8128 148.153 97.0253 148.153 97.2875V104.898C148.153 105.16 147.94 105.373 147.678 105.373H125.886C125.623 105.373 125.411 105.16 125.411 104.898V97.2875ZM126.36 97.7622V104.424H147.203V97.7622H126.36Z" fill="#979797"/>
<path d="M96.5646 55.1182H126.884V112.888H96.5646V55.1182Z" fill="#585858"/>
<path fill-rule="evenodd" clip-rule="evenodd" d="M125.934 56.0677H97.5141V111.938H125.934V56.0677ZM96.5646 55.1182V112.888H126.884V55.1182H96.5646Z" fill="#505050"/>
<path d="M164.993 57.6582H267.408V120.096H164.993V57.6582Z" fill="#585858"/>
<path fill-rule="evenodd" clip-rule="evenodd" d="M266.459 58.6077H165.943V119.146H266.459V58.6077ZM164.993 57.6582V120.096H267.408V57.6582H164.993Z" fill="#505050"/>
<path d="M184.011 73.083H189.708V78.78H184.011V73.083Z" fill="#D8D8D8"/>
<path fill-rule="evenodd" clip-rule="evenodd" d="M183.536 72.6084H190.182V79.2549H183.536V72.6084ZM184.485 73.5579V78.3054H189.233V73.5579H184.485Z" fill="#979797"/>
<path d="M184.011 98.9746H189.708V104.672H184.011V98.9746Z" fill="#D8D8D8"/>
<path fill-rule="evenodd" clip-rule="evenodd" d="M183.536 98.5H190.182V105.146H183.536V98.5ZM184.485 99.4495V104.197H189.233V99.4495H184.485Z" fill="#979797"/>
<path d="M204.714 73.083H210.411V78.78H204.714V73.083Z" fill="#D8D8D8"/>
<path fill-rule="evenodd" clip-rule="evenodd" d="M204.239 72.6084H210.886V79.2549H204.239V72.6084ZM205.189 73.5579V78.3054H209.936V73.5579H205.189Z" fill="#979797"/>
<path d="M204.714 98.9746H210.411V104.672H204.714V98.9746Z" fill="#D8D8D8"/>
<path fill-rule="evenodd" clip-rule="evenodd" d="M204.239 98.5H210.886V105.146H204.239V98.5ZM205.189 99.4495V104.197H209.936V99.4495H205.189Z" fill="#979797"/>
<path d="M223.704 73.083H229.401V78.78H223.704V73.083Z" fill="#D8D8D8"/>
<path fill-rule="evenodd" clip-rule="evenodd" d="M223.229 72.6084H229.875V79.2549H223.229V72.6084ZM224.178 73.5579V78.3054H228.926V73.5579H224.178Z" fill="#979797"/>
<path d="M242.694 73.083H248.391V78.78H242.694V73.083Z" fill="#D8D8D8"/>
<path fill-rule="evenodd" clip-rule="evenodd" d="M242.219 72.6084H248.865V79.2549H242.219V72.6084ZM243.168 73.5579V78.3054H247.916V73.5579H243.168Z" fill="#979797"/>
<path d="M223.704 98.9746H229.401V104.672H223.704V98.9746Z" fill="#D8D8D8"/>
<path fill-rule="evenodd" clip-rule="evenodd" d="M223.229 98.5H229.875V105.146H223.229V98.5ZM224.178 99.4495V104.197H228.926V99.4495H224.178Z" fill="#979797"/>
<path d="M242.694 98.9746H248.391V104.672H242.694V98.9746Z" fill="#D8D8D8"/>
<path fill-rule="evenodd" clip-rule="evenodd" d="M242.219 98.5H248.865V105.146H242.219V98.5ZM243.168 99.4495V104.197H247.916V99.4495H243.168Z" fill="#979797"/>
<path fill-rule="evenodd" clip-rule="evenodd" d="M25.4915 105.48C25.7537 105.48 25.9662 105.693 25.9662 105.955V105.955C25.9662 106.217 25.7537 106.43 25.4915 106.43L19.6478 106.43C19.3856 106.43 19.1731 106.217 19.1731 105.955V105.955C19.1731 105.693 19.3856 105.48 19.6478 105.48L25.4915 105.48Z" fill="#8D9EB0"/>
<path fill-rule="evenodd" clip-rule="evenodd" d="M25.4915 112.287C25.7537 112.287 25.9662 112.5 25.9662 112.762V112.762C25.9662 113.024 25.7537 113.237 25.4915 113.237L19.6478 113.237C19.3856 113.237 19.1731 113.024 19.1731 112.762V112.762C19.1731 112.5 19.3856 112.287 19.6478 112.287L25.4915 112.287Z" fill="#8D9EB0"/>
<path fill-rule="evenodd" clip-rule="evenodd" d="M22.3365 114.549C22.1802 114.144 21.6069 114.144 21.4506 114.549L19.7568 118.939C19.6368 119.25 19.8663 119.585 20.1997 119.585L23.5874 119.585C23.9207 119.585 24.1503 119.25 24.0303 118.939L22.3365 114.549Z" fill="#8D9EB0"/>
<path d="M21.8933 116.69C22.1555 116.69 22.368 116.903 22.368 117.165L22.368 124.761C22.368 125.023 22.1555 125.236 21.8933 125.236V125.236C21.6311 125.236 21.4185 125.023 21.4185 124.761L21.4185 117.165C21.4185 116.903 21.6311 116.69 21.8933 116.69V116.69Z" fill="#8D9EB0"/>
<path fill-rule="evenodd" clip-rule="evenodd" d="M21.4488 104.167C21.6051 104.572 22.1784 104.572 22.3347 104.167L24.0285 99.7765C24.1485 99.4655 23.9189 99.1309 23.5856 99.1309L20.1979 99.1309C19.8645 99.1309 19.635 99.4655 19.755 99.7765L21.4488 104.167Z" fill="#8D9EB0"/>
<path fill-rule="evenodd" clip-rule="evenodd" d="M21.4172 101.56L21.4172 93.9981C21.4172 93.763 21.6012 93.5686 21.8272 93.5369C21.8701 93.5309 21.9136 93.5325 21.9563 93.5397C22.086 93.5619 22.3667 93.65 22.3667 93.9981L22.3667 101.56C22.3667 101.817 22.1465 102.025 21.892 102.025C21.6298 102.025 21.4172 101.821 21.4172 101.56Z" fill="#8D9EB0"/>
<path fill-rule="evenodd" clip-rule="evenodd" d="M127.769 118.296C127.364 118.453 127.364 119.026 127.769 119.182L132.159 120.876C132.47 120.996 132.805 120.767 132.805 120.433V117.046C132.805 116.712 132.47 116.483 132.159 116.603L127.769 118.296Z" fill="#8D9EB0"/>
<path d="M129.91 118.739C129.91 118.477 130.123 118.265 130.385 118.265H144.077C144.34 118.265 144.552 118.477 144.552 118.739V118.739C144.552 119.002 144.34 119.214 144.077 119.214H130.385C130.123 119.214 129.91 119.002 129.91 118.739V118.739Z" fill="#8D9EB0"/>
<path fill-rule="evenodd" clip-rule="evenodd" d="M209.039 127.575C208.634 127.731 208.634 128.304 209.039 128.461L213.43 130.154C213.741 130.274 214.075 130.045 214.075 129.711V126.324C214.075 125.99 213.741 125.761 213.43 125.881L209.039 127.575Z" fill="#8D9EB0"/>
<path d="M211.181 128.017C211.181 127.755 211.393 127.542 211.656 127.542H225.015C225.277 127.542 225.49 127.755 225.49 128.017V128.017C225.49 128.279 225.277 128.491 225.015 128.491H211.656C211.393 128.491 211.181 128.279 211.181 128.017V128.017Z" fill="#8D9EB0"/>
<path fill-rule="evenodd" clip-rule="evenodd" d="M167.956 47.2652C167.551 47.4215 167.551 47.9947 167.956 48.151L172.346 49.8448C172.657 49.9648 172.992 49.7353 172.992 49.4019V46.0143C172.992 45.6809 172.657 45.4513 172.346 45.5713L167.956 47.2652Z" fill="#8D9EB0"/>
<path d="M170.097 47.7091C170.097 47.4469 170.31 47.2344 170.572 47.2344H206.231C206.493 47.2344 206.706 47.4469 206.706 47.7091V47.7091C206.706 47.9713 206.493 48.1839 206.231 48.1839H170.572C170.31 48.1839 170.097 47.9713 170.097 47.7091V47.7091Z" fill="#8D9EB0"/>
<path fill-rule="evenodd" clip-rule="evenodd" d="M63.1603 118.296C62.7552 118.453 62.7552 119.026 63.1603 119.182L67.5507 120.876C67.8617 120.996 68.1963 120.767 68.1963 120.433V117.046C68.1963 116.712 67.8617 116.483 67.5507 116.603L63.1603 118.296Z" fill="#8D9EB0"/>
<path d="M65.236 118.74C65.236 118.478 65.4485 118.266 65.7107 118.266H91.2686C91.5308 118.266 91.7434 118.478 91.7434 118.74V118.74C91.7434 119.003 91.5308 119.215 91.2686 119.215H65.7107C65.4485 119.215 65.236 119.003 65.236 118.74V118.74Z" fill="#8D9EB0"/>
<path fill-rule="evenodd" clip-rule="evenodd" d="M28.9785 56.9185C28.5733 57.0748 28.5733 57.648 28.9785 57.8043L33.3688 59.4982C33.6799 59.6182 34.0145 59.3886 34.0145 59.0552V55.6676C34.0145 55.3342 33.6799 55.1047 33.3688 55.2247L28.9785 56.9185Z" fill="#8D9EB0"/>
<path d="M31.0541 57.3634C31.0541 57.1012 31.2666 56.8887 31.5288 56.8887H52.4065C52.6687 56.8887 52.8813 57.1012 52.8813 57.3634V57.3634C52.8813 57.6256 52.6687 57.8382 52.4065 57.8382H31.5288C31.2666 57.8382 31.0541 57.6256 31.0541 57.3634V57.3634Z" fill="#8D9EB0"/>
<path d="M75.9176 57.3615C75.9176 57.0993 76.1302 56.8867 76.3924 56.8867H91.6173C91.8795 56.8867 92.092 57.0993 92.092 57.3615V57.3615C92.092 57.6237 91.8795 57.8362 91.6173 57.8362H76.3924C76.1302 57.8362 75.9176 57.6237 75.9176 57.3615V57.3615Z" fill="#8D9EB0"/>
<path fill-rule="evenodd" clip-rule="evenodd" d="M98.3991 118.296C97.994 118.453 97.994 119.026 98.3991 119.182L102.789 120.876C103.1 120.996 103.435 120.767 103.435 120.433V117.046C103.435 116.712 103.1 116.483 102.789 116.603L98.3991 118.296Z" fill="#8D9EB0"/>
<path d="M100.54 118.739C100.54 118.477 100.753 118.265 101.015 118.265H120.284C120.547 118.265 120.759 118.477 120.759 118.739V118.739C120.759 119.002 120.547 119.214 120.284 119.214H101.015C100.753 119.214 100.54 119.002 100.54 118.739V118.739Z" fill="#8D9EB0"/>
<path fill-rule="evenodd" clip-rule="evenodd" d="M95.5693 119.182C95.9745 119.026 95.9745 118.453 95.5693 118.296L91.179 116.602C90.8679 116.482 90.5333 116.712 90.5333 117.045V120.433C90.5333 120.766 90.8679 120.996 91.179 120.876L95.5693 119.182Z" fill="#8D9EB0"/>
<path fill-rule="evenodd" clip-rule="evenodd" d="M92.9622 119.215H85.4005C85.1654 119.215 84.971 119.031 84.9393 118.805C84.9333 118.762 84.9349 118.719 84.9421 118.676C84.9643 118.546 85.0524 118.266 85.4005 118.266H92.9622C93.2194 118.266 93.4279 118.486 93.4279 118.74C93.4279 119.003 93.2237 119.215 92.9622 119.215Z" fill="#8D9EB0"/>
<path fill-rule="evenodd" clip-rule="evenodd" d="M146.922 119.182C147.327 119.026 147.327 118.453 146.922 118.296L142.532 116.602C142.221 116.482 141.886 116.712 141.886 117.045V120.433C141.886 120.766 142.221 120.996 142.532 120.876L146.922 119.182Z" fill="#8D9EB0"/>
<path fill-rule="evenodd" clip-rule="evenodd" d="M225.68 128.462C226.086 128.306 226.086 127.733 225.68 127.577L221.29 125.883C220.979 125.763 220.644 125.992 220.644 126.326V129.713C220.644 130.047 220.979 130.276 221.29 130.156L225.68 128.462Z" fill="#8D9EB0"/>
<path fill-rule="evenodd" clip-rule="evenodd" d="M95.408 57.8052C95.8132 57.6488 95.8132 57.0756 95.4081 56.9193L91.0177 55.2255C90.7067 55.1055 90.3721 55.335 90.3721 55.6684V59.0561C90.3721 59.3894 90.7067 59.619 91.0177 59.499L95.408 57.8052Z" fill="#8D9EB0"/>
<path fill-rule="evenodd" clip-rule="evenodd" d="M124.939 119.182C125.344 119.026 125.344 118.453 124.939 118.296L120.549 116.602C120.238 116.482 119.903 116.712 119.903 117.045V120.433C119.903 120.766 120.238 120.996 120.549 120.876L124.939 119.182Z" fill="#8D9EB0"/>
<path fill-rule="evenodd" clip-rule="evenodd" d="M122.332 119.215H114.77C114.535 119.215 114.341 119.031 114.309 118.805C114.303 118.762 114.305 118.719 114.312 118.676C114.334 118.546 114.422 118.266 114.77 118.266H122.332C122.589 118.266 122.798 118.486 122.798 118.74C122.798 119.003 122.593 119.215 122.332 119.215Z" fill="#8D9EB0"/>
<path fill-rule="evenodd" clip-rule="evenodd" d="M125.934 113.362C125.934 113.1 126.147 112.888 126.409 112.888V112.888C126.671 112.888 126.884 113.1 126.884 113.362V122.771C126.884 123.033 126.671 123.245 126.409 123.245V123.245C126.147 123.245 125.934 123.033 125.934 122.771V113.362Z" fill="#8D9EB0"/>
<path fill-rule="evenodd" clip-rule="evenodd" d="M207.205 105.791C207.205 105.529 207.417 105.316 207.68 105.316V105.316C207.942 105.316 208.154 105.529 208.154 105.791V131.092C208.154 131.354 207.942 131.567 207.68 131.567V131.567C207.417 131.567 207.205 131.354 207.205 131.092V105.791Z" fill="#8D9EB0"/>
<path fill-rule="evenodd" clip-rule="evenodd" d="M164.993 41.38C164.993 41.1178 165.206 40.9053 165.468 40.9053V40.9053C165.73 40.9053 165.943 41.1178 165.943 41.38V57.1177C165.943 57.3799 165.73 57.5924 165.468 57.5924V57.5924C165.206 57.5924 164.993 57.3799 164.993 57.1177V41.38Z" fill="#8D9EB0"/>
<path fill-rule="evenodd" clip-rule="evenodd" d="M266.459 41.38C266.459 41.1178 266.671 40.9053 266.933 40.9053V40.9053C267.196 40.9053 267.408 41.1178 267.408 41.38V57.1177C267.408 57.3799 267.196 57.5924 266.933 57.5924V57.5924C266.671 57.5924 266.459 57.3799 266.459 57.1177V41.38Z" fill="#8D9EB0"/>
<path fill-rule="evenodd" clip-rule="evenodd" d="M96.5646 113.362C96.5646 113.1 96.7771 112.888 97.0393 112.888V112.888C97.3015 112.888 97.5141 113.1 97.5141 113.362V122.771C97.5141 123.033 97.3015 123.245 97.0393 123.245V123.245C96.7771 123.245 96.5646 123.033 96.5646 122.771V113.362Z" fill="#8D9EB0"/>
<path fill-rule="evenodd" clip-rule="evenodd" d="M62.2753 113.362C62.2753 113.1 62.4878 112.888 62.75 112.888V112.888C63.0122 112.888 63.2248 113.1 63.2248 113.362V122.771C63.2248 123.033 63.0122 123.245 62.75 123.245V123.245C62.4878 123.245 62.2753 123.033 62.2753 122.771V113.362Z" fill="#8D9EB0"/>
<path fill-rule="evenodd" clip-rule="evenodd" d="M147.096 105.902C147.096 105.64 147.309 105.428 147.571 105.428V105.428C147.833 105.428 148.046 105.64 148.046 105.902V122.77C148.046 123.033 147.833 123.245 147.571 123.245V123.245C147.309 123.245 147.096 123.033 147.096 122.77V105.902Z" fill="#8D9EB0"/>
<path fill-rule="evenodd" clip-rule="evenodd" d="M226.124 105.791C226.124 105.529 226.336 105.316 226.599 105.316V105.316C226.861 105.316 227.073 105.529 227.073 105.791V131.092C227.073 131.354 226.861 131.567 226.599 131.567V131.567C226.336 131.567 226.124 131.354 226.124 131.092V105.791Z" fill="#8D9EB0"/>
<path fill-rule="evenodd" clip-rule="evenodd" d="M25.9662 55.5929C25.9662 55.3307 26.1788 55.1182 26.441 55.1182V55.1182C26.7032 55.1182 26.9157 55.3307 26.9157 55.5929V104.578C26.9157 104.84 26.7032 105.052 26.441 105.052V105.052C26.1788 105.052 25.9662 104.84 25.9662 104.578V55.5929Z" fill="#8D9EB0"/>
<path fill-rule="evenodd" clip-rule="evenodd" d="M147.789 101.368C147.789 101.106 148.002 100.894 148.264 100.894H156.372C156.635 100.894 156.847 101.106 156.847 101.368V101.368C156.847 101.63 156.635 101.843 156.372 101.843H148.264C148.002 101.843 147.789 101.63 147.789 101.368V101.368Z" fill="#8D9EB0"/>
<path fill-rule="evenodd" clip-rule="evenodd" d="M267.643 119.62C267.643 119.358 267.855 119.146 268.118 119.146H279.925C280.187 119.146 280.399 119.358 280.399 119.62V119.62C280.399 119.882 280.187 120.095 279.925 120.095H268.118C267.855 120.095 267.643 119.882 267.643 119.62V119.62Z" fill="#8D9EB0"/>
<path fill-rule="evenodd" clip-rule="evenodd" d="M147.807 72.6515C147.807 72.3893 148.02 72.1768 148.282 72.1768H156.372C156.635 72.1768 156.847 72.3892 156.847 72.6513V72.6513C156.847 72.9136 156.635 73.1263 156.372 73.1263H148.282C148.02 73.1263 147.807 72.9137 147.807 72.6515V72.6515Z" fill="#8D9EB0"/>
<path fill-rule="evenodd" clip-rule="evenodd" d="M267.643 58.133C267.643 57.8708 267.855 57.6582 268.118 57.6582H279.899C280.161 57.6582 280.374 57.8706 280.374 58.1327V58.1327C280.374 58.395 280.162 58.6077 279.899 58.6077H268.118C267.855 58.6077 267.643 58.3951 267.643 58.133V58.133Z" fill="#8D9EB0"/>
<path fill-rule="evenodd" clip-rule="evenodd" d="M151.42 74.0099C151.576 73.6048 152.15 73.6048 152.306 74.0099L154 78.4003C154.12 78.7113 153.89 79.0459 153.557 79.0459H150.169C149.836 79.0459 149.606 78.7113 149.726 78.4003L151.42 74.0099Z" fill="#8D9EB0"/>
<path fill-rule="evenodd" clip-rule="evenodd" d="M273.196 61.0802C273.352 60.6751 273.925 60.6751 274.082 61.0802L275.776 65.4706C275.896 65.7816 275.666 66.1162 275.333 66.1162H271.945C271.612 66.1162 271.382 65.7816 271.502 65.4706L273.196 61.0802Z" fill="#8D9EB0"/>
<path fill-rule="evenodd" clip-rule="evenodd" d="M273.164 63.6964C273.164 63.4342 273.377 63.2217 273.639 63.2217V63.2217C273.901 63.2217 274.114 63.4342 274.114 63.6964V78.3042C274.114 78.5664 273.901 78.7789 273.639 78.7789V78.7789C273.377 78.7789 273.164 78.5664 273.164 78.3042V63.6964Z" fill="#8D9EB0"/>
<path fill-rule="evenodd" clip-rule="evenodd" d="M273.164 98.0119C273.164 97.7497 273.377 97.5371 273.639 97.5371V97.5371C273.901 97.5371 274.114 97.7497 274.114 98.0119V112.62C274.114 112.882 273.901 113.094 273.639 113.094V113.094C273.377 113.094 273.164 112.882 273.164 112.62V98.0119Z" fill="#8D9EB0"/>
<path fill-rule="evenodd" clip-rule="evenodd" d="M151.419 100.008C151.576 100.413 152.149 100.413 152.305 100.008L153.999 95.6173C154.119 95.3063 153.89 94.9717 153.556 94.9717H150.169C149.835 94.9717 149.606 95.3063 149.726 95.6173L151.419 100.008Z" fill="#8D9EB0"/>
<path fill-rule="evenodd" clip-rule="evenodd" d="M273.196 116.751C273.352 117.156 273.925 117.156 274.082 116.751L275.776 112.36C275.896 112.049 275.666 111.715 275.333 111.715H271.945C271.612 111.715 271.382 112.049 271.502 112.36L273.196 116.751Z" fill="#8D9EB0"/>
<path fill-rule="evenodd" clip-rule="evenodd" d="M265.574 48.1528C265.979 47.9965 265.979 47.4233 265.574 47.267L261.183 45.5731C260.872 45.4531 260.538 45.6827 260.538 46.0161V49.4037C260.538 49.7371 260.872 49.9666 261.183 49.8466L265.574 48.1528Z" fill="#8D9EB0"/>
<path d="M227.073 47.7091C227.073 47.4469 227.286 47.2344 227.548 47.2344H261.932C262.194 47.2344 262.406 47.4469 262.406 47.7091V47.7091C262.406 47.9713 262.194 48.1839 261.932 48.1839H227.548C227.286 48.1839 227.073 47.9713 227.073 47.7091V47.7091Z" fill="#8D9EB0"/>
</svg>
