<svg width="290" height="175" viewBox="0 0 290 175" fill="none" xmlns="http://www.w3.org/2000/svg">
<rect x="67.7405" y="19.2024" width="15.8311" height="44.9936" fill="#D8D8D8" stroke="#989898" stroke-width="0.694346"/>
<rect x="219.108" y="142.657" width="15.8311" height="44.9936" transform="rotate(-180 219.108 142.657)" fill="#D8D8D8" stroke="#989898" stroke-width="0.694346"/>
<rect x="121.899" y="19.2024" width="15.8311" height="44.9936" fill="#D8D8D8" stroke="#989898" stroke-width="0.694346"/>
<rect x="164.949" y="142.657" width="15.8311" height="44.9936" transform="rotate(-180 164.949 142.657)" fill="#D8D8D8" stroke="#989898" stroke-width="0.694346"/>
<rect x="176.058" y="19.2024" width="15.8311" height="44.9936" fill="#D8D8D8" stroke="#989898" stroke-width="0.694346"/>
<rect x="110.79" y="142.657" width="15.8311" height="44.9936" transform="rotate(-180 110.79 142.657)" fill="#D8D8D8" stroke="#989898" stroke-width="0.694346"/>
<rect x="94.9589" y="19.2024" width="15.8311" height="44.9936" fill="#D8D8D8" stroke="#989898" stroke-width="0.694346"/>
<rect x="191.89" y="142.657" width="15.8311" height="44.9936" transform="rotate(-180 191.89 142.657)" fill="#D8D8D8" stroke="#989898" stroke-width="0.694346"/>
<rect x="149.118" y="19.2024" width="15.8311" height="44.9936" fill="#D8D8D8" stroke="#989898" stroke-width="0.694346"/>
<rect x="137.731" y="142.657" width="15.8311" height="44.9936" transform="rotate(-180 137.731 142.657)" fill="#D8D8D8" stroke="#989898" stroke-width="0.694346"/>
<rect x="203.277" y="19.2024" width="15.8311" height="44.9936" fill="#D8D8D8" stroke="#989898" stroke-width="0.694346"/>
<rect x="83.5715" y="142.657" width="15.8311" height="44.9936" transform="rotate(-180 83.5715 142.657)" fill="#D8D8D8" stroke="#989898" stroke-width="0.694346"/>
<path d="M66.699 19.5496H50.729" stroke="#A9B6C3" stroke-width="0.694346"/>
<path d="M231.434 19.0757H220.699" stroke="#A9B6C3" stroke-width="0.694346"/>
<path d="M231.434 142.906H220.699" stroke="#A9B6C3" stroke-width="0.694346"/>
<path d="M66.699 63.9878H50.729" stroke="#A9B6C3" stroke-width="0.694346"/>
<path d="M67.3933 80.6521L67.3933 96.6221" stroke="#A9B6C3" stroke-width="0.694346"/>
<path d="M84.0576 80.6521L84.0576 96.6221" stroke="#A9B6C3" stroke-width="0.694346"/>
<path d="M58.1765 37.6522H56.6267V45.5761C56.6267 46.5634 57.2392 47.0634 58.164 47.0634C58.514 47.0634 58.8014 46.9884 59.0514 46.9009L58.8889 45.8385C58.7889 45.851 58.7015 45.8635 58.6265 45.8635C58.289 45.8635 58.1765 45.7135 58.1765 45.3511V37.6522Z" fill="#8D9EB0"/>
<path d="M54.3959 110.613C55.1957 110.613 56.0206 110.288 56.5706 109.825L55.9331 108.913C55.5207 109.2 55.0833 109.45 54.4708 109.45C53.471 109.45 52.9211 108.775 52.9211 107.426V106.813C52.9211 105.451 53.5085 104.801 54.4833 104.801C55.0708 104.801 55.4707 104.963 55.8831 105.326L56.6205 104.501C56.0081 103.914 55.3207 103.626 54.4209 103.626C52.4586 103.626 51.3713 104.913 51.3713 106.838V107.401C51.3713 109.325 52.4836 110.613 54.3959 110.613Z" fill="#8D9EB0"/>
<path d="M228.818 77.9764H224.081V79.1513H227.156L223.919 83.5006V84.6255H228.906V83.4382H225.581L228.818 79.0638V77.9764Z" fill="#8D9EB0"/>
<path d="M57.6725 21.6326L59.7555 27.8817L55.5894 27.8817L57.6725 21.6326Z" fill="#8D9EB0"/>
<path d="M58.0196 27.8816L58.0196 33.4364L57.3252 33.4364L57.3252 27.8816L58.0196 27.8816Z" fill="#8D9EB0"/>
<path d="M64.6158 88.9841L58.3667 91.0671L58.3667 86.9011L64.6158 88.9841Z" fill="#8D9EB0"/>
<path d="M58.3668 89.3313L52.812 89.3313L52.812 88.637L58.3668 88.637L58.3668 89.3313Z" fill="#8D9EB0"/>
<path d="M86.4679 88.9842L92.717 86.9011V91.0672L86.4679 88.9842Z" fill="#8D9EB0"/>
<path d="M92.717 88.637H98.2718V89.3313H92.717V88.637Z" fill="#8D9EB0"/>
<path d="M52.8121 96.6221L52.8121 88.9843L53.5065 88.9843L53.5065 96.6221L52.8121 96.6221Z" fill="#8D9EB0"/>
<path d="M57.6724 61.9048L55.5894 55.6557L59.7554 55.6557L57.6724 61.9048Z" fill="#8D9EB0"/>
<path d="M57.3253 55.6558L57.3253 50.101L58.0196 50.101L58.0196 55.6558L57.3253 55.6558Z" fill="#8D9EB0"/>
<path d="M226.399 22.564L228.482 28.8131L224.316 28.8131L226.399 22.564Z" fill="#8D9EB0"/>
<path d="M226.746 28.813L226.746 70.4096L226.051 70.4096L226.051 28.813L226.746 28.813Z" fill="#8D9EB0"/>
<path d="M226.399 140.173L228.482 133.924L224.316 133.924L226.399 140.173Z" fill="#8D9EB0"/>
<path d="M226.746 133.924L226.746 92.3277L226.051 92.3277L226.051 133.924L226.746 133.924Z" fill="#8D9EB0"/>
<path d="M171.657 155.021V158.034C171.232 157.646 170.732 157.446 170.082 157.446C168.469 157.446 167.369 158.771 167.369 160.596V161.296C167.369 163.196 168.457 164.434 170.007 164.434C170.819 164.434 171.394 164.084 171.832 163.546L171.994 164.271H173.207V155.021H171.657ZM170.282 163.271C169.444 163.271 168.919 162.646 168.919 161.321V160.559C168.919 159.296 169.457 158.621 170.344 158.621C170.919 158.621 171.382 158.871 171.657 159.171V162.496C171.307 162.971 170.894 163.271 170.282 163.271Z" fill="#8D9EB0"/>
<path d="M157.757 151.213L163.23 149.271L163.23 153.114L157.757 151.213Z" fill="#8D9EB0"/>
<path d="M163.119 150.975L170.835 150.975L170.835 151.364L163.119 151.364L163.119 150.975Z" fill="#8D9EB0"/>
<path d="M182.974 151.213L177.502 149.271L177.502 153.114L182.974 151.213Z" fill="#8D9EB0"/>
<path d="M177.612 150.975L170.875 150.975L170.875 151.364L177.612 151.364L177.612 150.975Z" fill="#8D9EB0"/>
<path d="M157.033 158.749L157.033 143.854" stroke="#A9B6C3" stroke-width="0.756583" stroke-dasharray="8 8"/>
<path d="M183.974 158.749L183.974 143.854" stroke="#A9B6C3" stroke-width="0.756583" stroke-dasharray="8 8"/>
</svg>
