<svg width="291" height="176" viewBox="0 0 291 176" fill="none" xmlns="http://www.w3.org/2000/svg">
<path fill-rule="evenodd" clip-rule="evenodd" d="M30.8207 33.1555H282.5V166.5H30.8207V33.1555ZM78.1511 68.6716C78.1511 77.9555 70.625 85.4816 61.3412 85.4816C52.0573 85.4816 44.5312 77.9555 44.5312 68.6716C44.5312 59.3878 52.0573 51.8617 61.3412 51.8617C70.625 51.8617 78.1511 59.3878 78.1511 68.6716ZM124.942 85.4816C134.226 85.4816 141.752 77.9555 141.752 68.6716C141.752 59.3878 134.226 51.8617 124.942 51.8617C115.658 51.8617 108.132 59.3878 108.132 68.6716C108.132 77.9555 115.658 85.4816 124.942 85.4816ZM205.353 68.6716C205.353 77.9555 197.826 85.4816 188.543 85.4816C179.259 85.4816 171.733 77.9555 171.733 68.6716C171.733 59.3878 179.259 51.8617 188.543 51.8617C197.826 51.8617 205.353 59.3878 205.353 68.6716ZM252.143 85.4816C261.427 85.4816 268.953 77.9555 268.953 68.6716C268.953 59.3878 261.427 51.8617 252.143 51.8617C242.859 51.8617 235.333 59.3878 235.333 68.6716C235.333 77.9555 242.859 85.4816 252.143 85.4816ZM78.1511 132.498C78.1511 141.782 70.625 149.308 61.3412 149.308C52.0573 149.308 44.5312 141.782 44.5312 132.498C44.5312 123.214 52.0573 115.688 61.3412 115.688C70.625 115.688 78.1511 123.214 78.1511 132.498ZM124.942 149.308C134.226 149.308 141.752 141.782 141.752 132.498C141.752 123.214 134.226 115.688 124.942 115.688C115.658 115.688 108.132 123.214 108.132 132.498C108.132 141.782 115.658 149.308 124.942 149.308ZM205.353 132.498C205.353 141.782 197.826 149.308 188.543 149.308C179.259 149.308 171.733 141.782 171.733 132.498C171.733 123.214 179.259 115.688 188.543 115.688C197.826 115.688 205.353 123.214 205.353 132.498ZM252.143 149.308C261.427 149.308 268.953 141.782 268.953 132.498C268.953 123.214 261.427 115.688 252.143 115.688C242.859 115.688 235.333 123.214 235.333 132.498C235.333 141.782 242.859 149.308 252.143 149.308Z" fill="#F6F6F6"/>
<path fill-rule="evenodd" clip-rule="evenodd" d="M30.8207 33.1555H282.5V166.5H30.8207V33.1555ZM32.0235 165.297H281.297V34.3583H32.0235V165.297ZM79.3538 68.6716C79.3538 78.6197 71.2893 86.6843 61.3412 86.6843C51.3931 86.6843 43.3285 78.6197 43.3285 68.6716C43.3285 58.7235 51.3931 50.659 61.3412 50.659C71.2893 50.659 79.3538 58.7235 79.3538 68.6716ZM142.955 68.6716C142.955 78.6197 134.89 86.6843 124.942 86.6843C114.994 86.6843 106.929 78.6197 106.929 68.6716C106.929 58.7235 114.994 50.659 124.942 50.659C134.89 50.659 142.955 58.7235 142.955 68.6716ZM206.555 68.6716C206.555 78.6197 198.491 86.6843 188.543 86.6843C178.594 86.6843 170.53 78.6197 170.53 68.6716C170.53 58.7235 178.594 50.659 188.543 50.659C198.491 50.659 206.555 58.7235 206.555 68.6716ZM270.156 68.6716C270.156 78.6197 262.091 86.6843 252.143 86.6843C242.195 86.6843 234.131 78.6197 234.131 68.6716C234.131 58.7235 242.195 50.659 252.143 50.659C262.091 50.659 270.156 58.7235 270.156 68.6716ZM79.3538 132.498C79.3538 142.446 71.2893 150.511 61.3412 150.511C51.3931 150.511 43.3285 142.446 43.3285 132.498C43.3285 122.55 51.3931 114.485 61.3412 114.485C71.2893 114.485 79.3538 122.55 79.3538 132.498ZM142.955 132.498C142.955 142.446 134.89 150.511 124.942 150.511C114.994 150.511 106.929 142.446 106.929 132.498C106.929 122.55 114.994 114.485 124.942 114.485C134.89 114.485 142.955 122.55 142.955 132.498ZM206.555 132.498C206.555 142.446 198.491 150.511 188.543 150.511C178.594 150.511 170.53 142.446 170.53 132.498C170.53 122.55 178.594 114.485 188.543 114.485C198.491 114.485 206.555 122.55 206.555 132.498ZM270.156 132.498C270.156 142.446 262.091 150.511 252.143 150.511C242.195 150.511 234.131 142.446 234.131 132.498C234.131 122.55 242.195 114.485 252.143 114.485C262.091 114.485 270.156 122.55 270.156 132.498ZM61.3412 85.4816C70.625 85.4816 78.1511 77.9555 78.1511 68.6716C78.1511 59.3878 70.625 51.8617 61.3412 51.8617C52.0573 51.8617 44.5312 59.3878 44.5312 68.6716C44.5312 77.9555 52.0573 85.4816 61.3412 85.4816ZM141.752 68.6716C141.752 77.9555 134.226 85.4816 124.942 85.4816C115.658 85.4816 108.132 77.9555 108.132 68.6716C108.132 59.3878 115.658 51.8617 124.942 51.8617C134.226 51.8617 141.752 59.3878 141.752 68.6716ZM188.543 85.4816C197.826 85.4816 205.353 77.9555 205.353 68.6716C205.353 59.3878 197.826 51.8617 188.543 51.8617C179.259 51.8617 171.733 59.3878 171.733 68.6716C171.733 77.9555 179.259 85.4816 188.543 85.4816ZM268.953 68.6716C268.953 77.9555 261.427 85.4816 252.143 85.4816C242.859 85.4816 235.333 77.9555 235.333 68.6716C235.333 59.3878 242.859 51.8617 252.143 51.8617C261.427 51.8617 268.953 59.3878 268.953 68.6716ZM61.3412 149.308C70.625 149.308 78.1511 141.782 78.1511 132.498C78.1511 123.214 70.625 115.688 61.3412 115.688C52.0573 115.688 44.5312 123.214 44.5312 132.498C44.5312 141.782 52.0573 149.308 61.3412 149.308ZM141.752 132.498C141.752 141.782 134.226 149.308 124.942 149.308C115.658 149.308 108.132 141.782 108.132 132.498C108.132 123.214 115.658 115.688 124.942 115.688C134.226 115.688 141.752 123.214 141.752 132.498ZM188.543 149.308C197.826 149.308 205.353 141.782 205.353 132.498C205.353 123.214 197.826 115.688 188.543 115.688C179.259 115.688 171.733 123.214 171.733 132.498C171.733 141.782 179.259 149.308 188.543 149.308ZM268.953 132.498C268.953 141.782 261.427 149.308 252.143 149.308C242.859 149.308 235.333 141.782 235.333 132.498C235.333 123.214 242.859 115.688 252.143 115.688C261.427 115.688 268.953 123.214 268.953 132.498Z" fill="#989898"/>
<path fill-rule="evenodd" clip-rule="evenodd" d="M61.5052 89.7936C72.9971 89.7936 82.313 80.4776 82.313 68.9857C82.313 57.4939 72.9971 48.1779 61.5052 48.1779C50.0133 48.1779 40.6973 57.4939 40.6973 68.9857C40.6973 80.4776 50.0133 89.7936 61.5052 89.7936ZM61.5052 80.3839C67.8002 80.3839 72.9034 75.2807 72.9034 68.9857C72.9034 62.6907 67.8002 57.5875 61.5052 57.5875C55.2102 57.5875 50.1071 62.6907 50.1071 68.9857C50.1071 75.2807 55.2102 80.3839 61.5052 80.3839Z" fill="#D8D8D8"/>
<path fill-rule="evenodd" clip-rule="evenodd" d="M61.5052 88.4716C72.2669 88.4716 80.991 79.7474 80.991 68.9857C80.991 58.224 72.2669 49.4999 61.5052 49.4999C50.7435 49.4999 42.0194 58.224 42.0194 68.9857C42.0194 79.7474 50.7435 88.4716 61.5052 88.4716ZM74.2254 68.9857C74.2254 76.0109 68.5304 81.7059 61.5052 81.7059C54.48 81.7059 48.785 76.0109 48.785 68.9857C48.785 61.9605 54.48 56.2655 61.5052 56.2655C68.5304 56.2655 74.2254 61.9605 74.2254 68.9857ZM82.313 68.9857C82.313 80.4776 72.9971 89.7936 61.5052 89.7936C50.0133 89.7936 40.6973 80.4776 40.6973 68.9857C40.6973 57.4939 50.0133 48.1779 61.5052 48.1779C72.9971 48.1779 82.313 57.4939 82.313 68.9857ZM72.9034 68.9857C72.9034 75.2807 67.8002 80.3839 61.5052 80.3839C55.2102 80.3839 50.1071 75.2807 50.1071 68.9857C50.1071 62.6907 55.2102 57.5875 61.5052 57.5875C67.8002 57.5875 72.9034 62.6907 72.9034 68.9857Z" fill="#989898"/>
<path fill-rule="evenodd" clip-rule="evenodd" d="M61.5051 153.306C72.997 153.306 82.313 143.99 82.313 132.498C82.313 121.006 72.997 111.69 61.5051 111.69C50.0133 111.69 40.6973 121.006 40.6973 132.498C40.6973 143.99 50.0133 153.306 61.5051 153.306ZM61.5051 143.896C67.8002 143.896 72.9033 138.793 72.9033 132.498C72.9033 126.203 67.8002 121.1 61.5051 121.1C55.2101 121.1 50.107 126.203 50.107 132.498C50.107 138.793 55.2101 143.896 61.5051 143.896Z" fill="#D8D8D8"/>
<path fill-rule="evenodd" clip-rule="evenodd" d="M61.5051 151.984C72.2669 151.984 80.991 143.26 80.991 132.498C80.991 121.736 72.2669 113.012 61.5051 113.012C50.7434 113.012 42.0193 121.736 42.0193 132.498C42.0193 143.26 50.7434 151.984 61.5051 151.984ZM74.2253 132.498C74.2253 139.523 68.5303 145.218 61.5051 145.218C54.48 145.218 48.785 139.523 48.785 132.498C48.785 125.473 54.48 119.778 61.5051 119.778C68.5303 119.778 74.2253 125.473 74.2253 132.498ZM82.313 132.498C82.313 143.99 72.997 153.306 61.5051 153.306C50.0133 153.306 40.6973 143.99 40.6973 132.498C40.6973 121.006 50.0133 111.69 61.5051 111.69C72.997 111.69 82.313 121.006 82.313 132.498ZM72.9033 132.498C72.9033 138.793 67.8002 143.896 61.5051 143.896C55.2101 143.896 50.107 138.793 50.107 132.498C50.107 126.203 55.2101 121.1 61.5051 121.1C67.8002 121.1 72.9033 126.203 72.9033 132.498Z" fill="#989898"/>
<path fill-rule="evenodd" clip-rule="evenodd" d="M124.942 89.7936C136.434 89.7936 145.75 80.4776 145.75 68.9857C145.75 57.4939 136.434 48.1779 124.942 48.1779C113.45 48.1779 104.134 57.4939 104.134 68.9857C104.134 80.4776 113.45 89.7936 124.942 89.7936ZM124.942 80.3838C131.237 80.3838 136.34 75.2807 136.34 68.9857C136.34 62.6907 131.237 57.5875 124.942 57.5875C118.647 57.5875 113.544 62.6907 113.544 68.9857C113.544 75.2807 118.647 80.3838 124.942 80.3838Z" fill="#D8D8D8"/>
<path fill-rule="evenodd" clip-rule="evenodd" d="M124.942 88.4716C135.704 88.4716 144.428 79.7474 144.428 68.9857C144.428 58.224 135.704 49.4999 124.942 49.4999C114.18 49.4999 105.456 58.224 105.456 68.9857C105.456 79.7474 114.18 88.4716 124.942 88.4716ZM137.662 68.9857C137.662 76.0108 131.967 81.7059 124.942 81.7059C117.917 81.7059 112.222 76.0108 112.222 68.9857C112.222 61.9605 117.917 56.2655 124.942 56.2655C131.967 56.2655 137.662 61.9605 137.662 68.9857ZM145.75 68.9857C145.75 80.4776 136.434 89.7936 124.942 89.7936C113.45 89.7936 104.134 80.4776 104.134 68.9857C104.134 57.4939 113.45 48.1779 124.942 48.1779C136.434 48.1779 145.75 57.4939 145.75 68.9857ZM136.34 68.9857C136.34 75.2807 131.237 80.3838 124.942 80.3838C118.647 80.3838 113.544 75.2807 113.544 68.9857C113.544 62.6907 118.647 57.5875 124.942 57.5875C131.237 57.5875 136.34 62.6907 136.34 68.9857Z" fill="#989898"/>
<path fill-rule="evenodd" clip-rule="evenodd" d="M124.942 153.306C136.434 153.306 145.75 143.99 145.75 132.498C145.75 121.006 136.434 111.69 124.942 111.69C113.45 111.69 104.134 121.006 104.134 132.498C104.134 143.99 113.45 153.306 124.942 153.306ZM124.942 143.896C131.237 143.896 136.34 138.793 136.34 132.498C136.34 126.203 131.237 121.1 124.942 121.1C118.647 121.1 113.544 126.203 113.544 132.498C113.544 138.793 118.647 143.896 124.942 143.896Z" fill="#D8D8D8"/>
<path fill-rule="evenodd" clip-rule="evenodd" d="M124.942 151.984C135.704 151.984 144.428 143.26 144.428 132.498C144.428 121.736 135.704 113.012 124.942 113.012C114.18 113.012 105.456 121.736 105.456 132.498C105.456 143.26 114.18 151.984 124.942 151.984ZM137.662 132.498C137.662 139.523 131.967 145.218 124.942 145.218C117.917 145.218 112.222 139.523 112.222 132.498C112.222 125.473 117.917 119.778 124.942 119.778C131.967 119.778 137.662 125.473 137.662 132.498ZM145.75 132.498C145.75 143.99 136.434 153.306 124.942 153.306C113.45 153.306 104.134 143.99 104.134 132.498C104.134 121.006 113.45 111.69 124.942 111.69C136.434 111.69 145.75 121.006 145.75 132.498ZM136.34 132.498C136.34 138.793 131.237 143.896 124.942 143.896C118.647 143.896 113.544 138.793 113.544 132.498C113.544 126.203 118.647 121.1 124.942 121.1C131.237 121.1 136.34 126.203 136.34 132.498Z" fill="#989898"/>
<path fill-rule="evenodd" clip-rule="evenodd" d="M188.379 89.7936C199.871 89.7936 209.187 80.4776 209.187 68.9857C209.187 57.4939 199.871 48.1779 188.379 48.1779C176.887 48.1779 167.571 57.4939 167.571 68.9857C167.571 80.4776 176.887 89.7936 188.379 89.7936ZM188.379 80.3838C194.674 80.3838 199.777 75.2807 199.777 68.9857C199.777 62.6907 194.674 57.5875 188.379 57.5875C182.084 57.5875 176.981 62.6907 176.981 68.9857C176.981 75.2807 182.084 80.3838 188.379 80.3838Z" fill="#D8D8D8"/>
<path fill-rule="evenodd" clip-rule="evenodd" d="M188.379 88.4716C199.14 88.4716 207.865 79.7474 207.865 68.9857C207.865 58.224 199.14 49.4999 188.379 49.4999C177.617 49.4999 168.893 58.224 168.893 68.9857C168.893 79.7474 177.617 88.4716 188.379 88.4716ZM201.099 68.9857C201.099 76.0108 195.404 81.7059 188.379 81.7059C181.354 81.7059 175.659 76.0108 175.659 68.9857C175.659 61.9605 181.354 56.2655 188.379 56.2655C195.404 56.2655 201.099 61.9605 201.099 68.9857ZM209.187 68.9857C209.187 80.4776 199.871 89.7936 188.379 89.7936C176.887 89.7936 167.571 80.4776 167.571 68.9857C167.571 57.4939 176.887 48.1779 188.379 48.1779C199.871 48.1779 209.187 57.4939 209.187 68.9857ZM199.777 68.9857C199.777 75.2807 194.674 80.3838 188.379 80.3838C182.084 80.3838 176.981 75.2807 176.981 68.9857C176.981 62.6907 182.084 57.5875 188.379 57.5875C194.674 57.5875 199.777 62.6907 199.777 68.9857Z" fill="#989898"/>
<path fill-rule="evenodd" clip-rule="evenodd" d="M188.379 153.306C199.871 153.306 209.187 143.99 209.187 132.498C209.187 121.006 199.871 111.69 188.379 111.69C176.887 111.69 167.571 121.006 167.571 132.498C167.571 143.99 176.887 153.306 188.379 153.306ZM188.379 143.896C194.674 143.896 199.777 138.793 199.777 132.498C199.777 126.203 194.674 121.1 188.379 121.1C182.084 121.1 176.981 126.203 176.981 132.498C176.981 138.793 182.084 143.896 188.379 143.896Z" fill="#D8D8D8"/>
<path fill-rule="evenodd" clip-rule="evenodd" d="M188.379 151.984C199.14 151.984 207.865 143.26 207.865 132.498C207.865 121.736 199.14 113.012 188.379 113.012C177.617 113.012 168.893 121.736 168.893 132.498C168.893 143.26 177.617 151.984 188.379 151.984ZM201.099 132.498C201.099 139.523 195.404 145.218 188.379 145.218C181.354 145.218 175.659 139.523 175.659 132.498C175.659 125.473 181.354 119.778 188.379 119.778C195.404 119.778 201.099 125.473 201.099 132.498ZM209.187 132.498C209.187 143.99 199.871 153.306 188.379 153.306C176.887 153.306 167.571 143.99 167.571 132.498C167.571 121.006 176.887 111.69 188.379 111.69C199.871 111.69 209.187 121.006 209.187 132.498ZM199.777 132.498C199.777 138.793 194.674 143.896 188.379 143.896C182.084 143.896 176.981 138.793 176.981 132.498C176.981 126.203 182.084 121.1 188.379 121.1C194.674 121.1 199.777 126.203 199.777 132.498Z" fill="#989898"/>
<path fill-rule="evenodd" clip-rule="evenodd" d="M251.816 89.7936C263.307 89.7936 272.623 80.4776 272.623 68.9857C272.623 57.4939 263.307 48.1779 251.816 48.1779C240.324 48.1779 231.008 57.4939 231.008 68.9857C231.008 80.4776 240.324 89.7936 251.816 89.7936ZM251.816 80.3838C258.111 80.3838 263.214 75.2807 263.214 68.9857C263.214 62.6907 258.111 57.5875 251.816 57.5875C245.52 57.5875 240.417 62.6907 240.417 68.9857C240.417 75.2807 245.52 80.3838 251.816 80.3838Z" fill="#D8D8D8"/>
<path fill-rule="evenodd" clip-rule="evenodd" d="M251.816 88.4716C262.577 88.4716 271.301 79.7474 271.301 68.9857C271.301 58.224 262.577 49.4999 251.816 49.4999C241.054 49.4999 232.33 58.224 232.33 68.9857C232.33 79.7474 241.054 88.4716 251.816 88.4716ZM264.536 68.9857C264.536 76.0108 258.841 81.7059 251.816 81.7059C244.79 81.7059 239.095 76.0108 239.095 68.9857C239.095 61.9605 244.79 56.2655 251.816 56.2655C258.841 56.2655 264.536 61.9605 264.536 68.9857ZM272.623 68.9857C272.623 80.4776 263.307 89.7936 251.816 89.7936C240.324 89.7936 231.008 80.4776 231.008 68.9857C231.008 57.4939 240.324 48.1779 251.816 48.1779C263.307 48.1779 272.623 57.4939 272.623 68.9857ZM263.214 68.9857C263.214 75.2807 258.111 80.3838 251.816 80.3838C245.52 80.3838 240.417 75.2807 240.417 68.9857C240.417 62.6907 245.52 57.5875 251.816 57.5875C258.111 57.5875 263.214 62.6907 263.214 68.9857Z" fill="#989898"/>
<path fill-rule="evenodd" clip-rule="evenodd" d="M251.816 153.306C263.307 153.306 272.623 143.99 272.623 132.498C272.623 121.006 263.307 111.69 251.816 111.69C240.324 111.69 231.008 121.006 231.008 132.498C231.008 143.99 240.324 153.306 251.816 153.306ZM251.816 143.896C258.111 143.896 263.214 138.793 263.214 132.498C263.214 126.203 258.111 121.1 251.816 121.1C245.52 121.1 240.417 126.203 240.417 132.498C240.417 138.793 245.52 143.896 251.816 143.896Z" fill="#D8D8D8"/>
<path fill-rule="evenodd" clip-rule="evenodd" d="M251.816 151.984C262.577 151.984 271.301 143.26 271.301 132.498C271.301 121.736 262.577 113.012 251.816 113.012C241.054 113.012 232.33 121.736 232.33 132.498C232.33 143.26 241.054 151.984 251.816 151.984ZM264.536 132.498C264.536 139.523 258.841 145.218 251.816 145.218C244.79 145.218 239.095 139.523 239.095 132.498C239.095 125.473 244.79 119.778 251.816 119.778C258.841 119.778 264.536 125.473 264.536 132.498ZM272.623 132.498C272.623 143.99 263.307 153.306 251.816 153.306C240.324 153.306 231.008 143.99 231.008 132.498C231.008 121.006 240.324 111.69 251.816 111.69C263.307 111.69 272.623 121.006 272.623 132.498ZM263.214 132.498C263.214 138.793 258.111 143.896 251.816 143.896C245.52 143.896 240.417 138.793 240.417 132.498C240.417 126.203 245.52 121.1 251.816 121.1C258.111 121.1 263.214 126.203 263.214 132.498Z" fill="#989898"/>
<path d="M54.0276 76.4778L57.6844 69.1642L61.3412 72.821L54.0276 76.4778Z" fill="#8D9EB0"/>
<path d="M69.298 61.3581L61.9844 65.0148L65.6412 68.6716L69.298 61.3581Z" fill="#8D9EB0"/>
<path d="M63.5969 66.5542L56.5924 73.5587L56.9816 73.9479L63.9861 66.9434L63.5969 66.5542Z" fill="#8D9EB0"/>
<path fill-rule="evenodd" clip-rule="evenodd" d="M69.8348 65.2428L87.9008 25.8547L88.6501 26.1984L70.5841 65.5865L69.8348 65.2428Z" fill="#A9B6C3"/>
<path d="M13.9216 64.3251C12.8717 64.3251 12.0514 64.7188 11.4608 65.3914L11.346 64.5547H9.60699V76.5634H11.6413V72.7902C12.2154 73.2496 12.8717 73.4956 13.6591 73.4956C15.677 73.4956 17.2191 71.7731 17.2191 69.3287V68.4592C17.2191 65.9492 15.8574 64.3251 13.9216 64.3251ZM15.1848 69.3943C15.1848 71.1005 14.463 71.97 13.2982 71.97C12.6584 71.97 12.1334 71.7567 11.6413 71.3465V66.7859C12.0842 66.2117 12.724 65.8672 13.4622 65.8672C14.545 65.8672 15.1848 66.7038 15.1848 68.3936V69.3943Z" fill="#8D9EB0"/>
<path d="M22.5088 89.0219L19.923 81.2646L25.0945 81.2646L22.5088 89.0219Z" fill="#8D9EB0"/>
<path d="M22.2336 81.8486L22.2336 53.8195L22.784 53.8195L22.784 81.8486L22.2336 81.8486Z" fill="#8D9EB0"/>
<path d="M22.5907 48.9495L20.0049 56.7067L25.1764 56.7067L22.5907 48.9495Z" fill="#8D9EB0"/>
<path fill-rule="evenodd" clip-rule="evenodd" d="M18.0649 90.1205L66.5554 90.1205L66.5554 90.7442L18.0649 90.7442L18.0649 90.1205Z" fill="#A9B6C3"/>
<path fill-rule="evenodd" clip-rule="evenodd" d="M18.0649 47.2271L66.5554 47.227L66.5554 47.8508L18.0649 47.8508L18.0649 47.2271Z" fill="#A9B6C3"/>
<path d="M97.2686 13.6976C96.317 13.6976 95.5623 14.0257 95.0045 14.6V10.5148H92.9701V22.6555H94.5615L94.7256 21.9008C95.3326 22.5242 96.0873 22.8688 97.0225 22.8688C99.024 22.8688 100.583 21.1297 100.583 18.718V17.832C100.583 15.3054 99.2701 13.6976 97.2686 13.6976ZM98.5483 18.7836C98.5483 20.457 97.81 21.343 96.6779 21.343C96.0053 21.343 95.4475 21.0805 95.0045 20.6047V16.175C95.4475 15.6172 96.0709 15.2398 96.8584 15.2398C97.974 15.2398 98.5483 16.0601 98.5483 17.7664V18.7836Z" fill="#8D9EB0"/>
<path d="M106.6 21.0969V11.171H105.075L101.859 13.0414L102.614 14.3867L104.599 13.4023V21.0969H102.253V22.6555H104.599H108.618V21.0969H106.6Z" fill="#8D9EB0"/>
<path d="M80.8551 11.1382C77.7543 11.1382 76.2613 13.1398 76.2613 15.814V18.3734C76.2613 20.982 77.7543 23.0164 80.8551 23.0164C83.9723 23.0164 85.4489 20.982 85.4489 18.3734V15.814C85.4489 13.1398 83.9723 11.1382 80.8551 11.1382ZM80.8551 12.4671C82.8731 12.4671 83.7918 13.8616 83.7918 15.7812V18.4062C83.7918 20.2765 82.8731 21.6875 80.8551 21.6875C78.8371 21.6875 77.9347 20.2765 77.9347 18.4062V15.7812C77.9347 13.8452 78.8535 12.4671 80.8551 12.4671Z" fill="#8D9EB0"/>
<path d="M84.568 9.71214L76.3544 23.9288L77.1437 24.3851L85.3573 10.1684L84.568 9.71214Z" fill="#8D9EB0"/>
</svg>
